master.ufo
<glyph name="maComma" format="1">
  <advance width="355"/>
  <unicode hex="060C"/>
  <outline>
    <contour>
      <point x="158.203" y="-15.1367" type="line"/>
      <point x="126.953" y="9.76562"/>
      <point x="110.84" y="24.9023"/>
      <point x="107.91" y="28.8086" type="curve"/>
      <point x="116.211" y="54.1992"/>
      <point x="141.113" y="116.211"/>
      <point x="192.871" y="201.172" type="curve" smooth="yes"/>
      <point x="208.984" y="227.051" type="line"/>
      <point x="214.844" y="234.863" type="line"/>
      <point x="222.168" y="230.957" type="line"/>
      <point x="233.887" y="223.145" type="line"/>
      <point x="217.773" y="182.129" type="line"/>
      <point x="214.844" y="163.086" type="line"/>
      <point x="212.891" y="145.02" type="line"/>
      <point x="212.891" y="125.977"/>
      <point x="216.797" y="108.887"/>
      <point x="225.098" y="98.1445" type="curve"/>
      <point x="247.07" y="75.1953" type="line"/>
      <point x="268.066" y="57.1289" type="line"/>
      <point x="203.125" y="-52.2461" type="line"/>
    </contour>
  </outline>
</glyph>
<glyph name="maSemicolon" format="1">
  <advance width="342"/>
  <unicode hex="061B"/>
  <outline>
    <contour>
      <point x="207.031" y="296.875" type="line"/>
      <point x="143.066" y="188.965" type="line"/>
      <point x="98.1445" y="226.074" type="line"/>
      <point x="66.8945" y="250.977"/>
      <point x="49.8047" y="266.113"/>
      <point x="46.875" y="270.02" type="curve"/>
      <point x="56.1523" y="294.922"/>
      <point x="81.0547" y="354.98"/>
      <point x="131.836" y="441.895" type="curve"/>
      <point x="147.949" y="466.797" type="line"/>
      <point x="154.785" y="476.074" type="line"/>
      <point x="172.852" y="463.867" type="line"/>
      <point x="166.016" y="445.801" type="line"/>
      <point x="158.203" y="421.875" type="line"/>
      <point x="153.809" y="402.832" type="line"/>
      <point x="152.832" y="384.766" type="line"/>
      <point x="155.762" y="365.234" type="line"/>
      <point x="165.039" y="337.891" type="line"/>
      <point x="187.012" y="314.941" type="line"/>
    </contour>
    <contour>
      <point x="56.1523" y="63.9648" type="line"/>
      <point x="119.141" y="175.781" type="line"/>
      <point x="215.82" y="91.7969" type="line"/>
      <point x="150.879" y="-16.1133" type="line"/>
    </contour>
  </outline>
</glyph>
<glyph name="maQuestion" format="1">
  <advance width="321"/>
  <unicode hex="061F"/>
  <outline>
    <contour>
      <point x="192.871" y="181.152" type="curve" smooth="yes"/>
      <point x="191.894" y="180.664"/>
      <point x="190.918" y="180.176"/>
      <point x="189.941" y="180.176" type="curve"/>
      <point x="188.965" y="180.176"/>
      <point x="187.988" y="180.664"/>
      <point x="187.011" y="181.152" type="curve"/>
      <point x="181.152" y="187.012" type="line"/>
      <point x="187.011" y="200.195" type="line"/>
      <point x="189.941" y="210.938" type="line"/>
      <point x="189.941" y="215.82"/>
      <point x="188.965" y="220.215"/>
      <point x="187.011" y="223.145" type="curve" smooth="yes"/>
      <point x="181.152" y="231.934"/>
      <point x="172.851" y="240.234"/>
      <point x="164.062" y="248.047" type="curve"/>
      <point x="138.183" y="262.207" type="line"/>
      <point x="80.0779" y="287.109" type="line" smooth="yes"/>
      <point x="67.8709" y="291.992"/>
      <point x="56.1521" y="305.176"/>
      <point x="43.9451" y="328.125" type="curve"/>
      <point x="41.992" y="348.145" type="line"/>
      <point x="41.992" y="411.133"/>
      <point x="95.2146" y="582.031"/>
      <point x="118.164" y="582.031" type="curve" smooth="yes"/>
      <point x="154.785" y="582.031"/>
      <point x="243.164" y="512.207"/>
      <point x="250.976" y="472.168" type="curve"/>
      <point x="251.953" y="452.148" type="line"/>
      <point x="251.953" y="434.082" type="line"/>
      <point x="247.07" y="402.832" type="line"/>
      <point x="238.769" y="365.234" type="line"/>
      <point x="231.933" y="365.234"/>
      <point x="226.074" y="368.164"/>
      <point x="225.097" y="372.07" type="curve" smooth="yes"/>
      <point x="223.144" y="381.836"/>
      <point x="221.191" y="389.16"/>
      <point x="217.773" y="393.066" type="curve"/>
      <point x="214.844" y="399.902" type="line"/>
      <point x="207.031" y="413.086" type="line" smooth="yes"/>
      <point x="194.824" y="432.129"/>
      <point x="158.203" y="453.125"/>
      <point x="110.84" y="474.121" type="curve"/>
      <point x="104.98" y="462.891" type="line"/>
      <point x="101.074" y="452.148" type="line" smooth="yes"/>
      <point x="97.1678" y="441.895"/>
      <point x="95.2147" y="434.082"/>
      <point x="95.2147" y="427.246" type="curve"/>
      <point x="98.1444" y="412.109" type="line"/>
      <point x="102.051" y="402.832"/>
      <point x="106.933" y="395.996"/>
      <point x="111.816" y="391.113" type="curve"/>
      <point x="122.07" y="383.789" type="line"/>
      <point x="138.183" y="375.977" type="line"/>
      <point x="169.048" y="365.083"/>
      <point x="226.074" y="326.244"/>
      <point x="226.074" y="289.063" type="curve" smooth="yes"/>
      <point x="226.074" y="273.926" type="line" smooth="yes"/>
      <point x="226.074" y="265.137"/>
      <point x="225.097" y="259.766"/>
      <point x="223.144" y="256.836" type="curve"/>
      <point x="223.144" y="251.953"/>
      <point x="222.168" y="248.047"/>
      <point x="221.191" y="245.117" type="curve" smooth="yes"/>
      <point x="214.844" y="229.004" type="line"/>
      <point x="208.984" y="206.055"/>
      <point x="202.148" y="189.941"/>
    </contour>
    <contour>
      <point x="83.0078" y="63.9648" type="line"/>
      <point x="145.996" y="175.781" type="line"/>
      <point x="243.164" y="91.7969" type="line"/>
      <point x="179.199" y="-16.1133" type="line"/>
    </contour>
  </outline>
</glyph>
<glyph name="arHamza.isol" format="1">
  <advance width="328"/>
  <unicode hex="0621"/>
  <outline>
    <contour>
      <point x="208.008" y="157.227" type="line" smooth="yes"/>
      <point x="220.215" y="154.785"/>
      <point x="233.887" y="153.809"/>
      <point x="250.977" y="153.809" type="curve"/>
      <point x="293.945" y="151.855" type="line"/>
      <point x="274.902" y="86.9141" type="line" smooth="yes"/>
      <point x="266.113" y="57.1289"/>
      <point x="256.836" y="28.8086"/>
      <point x="246.094" y="2.92968" type="curve"/>
      <point x="201.172" y="-1.95313"/>
      <point x="164.062" y="-14.1602"/>
      <point x="134.766" y="-30.7617" type="curve"/>
      <point x="131.836" y="-32.2265"/>
      <point x="121.094" y="-41.0156"/>
      <point x="102.051" y="-56.1523" type="curve"/>
      <point x="40.0391" y="-110.84" type="line"/>
      <point x="36.1328" y="-104.98" type="line"/>
      <point x="36.1328" y="-56.1523"/>
      <point x="66.8945" y="-1.95309"/>
      <point x="102.051" y="14.1602" type="curve"/>
      <point x="69.8242" y="22.9493"/>
      <point x="53.2226" y="33.2032"/>
      <point x="38.0859" y="54.1993" type="curve"/>
      <point x="35.1562" y="59.0821"/>
      <point x="33.2031" y="68.8477"/>
      <point x="33.2031" y="83.0078" type="curve" smooth="yes"/>
      <point x="33.2031" y="105.957" type="line"/>
      <point x="37.1094" y="131.836" type="line" smooth="yes"/>
      <point x="39.0625" y="145.02"/>
      <point x="42.9687" y="160.156"/>
      <point x="48.8281" y="178.223" type="curve" smooth="yes"/>
      <point x="61.0351" y="214.844" type="line"/>
      <point x="67.8711" y="229.981" type="line" smooth="yes"/>
      <point x="70.8008" y="236.816"/>
      <point x="79.1016" y="250"/>
      <point x="92.7734" y="270.996" type="curve"/>
      <point x="111.816" y="294.922" type="line"/>
      <point x="133.789" y="315.918" type="line"/>
      <point x="151.855" y="331.055"/>
      <point x="169.922" y="337.891"/>
      <point x="187.988" y="337.891" type="curve"/>
      <point x="208.008" y="334.961" type="line"/>
      <point x="222.168" y="330.078"/>
      <point x="232.91" y="319.824"/>
      <point x="240.234" y="305.176" type="curve"/>
      <point x="249.023" y="265.137" type="line"/>
      <point x="249.023" y="263.184"/>
      <point x="242.187" y="249.023"/>
      <point x="229.004" y="222.168" type="curve"/>
      <point x="208.984" y="184.082" type="line"/>
      <point x="183.105" y="208.984" type="line"/>
      <point x="169.922" y="220.215"/>
      <point x="158.203" y="225.098"/>
      <point x="145.996" y="225.098" type="curve" smooth="yes"/>
      <point x="137.207" y="225.098"/>
      <point x="129.883" y="223.145"/>
      <point x="125" y="219.238" type="curve"/>
      <point x="118.164" y="215.82"/>
      <point x="110.84" y="209.961"/>
      <point x="104.004" y="199.219" type="curve"/>
      <point x="112.793" y="185.059"/>
      <point x="133.789" y="173.828"/>
      <point x="166.992" y="165.039" type="curve"/>
    </contour>
    <contour>
      <point x="149.733" y="475.868" type="move" name="markAbove"/>
    </contour>
    <contour>
      <point x="145.996" y="-110.84" type="move" name="markBelow"/>
    </contour>
  </outline>
</glyph>
<glyph name="arHah.isol" format="1">
  <advance width="413.366"/>
  <unicode hex="062D"/>
  <outline>
    <contour>
      <point x="376.492" y="-176.413" type="line"/>
      <point x="407.677" y="-179.22" type="line"/>
      <point x="446.398" y="-181.207" type="line"/>
      <point x="445.657" y="-186.034" type="line" smooth="yes"/>
      <point x="445.213" y="-188.93"/>
      <point x="443.804" y="-191.677"/>
      <point x="442.69" y="-192.495" type="curve"/>
      <point x="395.116" y="-232.127" type="line"/>
      <point x="378.268" y="-245.35"/>
      <point x="360.725" y="-261.661"/>
      <point x="343.616" y="-273.362" type="curve"/>
      <point x="307.638" y="-282.15"/>
      <point x="267.587" y="-283.43"/>
      <point x="260.822" y="-282.647" type="curve" smooth="yes"/>
      <point x="221.102" y="-278.052" type="line"/>
      <point x="202" y="-273.467" type="line"/>
      <point x="88.7635" y="-233.937"/>
      <point x="40.0389" y="-172.09"/>
      <point x="40.0389" y="11.9923" type="curve" smooth="yes"/>
      <point x="40.0389" y="73.0275"/>
      <point x="79.1014" y="171.172"/>
      <point x="166.992" y="252.227" type="curve"/>
      <point x="116.211" y="257.11" type="line"/>
      <point x="105.957" y="257.11"/>
      <point x="101.074" y="257.11"/>
      <point x="100.098" y="256.133" type="curve"/>
      <point x="97.1678" y="256.133"/>
      <point x="94.2381" y="255.156"/>
      <point x="90.8201" y="254.18" type="curve"/>
      <point x="82.0311" y="249.785" type="line"/>
      <point x="69.824" y="241.973" type="line"/>
      <point x="57.1287" y="232.207" type="line"/>
      <point x="45.8983" y="220" type="line"/>
      <point x="34.1795" y="204.863" type="line"/>
      <point x="29.785" y="205.84" type="line"/>
      <point x="28.8084" y="211.211" type="line"/>
      <point x="28.8084" y="276.152"/>
      <point x="58.1053" y="347.93"/>
      <point x="94.2381" y="384.063" type="curve"/>
      <point x="110.84" y="389.922" type="line"/>
      <point x="128.906" y="391.875" type="line"/>
      <point x="142.09" y="391.875"/>
      <point x="162.109" y="387.969"/>
      <point x="188.965" y="379.18" type="curve"/>
      <point x="254.883" y="364.043" type="line"/>
      <point x="284.179" y="362.09" type="line"/>
      <point x="313.965" y="361.113" type="line"/>
      <point x="409.179" y="363.066" type="line"/>
      <point x="405.762" y="342.07" type="line"/>
      <point x="402.832" y="337.187" type="line"/>
      <point x="390.136" y="293.242" type="line"/>
      <point x="378.906" y="260.039"/>
      <point x="371.094" y="240.02"/>
      <point x="366.211" y="235.137" type="curve"/>
      <point x="319.824" y="225.859" type="line"/>
      <point x="308.105" y="222.93" type="line"/>
      <point x="304.199" y="222.93"/>
      <point x="299.804" y="221.953"/>
      <point x="296.875" y="220" type="curve"/>
      <point x="273.926" y="213.164" type="line" smooth="yes"/>
      <point x="247.07" y="204.863"/>
      <point x="226.074" y="198.027"/>
      <point x="212.89" y="191.191" type="curve"/>
      <point x="183.105" y="170.195" type="line"/>
      <point x="171.875" y="160.918"/>
      <point x="162.109" y="151.152"/>
      <point x="151.855" y="137.969" type="curve"/>
      <point x="130.859" y="114.043"/>
      <point x="113.769" y="90.1172"/>
      <point x="103.027" y="66.1914" type="curve"/>
      <point x="88.8669" y="32.0117" type="line"/>
      <point x="85.9372" y="17.8516" type="line"/>
      <point x="84.9606" y="2.22656" type="line"/>
      <point x="84.9606" y="-10.957" type="line"/>
      <point x="87.8903" y="-23.1641" type="line"/>
      <point x="87.8903" y="-27.0703"/>
      <point x="92.5181" y="-46.8435"/>
      <point x="111.257" y="-72.5503" type="curve"/>
      <point x="135.895" y="-106.525"/>
      <point x="157.649" y="-115.331"/>
      <point x="195.153" y="-134.915" type="curve"/>
      <point x="235.922" y="-152.53"/>
      <point x="232.88" y="-151.716"/>
      <point x="275.325" y="-162.871" type="curve"/>
      <point x="370.7" y="-175.524" type="line"/>
    </contour>
    <contour>
      <point x="213.145" y="506" type="move" name="markAbove"/>
    </contour>
    <contour>
      <point x="214.035" y="533.586" type="move" name="dotAbove"/>
    </contour>
    <contour>
      <point x="261.198" y="87.7612" type="move" name="dotBelow"/>
    </contour>
    <contour>
      <point x="53.3892" y="-257.584" type="move" name="markBelow"/>
    </contour>
    <contour>
      <point x="197.127" y="391.207" type="move" name="hamzaAbove"/>
    </contour>
  </outline>
</glyph>
<glyph name="arDal.isol" format="1">
  <advance width="308"/>
  <unicode hex="062F"/>
  <outline>
    <contour>
      <point x="277.832" y="17.0898" type="line"/>
      <point x="271.973" y="5.85938"/>
      <point x="266.113" y="0"/>
      <point x="259.766" y="0" type="curve" smooth="yes"/>
      <point x="52.2461" y="0" type="line" smooth="yes"/>
      <point x="46.875" y="0"/>
      <point x="43.9453" y="2.9297"/>
      <point x="43.9453" y="8.78907" type="curve" smooth="yes"/>
      <point x="43.9453" y="44.9219" type="line"/>
      <point x="49.8047" y="103.027" type="line"/>
      <point x="49.8047" y="111.816"/>
      <point x="50.7813" y="124.023"/>
      <point x="53.2227" y="139.16" type="curve"/>
      <point x="54.1993" y="150.879" type="line"/>
      <point x="60.0587" y="180.176" type="line"/>
      <point x="235.84" y="180.176" type="line"/>
      <point x="230.957" y="205.078"/>
      <point x="216.797" y="232.91"/>
      <point x="192.871" y="263.184" type="curve"/>
      <point x="173.828" y="283.203"/>
      <point x="150.879" y="298.828"/>
      <point x="124.023" y="312.012" type="curve"/>
      <point x="125.977" y="326.172"/>
      <point x="131.836" y="352.051"/>
      <point x="142.09" y="389.16" type="curve"/>
      <point x="153.809" y="435.059" type="line"/>
      <point x="161.133" y="458.008" type="line"/>
      <point x="209.961" y="446.777"/>
      <point x="286.133" y="342.773"/>
      <point x="294.922" y="233.887" type="curve"/>
      <point x="295.899" y="200.195" type="line"/>
      <point x="297.852" y="165.039" type="line"/>
      <point x="297.852" y="137.207" type="line"/>
      <point x="296.875" y="119.141" type="line"/>
      <point x="296.875" y="109.863"/>
      <point x="295.898" y="104.004"/>
      <point x="294.922" y="101.074" type="curve"/>
      <point x="293.945" y="78.125" type="line"/>
      <point x="289.062" y="48.8281" type="line"/>
    </contour>
    <contour>
      <point x="153.809" y="602" type="move" name="dotAbove"/>
    </contour>
    <contour>
      <point x="175.944" y="529.989" type="move" name="markAbove"/>
    </contour>
    <contour>
      <point x="135.641" y="-115.873" type="move" name="markBelow"/>
    </contour>
    <contour>
      <point x="161" y="-155.967" type="move" name="dotBelow"/>
    </contour>
    <contour>
      <point x="125.617" y="572.407" type="move" name="hamzaAbove"/>
    </contour>
  </outline>
</glyph>
<glyph name="arReh.isol" format="1">
  <advance width="312.347"/>
  <unicode hex="0631"/>
  <outline>
    <contour>
      <point x="129.132" y="-169.922" type="curve" smooth="yes"/>
      <point x="102.277" y="-169.922"/>
      <point x="72.4917" y="-160.156"/>
      <point x="39.2883" y="-140.137" type="curve"/>
      <point x="6.57349" y="-123.047"/>
      <point x="-28.5828" y="-94.2383"/>
      <point x="-64.7153" y="-54.1992" type="curve"/>
      <point x="-63.7387" y="-49.8047" type="line"/>
      <point x="-56.4145" y="-44.9219" type="line"/>
      <point x="-33.4655" y="-56.1523" type="line"/>
      <point x="-9.53976" y="-62.9883" type="line"/>
      <point x="15.3626" y="-66.8945" type="line"/>
      <point x="43.1946" y="-68.8476" type="line"/>
      <point x="99.3472" y="-68.8476"/>
      <point x="185.285" y="4.88284"/>
      <point x="213.117" y="61.0352" type="curve"/>
      <point x="217.511" y="73.2422" type="line"/>
      <point x="218.488" y="85.9375" type="line"/>
      <point x="218.488" y="90.8203"/>
      <point x="218.488" y="94.2383"/>
      <point x="217.511" y="95.2149" type="curve"/>
      <point x="216.535" y="102.051"/>
      <point x="208.234" y="118.164"/>
      <point x="192.121" y="143.066" type="curve"/>
      <point x="168.195" y="175.781" type="line"/>
      <point x="139.386" y="210.938" type="line"/>
      <point x="148.175" y="244.141" type="line"/>
      <point x="154.523" y="264.16" type="line"/>
      <point x="162.335" y="282.227" type="line"/>
      <point x="173.566" y="313.965"/>
      <point x="180.402" y="332.031"/>
      <point x="184.308" y="334.961" type="curve"/>
      <point x="189.191" y="332.031"/>
      <point x="196.515" y="325.195"/>
      <point x="206.281" y="313.965" type="curve"/>
      <point x="223.371" y="296.875"/>
      <point x="250.226" y="257.813"/>
      <point x="269.269" y="221.191" type="curve"/>
      <point x="275.128" y="207.031"/>
      <point x="282.453" y="187.012"/>
      <point x="290.265" y="160.156" type="curve"/>
      <point x="293.195" y="118.164" type="line"/>
      <point x="293.195" y="91.7969" type="line"/>
      <point x="289.289" y="52.2462" type="line" smooth="yes"/>
      <point x="286.359" y="20.9962"/>
      <point x="276.593" y="-6.83587"/>
      <point x="260.48" y="-29.7851" type="curve"/>
      <point x="241.548" y="-73.3857"/>
      <point x="183.316" y="-169.922"/>
    </contour>
    <contour>
      <point x="155.316" y="504.116" type="move" name="dotAbove"/>
    </contour>
    <contour>
      <point x="158.759" y="486" type="move" name="markAbove"/>
    </contour>
    <contour>
      <point x="165.039" y="-252.659" type="move" name="dotBelow"/>
    </contour>
    <contour>
      <point x="130.763" y="-200.995" type="move" name="markBelow"/>
    </contour>
    <contour>
      <point x="120.867" y="-230.954" type="move" name="smallVBelow"/>
    </contour>
    <contour>
      <point x="170.847" y="359.294" type="move" name="hamzaAbove"/>
    </contour>
  </outline>
</glyph>
<glyph name="arSeen.isol" format="1">
  <advance width="681.001"/>
  <unicode hex="0633"/>
  <outline>
    <contour>
      <point x="255.859" y="-180.176" type="curve" smooth="yes"/>
      <point x="223.145" y="-193.848"/>
      <point x="172.215" y="-201.172"/>
      <point x="161.133" y="-201.172" type="curve" smooth="yes"/>
      <point x="152.832" y="-201.172" type="line" smooth="yes"/>
      <point x="147.949" y="-201.172"/>
      <point x="145.02" y="-201.172"/>
      <point x="144.043" y="-200.195" type="curve"/>
      <point x="129.883" y="-198.242" type="line"/>
      <point x="57.1289" y="-185.059"/>
      <point x="15.1367" y="-138.184"/>
      <point x="15.1367" y="-68.8476" type="curve" smooth="yes"/>
      <point x="15.1367" y="27.832"/>
      <point x="84.9609" y="168.945"/>
      <point x="132.812" y="204.102" type="curve"/>
      <point x="138.184" y="205.078" type="line"/>
      <point x="144.043" y="202.148" type="line"/>
      <point x="112.793" y="137.207" type="line"/>
      <point x="105.957" y="108.887" type="line"/>
      <point x="97.1679" y="67.8711" type="line"/>
      <point x="94.2382" y="46.875" type="line"/>
      <point x="94.2382" y="38.086" type="line"/>
      <point x="96.1913" y="9.76566" type="line"/>
      <point x="101.762" y="-18.0869"/>
      <point x="129.94" y="-34.1976"/>
      <point x="154.785" y="-41.9922" type="curve"/>
      <point x="179.199" y="-43.9453" type="line"/>
      <point x="185.059" y="-43.9453" type="line"/>
      <point x="203.125" y="-42.9687" type="line"/>
      <point x="213.867" y="-42.9687" type="line"/>
      <point x="221.191" y="-41.9921" type="line"/>
      <point x="231.934" y="-41.9921" type="line"/>
      <point x="264.16" y="-33.203" type="line"/>
      <point x="288.086" y="-25.8788"/>
      <point x="310.059" y="-14.16"/>
      <point x="327.148" y="0.976699" type="curve"/>
      <point x="329.101" y="13.1837" type="line"/>
      <point x="329.101" y="47.8517"/>
      <point x="294.922" y="145.02"/>
      <point x="268.066" y="189.942" type="curve"/>
      <point x="294.922" y="248.047" type="line"/>
      <point x="317.871" y="293.945" type="line"/>
      <point x="329.101" y="313.965" type="line"/>
      <point x="354.98" y="256.836" type="line"/>
      <point x="369.141" y="228.027" type="line"/>
      <point x="375.976" y="212.891"/>
      <point x="388.183" y="196.777"/>
      <point x="404.785" y="180.176" type="curve"/>
      <point x="471.191" y="180.176" type="line"/>
      <point x="474.121" y="199.219" type="line"/>
      <point x="478.027" y="229.981" type="line"/>
      <point x="508.789" y="284.18" type="line"/>
      <point x="512.207" y="290.039"/>
      <point x="517.09" y="296.875"/>
      <point x="522.949" y="304.199" type="curve" smooth="yes"/>
      <point x="529.785" y="312.012" type="line"/>
      <point x="545.898" y="328.125" type="line"/>
      <point x="549.805" y="312.012" type="line"/>
      <point x="549.805" y="293.945" type="line"/>
      <point x="543.945" y="261.231" type="line"/>
      <point x="540.039" y="244.141" type="line"/>
      <point x="532.226" y="180.176" type="line"/>
      <point x="594.238" y="180.176" type="line"/>
      <point x="596.191" y="203.125" type="line"/>
      <point x="595.215" y="223.145" type="line"/>
      <point x="595.215" y="237.793" type="line"/>
      <point x="632.812" y="305.176" type="line"/>
      <point x="643.066" y="319.824"/>
      <point x="651.855" y="329.102"/>
      <point x="659.18" y="333.008" type="curve"/>
      <point x="661.133" y="325.195" type="line"/>
      <point x="662.109" y="312.012" type="line"/>
      <point x="663.086" y="270.02" type="line"/>
      <point x="663.086" y="217.774" type="line"/>
      <point x="662.109" y="196.777" type="line"/>
      <point x="662.109" y="147.949" type="line"/>
      <point x="661.133" y="139.16" type="line"/>
      <point x="661.133" y="132.813" type="line" smooth="yes"/>
      <point x="661.133" y="129.883"/>
      <point x="661.133" y="127.93"/>
      <point x="660.156" y="125.977" type="curve"/>
      <point x="657.226" y="115.235" type="line"/>
      <point x="638.183" y="27.8322" type="line"/>
      <point x="637.207" y="20.0197"/>
      <point x="634.765" y="16.1135"/>
      <point x="633.789" y="15.1369" type="curve"/>
      <point x="629.883" y="6.83607" type="line"/>
      <point x="626.953" y="2.92982"/>
      <point x="623.047" y="0.976724"/>
      <point x="618.164" y="0" type="curve"/>
      <point x="501.953" y="0" type="line"/>
      <point x="500.976" y="0"/>
      <point x="498.047" y="0.9766"/>
      <point x="494.14" y="2.9297" type="curve"/>
      <point x="478.027" y="20.9961" type="line"/>
      <point x="466.797" y="5.85939" type="line" smooth="yes"/>
      <point x="463.867" y="1.95314"/>
      <point x="459.961" y="0"/>
      <point x="456.054" y="0" type="curve" smooth="yes"/>
      <point x="378.906" y="0" type="line"/>
      <point x="375.976" y="-22.9492" type="line"/>
      <point x="367.187" y="-59.082" type="line"/>
      <point x="360.839" y="-76.1719" type="line"/>
      <point x="344.238" y="-127.93"/>
      <point x="323.242" y="-152.832"/>
    </contour>
    <contour>
      <point x="508.789" y="460.709" type="move" name="dotAbove"/>
    </contour>
    <contour>
      <point x="166.87" y="278.235" type="move" name="markAbove"/>
    </contour>
    <contour>
      <point x="214.48" y="-227.703" type="move" name="markBelow"/>
    </contour>
    <contour>
      <point x="492.891" y="-136.86" type="move" name="dotBelow"/>
    </contour>
  </outline>
</glyph>
<glyph name="arSad.isol" format="1">
  <advance width="708.999"/>
  <unicode hex="0635"/>
  <outline>
    <contour>
      <point x="698.242" y="227.051" type="line" smooth="yes"/>
      <point x="698.242" y="213.867"/>
      <point x="695.801" y="198.242"/>
      <point x="691.895" y="179.199" type="curve" smooth="yes"/>
      <point x="681.152" y="127.93" type="line"/>
      <point x="671.875" y="100.098" type="line"/>
      <point x="658.203" y="46.875" type="line"/>
      <point x="643.066" y="0" type="line"/>
      <point x="374.023" y="0" type="line"/>
      <point x="371.094" y="-20.9961" type="line"/>
      <point x="366.211" y="-42.9688" type="line"/>
      <point x="365.234" y="-49.8047"/>
      <point x="363.77" y="-56.1523"/>
      <point x="360.84" y="-61.0352" type="curve"/>
      <point x="354.98" y="-78.125" type="line" smooth="yes"/>
      <point x="337.891" y="-126.953"/>
      <point x="316.895" y="-151.855"/>
      <point x="250" y="-180.176" type="curve"/>
      <point x="215.82" y="-193.848"/>
      <point x="184.082" y="-201.172"/>
      <point x="153.809" y="-201.172" type="curve" smooth="yes"/>
      <point x="145.996" y="-201.172" type="line" smooth="yes"/>
      <point x="141.113" y="-201.172"/>
      <point x="138.184" y="-201.172"/>
      <point x="136.23" y="-200.195" type="curve"/>
      <point x="123.047" y="-198.242" type="line"/>
      <point x="49.8047" y="-185.059"/>
      <point x="6.83595" y="-138.184"/>
      <point x="6.83595" y="-68.8476" type="curve" smooth="yes"/>
      <point x="6.83595" y="32.2266"/>
      <point x="77.1485" y="168.945"/>
      <point x="125.977" y="204.102" type="curve"/>
      <point x="130.859" y="205.078" type="line"/>
      <point x="136.23" y="202.148" type="line"/>
      <point x="104.98" y="137.207" type="line"/>
      <point x="99.1211" y="108.887" type="line"/>
      <point x="88.8672" y="67.8711" type="line"/>
      <point x="86.9141" y="46.875" type="line"/>
      <point x="86.9141" y="38.086" type="line" smooth="yes"/>
      <point x="86.9141" y="-6.50362"/>
      <point x="104.162" y="-28.5613"/>
      <point x="146.973" y="-41.9922" type="curve"/>
      <point x="171.875" y="-43.9453" type="line"/>
      <point x="177.246" y="-43.9453" type="line"/>
      <point x="195.801" y="-42.9687" type="line"/>
      <point x="207.031" y="-42.9687" type="line"/>
      <point x="213.867" y="-41.9921" type="line"/>
      <point x="225.098" y="-41.9921" type="line"/>
      <point x="233.887" y="-39.0624" type="line"/>
      <point x="243.164" y="-37.1093" type="line"/>
      <point x="256.836" y="-33.203" type="line" smooth="yes"/>
      <point x="287.109" y="-23.9257"/>
      <point x="308.106" y="-13.1835"/>
      <point x="318.848" y="0.976686" type="curve"/>
      <point x="320.801" y="13.1837" type="line"/>
      <point x="320.801" y="47.8517"/>
      <point x="286.133" y="145.02"/>
      <point x="261.23" y="189.942" type="curve"/>
      <point x="286.133" y="244.141" type="line"/>
      <point x="303.223" y="283.203"/>
      <point x="313.965" y="304.199"/>
      <point x="316.895" y="307.129" type="curve"/>
      <point x="323.242" y="305.176"/>
      <point x="330.078" y="294.922"/>
      <point x="338.867" y="276.856" type="curve"/>
      <point x="382.813" y="181.153" type="line"/>
      <point x="467.773" y="256.836" type="line"/>
      <point x="492.188" y="276.856" type="line"/>
      <point x="529.785" y="304.199" type="line"/>
      <point x="562.012" y="323.242" type="line"/>
      <point x="589.844" y="334.961" type="line" smooth="yes"/>
      <point x="597.168" y="337.891"/>
      <point x="604.004" y="338.867"/>
      <point x="610.84" y="339.844" type="curve"/>
      <point x="617.188" y="339.844" type="line"/>
      <point x="644.043" y="333.985"/>
      <point x="664.063" y="319.824"/>
      <point x="679.199" y="298.828" type="curve"/>
      <point x="684.082" y="290.039"/>
      <point x="688.965" y="278.809"/>
      <point x="692.871" y="266.114" type="curve"/>
      <point x="696.777" y="247.071" type="line"/>
      <point x="698.242" y="233.887" type="line"/>
    </contour>
    <contour>
      <point x="497.07" y="208.984" type="curve" smooth="yes"/>
      <point x="459.961" y="180.176" type="line"/>
      <point x="604.004" y="180.176" type="line"/>
      <point x="604.981" y="184.082" type="line"/>
      <point x="601.074" y="195.801" type="line"/>
      <point x="584.961" y="220.215"/>
      <point x="562.012" y="231.934"/>
      <point x="545.898" y="231.934" type="curve" smooth="yes"/>
      <point x="530.762" y="231.934"/>
      <point x="518.066" y="225.098"/>
    </contour>
    <contour>
      <point x="492.188" y="476.301" type="move" name="dotAbove"/>
    </contour>
    <contour>
      <point x="154.497" y="416.821" type="move" name="markAbove"/>
    </contour>
    <contour>
      <point x="116.366" y="-233.391" type="move" name="markBelow"/>
    </contour>
    <contour>
      <point x="483.66" y="-155.565" type="move" name="dotBelow"/>
    </contour>
  </outline>
</glyph>
<glyph name="arTah.isol" format="1">
  <advance width="552.002"/>
  <unicode hex="0637"/>
  <outline>
    <contour>
      <point x="159.18" y="-1.9531" type="line"/>
      <point x="100.57" y="-1.9531"/>
      <point x="71.2881" y="-1.3698"/>
      <point x="40.0391" y="55.1758" type="curve" smooth="yes"/>
      <point x="24.9023" y="82.0312"/>
      <point x="18.0664" y="112.793"/>
      <point x="18.0664" y="147.949" type="curve" smooth="yes"/>
      <point x="18.0664" y="165.039"/>
      <point x="20.0195" y="182.129"/>
      <point x="23.9258" y="199.219" type="curve"/>
      <point x="28.8086" y="200.195" type="line"/>
      <point x="35.1562" y="198.242" type="line"/>
      <point x="36.1328" y="193.848"/>
      <point x="42.9688" y="187.988"/>
      <point x="55.1758" y="179.199" type="curve"/>
      <point x="70.8008" y="174.805" type="line"/>
      <point x="87.8906" y="172.852" type="line"/>
      <point x="100.098" y="172.852" type="line" smooth="yes"/>
      <point x="103.027" y="172.852"/>
      <point x="104.98" y="173.828"/>
      <point x="105.957" y="174.805" type="curve"/>
      <point x="118.164" y="181.152" type="line"/>
      <point x="125.977" y="189.942" type="line"/>
      <point x="125.977" y="274.902"/>
      <point x="106.934" y="434.082"/>
      <point x="98.1446" y="473.145" type="curve"/>
      <point x="92.7735" y="477.051" type="line"/>
      <point x="83.9844" y="488.77" type="line"/>
      <point x="75.1953" y="504.883" type="line"/>
      <point x="76.1719" y="512.207"/>
      <point x="79.1016" y="520.996"/>
      <point x="83.9845" y="530.762" type="curve" smooth="yes"/>
      <point x="101.074" y="563.965" type="line" smooth="yes"/>
      <point x="107.91" y="577.149"/>
      <point x="120.117" y="591.797"/>
      <point x="134.766" y="608.887" type="curve"/>
      <point x="145.02" y="606.934" type="line"/>
      <point x="145.02" y="580.078"/>
      <point x="160.156" y="554.199"/>
      <point x="190.918" y="528.809" type="curve"/>
      <point x="209.961" y="517.09" type="line"/>
      <point x="242.188" y="502.93" type="line"/>
      <point x="224.121" y="454.102" type="line"/>
      <point x="203.125" y="405.762" type="line"/>
      <point x="198.242" y="396.973" type="line"/>
      <point x="184.082" y="395.996" type="line"/>
      <point x="184.082" y="295.899" type="line"/>
      <point x="182.129" y="287.109" type="line"/>
      <point x="180.176" y="270.996" type="line"/>
      <point x="171.875" y="227.051" type="line"/>
      <point x="241.211" y="282.227" type="line"/>
      <point x="279.885" y="308.947"/>
      <point x="319.144" y="336.031"/>
      <point x="362.793" y="354.004" type="curve"/>
      <point x="414.063" y="374.024" type="line"/>
      <point x="419.922" y="375" type="line"/>
      <point x="435.059" y="375"/>
      <point x="458.008" y="356.934"/>
      <point x="490.235" y="320.801" type="curve"/>
      <point x="515.137" y="284.18" type="line"/>
      <point x="520.996" y="272.949" type="line"/>
      <point x="528.809" y="251.953" type="line" smooth="yes"/>
      <point x="530.762" y="246.094"/>
      <point x="532.227" y="240.234"/>
      <point x="532.227" y="234.863" type="curve"/>
      <point x="530.762" y="224.121" type="line"/>
      <point x="530.762" y="219.238"/>
      <point x="529.785" y="214.844"/>
      <point x="528.809" y="210.938" type="curve"/>
      <point x="526.856" y="196.777" type="line"/>
      <point x="521.973" y="182.129" type="line"/>
      <point x="473.145" y="0" type="line"/>
      <point x="310.059" y="0" type="line"/>
    </contour>
    <contour>
      <point x="312.012" y="178.223" type="line"/>
      <point x="373.047" y="178.223" type="line" smooth="yes"/>
      <point x="388.184" y="178.223"/>
      <point x="396.973" y="179.199"/>
      <point x="398.926" y="182.129" type="curve"/>
      <point x="395.996" y="187.988"/>
      <point x="392.09" y="196.777"/>
      <point x="384.766" y="208.984" type="curve"/>
      <point x="376.953" y="219.238" type="line"/>
      <point x="375.976" y="221.191"/>
      <point x="373.047" y="224.121"/>
      <point x="368.164" y="229.004" type="curve"/>
      <point x="358.887" y="236.816"/>
      <point x="347.168" y="243.164"/>
      <point x="331.055" y="248.047" type="curve"/>
      <point x="309.082" y="248.047"/>
      <point x="287.109" y="238.77"/>
      <point x="264.16" y="222.168" type="curve"/>
      <point x="254.883" y="215.82" type="line"/>
      <point x="214.844" y="180.176" type="line"/>
    </contour>
    <contour>
      <point x="393.476" y="528.809" type="move" name="dotAbove"/>
    </contour>
    <contour>
      <point x="387.094" y="522.29" type="move" name="markAbove"/>
    </contour>
    <contour>
      <point x="241.754" y="-107.52" type="move" name="markBelow"/>
    </contour>
    <contour>
      <point x="270.198" y="-109.469" type="move" name="dotBelow"/>
    </contour>
  </outline>
</glyph>
<glyph name="arAin.isol" format="1">
  <advance width="362"/>
  <unicode hex="0639"/>
  <outline>
    <contour>
      <point x="213.867" y="-223.145" type="line"/>
      <point x="181.152" y="-224.121" type="line"/>
      <point x="154.785" y="-224.121" type="line"/>
      <point x="121.094" y="-220.215" type="line"/>
      <point x="104.004" y="-217.773"/>
      <point x="91.7969" y="-212.891"/>
      <point x="83.0078" y="-206.055" type="curve"/>
      <point x="55.1758" y="-190.918"/>
      <point x="35.1562" y="-166.992"/>
      <point x="23.9258" y="-131.836" type="curve"/>
      <point x="18.0664" y="-91.7969" type="line"/>
      <point x="16.1133" y="-66.8946" type="line"/>
      <point x="15.1367" y="-38.086" type="line"/>
      <point x="15.1367" y="-21.9727" type="line" smooth="yes"/>
      <point x="15.1367" y="-13.1836"/>
      <point x="15.1367" y="-7.81254"/>
      <point x="16.1133" y="-6.83594" type="curve"/>
      <point x="16.1133" y="3.90624" type="line" smooth="yes"/>
      <point x="16.1133" y="7.81249"/>
      <point x="16.1133" y="11.2305"/>
      <point x="17.0899" y="12.2071" type="curve"/>
      <point x="20.0196" y="20.0196" type="line"/>
      <point x="21.9727" y="34.1797" type="line"/>
      <point x="21.9727" y="37.1094"/>
      <point x="21.9727" y="39.0625"/>
      <point x="22.9493" y="40.0391" type="curve"/>
      <point x="38.086" y="81.0547" type="line"/>
      <point x="50.7813" y="118.164"/>
      <point x="64.9415" y="146.973"/>
      <point x="80.0782" y="167.969" type="curve"/>
      <point x="45.8985" y="192.871" type="line"/>
      <point x="24.9024" y="221.191" type="line"/>
      <point x="19.0431" y="238.77" type="line"/>
      <point x="17.09" y="257.813" type="line"/>
      <point x="18.0666" y="273.926" type="line"/>
      <point x="20.0197" y="290.039" type="line"/>
      <point x="20.9963" y="314.941"/>
      <point x="24.9025" y="332.031"/>
      <point x="36.133" y="358.887" type="curve"/>
      <point x="40.0392" y="371.094" type="line"/>
      <point x="58.1056" y="410.156" type="line"/>
      <point x="67.8713" y="428.223" type="line"/>
      <point x="94.2384" y="471.191"/>
      <point x="116.211" y="493.164"/>
      <point x="134.766" y="493.164" type="curve"/>
      <point x="139.16" y="492.188" type="line"/>
      <point x="160.156" y="488.77"/>
      <point x="180.176" y="476.074"/>
      <point x="201.172" y="452.148" type="curve"/>
      <point x="217.774" y="428.223" type="line"/>
      <point x="240.235" y="393.066" type="line"/>
      <point x="240.235" y="383.789" type="line"/>
      <point x="198.242" y="383.789" type="line" smooth="yes"/>
      <point x="142.09" y="383.789"/>
      <point x="110.84" y="380.859"/>
      <point x="89.8439" y="354.004" type="curve" smooth="yes"/>
      <point x="85.9377" y="349.121"/>
      <point x="83.9846" y="342.773"/>
      <point x="83.9846" y="335.938" type="curve"/>
      <point x="95.215" y="307.129" type="line"/>
      <point x="102.051" y="297.852"/>
      <point x="110.84" y="293.945"/>
      <point x="124.024" y="293.945" type="curve" smooth="yes"/>
      <point x="154.785" y="293.945"/>
      <point x="180.176" y="298.828"/>
      <point x="200.195" y="309.082" type="curve" smooth="yes"/>
      <point x="253.906" y="336.914" type="line"/>
      <point x="269.043" y="342.773"/>
      <point x="282.227" y="346.191"/>
      <point x="292.969" y="346.191" type="curve"/>
      <point x="302.246" y="345.215" type="line"/>
      <point x="292.969" y="289.062" type="line"/>
      <point x="287.11" y="259.766"/>
      <point x="282.227" y="238.77"/>
      <point x="277.832" y="226.074" type="curve"/>
      <point x="179.199" y="185.059"/>
      <point x="99.1213" y="100.098"/>
      <point x="83.9846" y="42.9687" type="curve"/>
      <point x="83.008" y="34.1797" type="line"/>
      <point x="83.008" y="25.8789" type="line" smooth="yes"/>
      <point x="83.008" y="-34.1797"/>
      <point x="134.766" y="-78.125"/>
      <point x="231.934" y="-99.1211" type="curve"/>
      <point x="267.09" y="-102.051" type="line"/>
      <point x="312.988" y="-104.004" type="line"/>
      <point x="348.145" y="-104.004" type="line" smooth="yes"/>
      <point x="358.887" y="-104.004"/>
      <point x="366.211" y="-104.981"/>
      <point x="369.141" y="-105.957" type="curve"/>
      <point x="372.07" y="-126.953"/>
      <point x="329.102" y="-191.895"/>
      <point x="291.992" y="-205.078" type="curve"/>
      <point x="283.203" y="-208.984"/>
      <point x="263.184" y="-214.844"/>
      <point x="243.164" y="-219.238" type="curve"/>
    </contour>
    <contour>
      <point x="134.766" y="645.037" type="move" name="dotAbove"/>
    </contour>
    <contour>
      <point x="127.727" y="635.006" type="move" name="markAbove"/>
    </contour>
    <contour>
      <point x="154.785" y="-258.789" type="move" name="markBelow"/>
    </contour>
    <contour>
      <point x="240" y="92.5903" type="move" name="dotBelow"/>
    </contour>
  </outline>
</glyph>
<glyph name="arKashida" format="1">
  <advance width="204"/>
  <unicode hex="0640"/>
  <outline>
    <contour>
      <point x="-4" y="179" type="line"/>
      <point x="-4" y="0" type="line"/>
      <point x="208" y="0" type="line"/>
      <point x="208" y="179" type="line"/>
    </contour>
    <contour>
      <point x="95.8335" y="257.736" type="move" name="markAbove"/>
    </contour>
    <contour>
      <point x="95.8335" y="-60.5977" type="move" name="markBelow"/>
    </contour>
  </outline>
</glyph>
<glyph name="arKaf.isol" format="1">
  <advance width="557.002"/>
  <unicode hex="0643"/>
  <outline>
    <contour>
      <point x="529.785" y="344.238" type="line"/>
      <point x="540.039" y="182.129" type="line"/>
      <point x="537.109" y="131.836" type="line"/>
      <point x="537.109" y="125" type="line" smooth="yes"/>
      <point x="537.109" y="121.094"/>
      <point x="537.109" y="118.164"/>
      <point x="536.133" y="116.211" type="curve"/>
      <point x="529.785" y="78.125" type="line"/>
      <point x="522.949" y="25.8789"/>
      <point x="515.137" y="-0"/>
      <point x="506.836" y="0" type="curve" smooth="yes"/>
      <point x="109.863" y="0" type="line" smooth="yes"/>
      <point x="65.9179" y="0"/>
      <point x="11.2304" y="73.2422"/>
      <point x="11.2304" y="145.02" type="curve" smooth="yes"/>
      <point x="11.2304" y="168.945"/>
      <point x="12.207" y="190.918"/>
      <point x="15.1367" y="209.961" type="curve"/>
      <point x="19.043" y="242.188" type="line"/>
      <point x="26.8555" y="274.902" type="line"/>
      <point x="30.7617" y="293.945"/>
      <point x="36.1328" y="311.035"/>
      <point x="41.0156" y="325.195" type="curve"/>
      <point x="45.8984" y="340.82" type="line" smooth="yes"/>
      <point x="48.8281" y="350.098"/>
      <point x="52.2461" y="357.91"/>
      <point x="57.1289" y="365.234" type="curve"/>
      <point x="62.0117" y="357.91" type="line"/>
      <point x="57.1289" y="315.918" type="line"/>
      <point x="55.1758" y="294.922" type="line"/>
      <point x="54.1992" y="275.879" type="line"/>
      <point x="54.1992" y="267.09"/>
      <point x="55.1758" y="252.93"/>
      <point x="58.1055" y="233.887" type="curve"/>
      <point x="66.8946" y="205.078" type="line"/>
      <point x="74.2188" y="195.801" type="line"/>
      <point x="81.0547" y="185.059"/>
      <point x="88.8672" y="180.176"/>
      <point x="97.168" y="180.176" type="curve" smooth="yes"/>
      <point x="469.238" y="180.176" type="line"/>
      <point x="460.938" y="245.117" type="line"/>
      <point x="446.777" y="375" type="line"/>
      <point x="438.965" y="465.82" type="line"/>
      <point x="500.977" y="589.844" type="line"/>
      <point x="509.766" y="586.914" type="line"/>
      <point x="519.043" y="523.926" type="line"/>
      <point x="523.926" y="483.887"/>
      <point x="526.856" y="450.195"/>
      <point x="526.856" y="422.852" type="curve"/>
    </contour>
    <contour>
      <point x="366.211" y="553.223" type="line"/>
      <point x="376.953" y="554.199" type="line"/>
      <point x="382.812" y="553.223" type="line"/>
      <point x="380.859" y="538.086" type="line"/>
      <point x="378.906" y="526.855" type="line"/>
      <point x="366.211" y="494.141" type="line"/>
      <point x="354.981" y="472.168" type="line"/>
      <point x="313.965" y="457.031" type="line"/>
      <point x="285.156" y="446.777"/>
      <point x="270.996" y="438.965"/>
      <point x="270.996" y="432.129" type="curve"/>
      <point x="271.973" y="429.199" type="line"/>
      <point x="277.832" y="424.805" type="line"/>
      <point x="292.969" y="419.922" type="line"/>
      <point x="304.199" y="418.945" type="line"/>
      <point x="312.988" y="418.945" type="line"/>
      <point x="321.777" y="419.922" type="line"/>
      <point x="329.102" y="418.945" type="line"/>
      <point x="332.031" y="418.945"/>
      <point x="333.984" y="417.969"/>
      <point x="336.914" y="416.992" type="curve"/>
      <point x="346.191" y="416.992"/>
      <point x="355.957" y="399.902"/>
      <point x="355.957" y="383.789" type="curve" smooth="yes"/>
      <point x="355.957" y="375"/>
      <point x="354.981" y="365.234"/>
      <point x="352.051" y="354.004" type="curve" smooth="yes"/>
      <point x="336.914" y="302.246"/>
      <point x="312.988" y="274.902"/>
      <point x="261.231" y="259.766" type="curve"/>
      <point x="251.953" y="257.813"/>
      <point x="243.164" y="256.836"/>
      <point x="233.887" y="256.836" type="curve" smooth="yes"/>
      <point x="219.238" y="256.836"/>
      <point x="205.078" y="258.789"/>
      <point x="190.918" y="263.184" type="curve"/>
      <point x="174.805" y="269.043" type="line"/>
      <point x="167.969" y="272.949" type="line"/>
      <point x="165.039" y="276.855" type="line"/>
      <point x="166.992" y="282.227" type="line"/>
      <point x="195.801" y="291.992" type="line"/>
      <point x="222.168" y="302.246" type="line" smooth="yes"/>
      <point x="241.211" y="309.082"/>
      <point x="252.93" y="313.965"/>
      <point x="258.789" y="318.848" type="curve" smooth="yes"/>
      <point x="264.16" y="323.242" type="line"/>
      <point x="267.09" y="330.078" type="line"/>
      <point x="254.883" y="329.101" type="line"/>
      <point x="245.117" y="329.101"/>
      <point x="235.84" y="331.055"/>
      <point x="228.027" y="334.961" type="curve" smooth="yes"/>
      <point x="214.844" y="340.82" type="line"/>
      <point x="202.148" y="352.051" type="line" smooth="yes"/>
      <point x="194.824" y="357.91"/>
      <point x="190.918" y="366.211"/>
      <point x="190.918" y="375" type="curve"/>
      <point x="191.895" y="380.859" type="line" smooth="yes"/>
      <point x="202.011" y="430.848"/>
      <point x="285.94" y="511.626"/>
      <point x="333.008" y="541.992" type="curve"/>
      <point x="335.938" y="544.922"/>
      <point x="341.797" y="547.852"/>
      <point x="351.074" y="548.828" type="curve"/>
    </contour>
    <contour>
      <point x="247.78" y="581.087" type="move" name="markAbove"/>
    </contour>
    <contour>
      <point x="202.148" y="-114.848" type="move" name="markBelow"/>
    </contour>
    <contour>
      <point x="272.266" y="-96.7754" type="move" name="dotBelow"/>
    </contour>
    <contour>
      <point x="500.977" y="663.936" type="move" name="dotAbove"/>
    </contour>
  </outline>
</glyph>
<glyph name="arLam.isol" format="1">
  <advance width="423"/>
  <unicode hex="0644"/>
  <outline>
    <contour>
      <point x="346.191" y="-36.1328" type="line"/>
      <point x="311.035" y="-130.859"/>
      <point x="247.07" y="-202.148"/>
      <point x="138.184" y="-202.148" type="curve" smooth="yes"/>
      <point x="96.1914" y="-202.148"/>
      <point x="63.9648" y="-187.012"/>
      <point x="41.0156" y="-157.227" type="curve"/>
      <point x="20.9961" y="-127.93"/>
      <point x="11.2305" y="-85.9375"/>
      <point x="11.2305" y="-30.7617" type="curve"/>
      <point x="12.2071" y="-3.90625" type="line"/>
      <point x="17.0899" y="29.7852" type="line"/>
      <point x="26.8555" y="74.2188" type="line"/>
      <point x="33.2032" y="97.168" type="line"/>
      <point x="41.9922" y="122.07" type="line"/>
      <point x="50.7813" y="148.926"/>
      <point x="68.8477" y="181.152"/>
      <point x="95.2149" y="217.773" type="curve"/>
      <point x="107.91" y="210.938" type="line"/>
      <point x="104.98" y="206.055"/>
      <point x="102.051" y="198.242"/>
      <point x="98.1445" y="187.012" type="curve"/>
      <point x="83.0078" y="148.926" type="line"/>
      <point x="76.1719" y="128.906"/>
      <point x="73.2422" y="112.793"/>
      <point x="73.2422" y="100.098" type="curve" smooth="yes"/>
      <point x="73.2422" y="82.0312"/>
      <point x="76.1719" y="59.082"/>
      <point x="83.0078" y="29.7852" type="curve"/>
      <point x="89.8438" y="11.2305"/>
      <point x="107.91" y="-5.85938"/>
      <point x="134.766" y="-20.9961" type="curve"/>
      <point x="150.879" y="-22.9492" type="line"/>
      <point x="169.922" y="-23.9258" type="line"/>
      <point x="229.98" y="-23.9258"/>
      <point x="291.992" y="5.85936"/>
      <point x="298.828" y="30.7617" type="curve"/>
      <point x="298.828" y="42.9687" type="line" smooth="yes"/>
      <point x="298.828" y="85.9375"/>
      <point x="296.875" y="126.953"/>
      <point x="291.992" y="165.039" type="curve"/>
      <point x="290.039" y="201.172" type="line"/>
      <point x="290.039" y="216.797" type="line"/>
      <point x="275.879" y="323.242" type="line"/>
      <point x="274.902" y="350.098" type="line"/>
      <point x="270.996" y="374.023" type="line"/>
      <point x="268.066" y="398.926" type="line"/>
      <point x="230.957" y="432.129" type="line"/>
      <point x="231.934" y="460.937" type="line"/>
      <point x="231.934" y="472.168"/>
      <point x="232.91" y="479.98"/>
      <point x="234.863" y="483.887" type="curve"/>
      <point x="236.816" y="496.094" type="line"/>
      <point x="250.977" y="538.086" type="line"/>
      <point x="259.766" y="559.082"/>
      <point x="269.043" y="576.172"/>
      <point x="279.785" y="586.914" type="curve"/>
      <point x="289.063" y="583.008" type="line"/>
      <point x="288.086" y="574.219" type="line"/>
      <point x="290.039" y="559.082" type="line"/>
      <point x="291.016" y="555.176"/>
      <point x="291.992" y="550.781"/>
      <point x="293.945" y="547.852" type="curve" smooth="yes"/>
      <point x="298.828" y="541.016"/>
      <point x="318.848" y="529.785"/>
      <point x="355.957" y="515.137" type="curve" smooth="yes"/>
      <point x="393.066" y="500"/>
      <point x="413.086" y="490.234"/>
      <point x="416.992" y="484.863" type="curve"/>
      <point x="395.996" y="419.922" type="line"/>
      <point x="374.023" y="358.887" type="line"/>
      <point x="353.027" y="354.004" type="line"/>
      <point x="367.188" y="182.129" type="line"/>
      <point x="368.164" y="129.883" type="line"/>
      <point x="368.164" y="118.164" type="line"/>
      <point x="369.141" y="104.004" type="line"/>
      <point x="372.07" y="79.1016" type="line"/>
      <point x="372.07" y="75.1953" type="line" smooth="yes"/>
      <point x="372.07" y="65.918"/>
      <point x="372.07" y="59.082"/>
      <point x="371.094" y="54.1992" type="curve" smooth="yes"/>
      <point x="365.234" y="24.9023" type="line"/>
    </contour>
    <contour>
      <point x="275.879" y="638.768" type="move" name="smallVAbove"/>
    </contour>
    <contour>
      <point x="83.0078" y="574.219" type="move" name="markAbove"/>
    </contour>
    <contour>
      <point x="107.91" y="-251.189" type="move" name="markBelow"/>
    </contour>
    <contour>
      <point x="283.651" y="665.718" type="move" name="dotAbove"/>
    </contour>
    <contour>
      <point x="173.197" y="-303.432" type="move" name="dotBelow"/>
    </contour>
  </outline>
</glyph>
<glyph name="arMeem.isol" format="1">
  <advance width="333"/>
  <unicode hex="0645"/>
  <outline>
    <contour>
      <point x="81.0547" y="-185.059" type="line"/>
      <point x="68.8477" y="-203.125" type="line"/>
      <point x="62.0117" y="-190.918" type="line"/>
      <point x="57.1289" y="-178.223" type="line"/>
      <point x="52.2461" y="-124.023" type="line"/>
      <point x="41.9922" y="-52.2461" type="line"/>
      <point x="29.7852" y="14.1602" type="line"/>
      <point x="24.9023" y="58.1055" type="line"/>
      <point x="24.9023" y="69.8242" type="line" smooth="yes"/>
      <point x="24.9023" y="73.2422"/>
      <point x="25.8789" y="75.1953"/>
      <point x="26.8555" y="78.125" type="curve" smooth="yes"/>
      <point x="45.8985" y="146.973"/>
      <point x="77.1485" y="186.035"/>
      <point x="173.828" y="226.074" type="curve"/>
      <point x="164.063" y="238.77" type="line"/>
      <point x="153.809" y="248.047" type="line"/>
      <point x="146.973" y="252.93"/>
      <point x="140.137" y="254.883"/>
      <point x="134.766" y="254.883" type="curve"/>
      <point x="121.094" y="251.953" type="line"/>
      <point x="113.77" y="250.976"/>
      <point x="103.027" y="243.164"/>
      <point x="88.8673" y="228.027" type="curve" smooth="yes"/>
      <point x="57.129" y="194.824" type="line"/>
      <point x="54.1993" y="199.219" type="line"/>
      <point x="52.2462" y="205.078" type="line"/>
      <point x="61.0352" y="246.094"/>
      <point x="70.8009" y="272.949"/>
      <point x="80.0782" y="287.109" type="curve"/>
      <point x="84.961" y="302.246"/>
      <point x="90.8204" y="312.988"/>
      <point x="99.1212" y="326.172" type="curve"/>
      <point x="110.84" y="349.121"/>
      <point x="138.184" y="392.09"/>
      <point x="173.828" y="392.09" type="curve" smooth="yes"/>
      <point x="194.577" y="392.09"/>
      <point x="220.235" y="361.567"/>
      <point x="231.934" y="347.168" type="curve" smooth="yes"/>
      <point x="236.816" y="340.82"/>
      <point x="243.164" y="334.961"/>
      <point x="248.047" y="328.125" type="curve" smooth="yes"/>
      <point x="252.93" y="320.801"/>
      <point x="257.813" y="313.965"/>
      <point x="263.184" y="308.105" type="curve"/>
      <point x="273.926" y="293.945"/>
      <point x="284.18" y="277.832"/>
      <point x="294.922" y="258.789" type="curve"/>
      <point x="314.941" y="228.027"/>
      <point x="325.195" y="208.984"/>
      <point x="326.172" y="202.148" type="curve" smooth="yes"/>
      <point x="327.149" y="194.824" type="line"/>
      <point x="327.149" y="177.246"/>
      <point x="321.778" y="148.926"/>
      <point x="312.012" y="110.84" type="curve"/>
      <point x="304.199" y="71.7773"/>
      <point x="295.899" y="45.8983"/>
      <point x="289.063" y="35.1562" type="curve"/>
      <point x="262.804" y="54.0624"/>
      <point x="215.512" y="68.8476"/>
      <point x="183.106" y="68.8476" type="curve" smooth="yes"/>
      <point x="154.785" y="68.8476"/>
      <point x="131.836" y="63.9648"/>
      <point x="97.1681" y="44.9218" type="curve"/>
      <point x="108.887" y="-32.2267" type="line"/>
      <point x="110.84" y="-71.7774" type="line"/>
      <point x="110.84" y="-88.8673"/>
      <point x="107.91" y="-110.84"/>
      <point x="101.074" y="-140.137" type="curve"/>
      <point x="98.1446" y="-148.926" type="line"/>
      <point x="88.8673" y="-166.992" type="line"/>
      <point x="86.9142" y="-172.852" type="line"/>
    </contour>
    <contour>
      <point x="163.994" y="494.722" type="move" name="markAbove"/>
    </contour>
    <contour>
      <point x="78.1812" y="-231.428" type="move" name="markBelow"/>
    </contour>
    <contour>
      <point x="164.062" y="463.818" type="move" name="dotAbove"/>
    </contour>
    <contour>
      <point x="210.353" y="-32.3439" type="move" name="dotBelow"/>
    </contour>
  </outline>
</glyph>
<glyph name="arHeh.isol" format="1">
  <advance width="316.604"/>
  <unicode hex="0647"/>
  <outline>
    <contour>
      <point x="222.569" y="388.184" type="line"/>
      <point x="270.42" y="348.145"/>
      <point x="305.577" y="302.246"/>
      <point x="305.577" y="234.863" type="curve" smooth="yes"/>
      <point x="305.577" y="195.801"/>
      <point x="301.67" y="168.945"/>
      <point x="293.37" y="148.926" type="curve"/>
      <point x="280.674" y="104.98"/>
      <point x="256.749" y="53.2227"/>
      <point x="212.803" y="24.9023" type="curve" smooth="yes"/>
      <point x="185.459" y="7.8125"/>
      <point x="160.557" y="0"/>
      <point x="135.655" y="0" type="curve" smooth="yes"/>
      <point x="116.612" y="0" type="line"/>
      <point x="101.475" y="1.9531" type="line"/>
      <point x="93.6626" y="3.9062" type="line"/>
      <point x="82.4321" y="9.76557" type="line"/>
      <point x="79.5024" y="11.2304"/>
      <point x="75.5962" y="14.1601"/>
      <point x="70.7134" y="20.0194" type="curve" smooth="yes"/>
      <point x="62.4126" y="29.7851" type="line"/>
      <point x="52.647" y="44.9218" type="line"/>
      <point x="49.7173" y="57.1288" type="line"/>
      <point x="48.7407" y="75.1952" type="line"/>
      <point x="48.7407" y="98.1444"/>
      <point x="58.5063" y="139.16"/>
      <point x="77.5493" y="200.195" type="curve"/>
      <point x="88.7797" y="229.004" type="line"/>
      <point x="106.846" y="267.09" type="line"/>
      <point x="128.819" y="304.199" type="line"/>
      <point x="128.819" y="338.867"/>
      <point x="173.741" y="403.809"/>
      <point x="196.69" y="420.898" type="curve"/>
    </contour>
    <contour>
      <point x="165.44" y="168.945" type="line" smooth="yes"/>
      <point x="182.53" y="168.945"/>
      <point x="218.663" y="175.781"/>
      <point x="226.475" y="183.105" type="curve"/>
      <point x="217.686" y="214.844"/>
      <point x="196.69" y="234.863"/>
      <point x="152.745" y="262.207" type="curve"/>
      <point x="142.491" y="250" type="line"/>
      <point x="132.725" y="235.84" type="line" smooth="yes"/>
      <point x="123.448" y="223.145"/>
      <point x="119.542" y="211.914"/>
      <point x="119.542" y="204.102" type="curve" smooth="yes"/>
      <point x="119.542" y="196.777"/>
      <point x="121.495" y="189.941"/>
      <point x="126.377" y="183.105" type="curve"/>
      <point x="134.678" y="175.781" type="line"/>
      <point x="143.467" y="170.898" type="line"/>
      <point x="154.698" y="168.945" type="line"/>
    </contour>
    <contour>
      <point x="117.837" y="478.253" type="move" name="hamzaAbove"/>
    </contour>
    <contour>
      <point x="165.163" y="563.438" type="move" name="dotAbove"/>
    </contour>
    <contour>
      <point x="163.27" y="591.834" type="move" name="markAbove"/>
    </contour>
    <contour>
      <point x="123.516" y="-99.1174" type="move" name="markBelow"/>
    </contour>
    <contour>
      <point x="163.27" y="-74.5082" type="move" name="dotBelow"/>
    </contour>
  </outline>
</glyph>
<glyph name="arWaw.isol" format="1">
  <advance width="316"/>
  <unicode hex="0648"/>
  <outline>
    <contour>
      <point x="155" y="-185" type="curve" smooth="yes"/>
      <point x="189" y="-174"/>
      <point x="217" y="-149"/>
      <point x="240" y="-110" type="curve" smooth="yes"/>
      <point x="250" y="-93"/>
      <point x="259" y="-75"/>
      <point x="266" y="-56" type="curve"/>
      <point x="271" y="-45" type="line"/>
      <point x="276" y="-24" type="line"/>
      <point x="277" y="-21"/>
      <point x="279" y="-17"/>
      <point x="280" y="-13" type="curve"/>
      <point x="281" y="-10"/>
      <point x="281" y="-7"/>
      <point x="282" y="-6" type="curve"/>
      <point x="283" y="-3"/>
      <point x="285" y="3"/>
      <point x="286" y="10" type="curve"/>
      <point x="292" y="33" type="line"/>
      <point x="294" y="42" type="line"/>
      <point x="295" y="44"/>
      <point x="295" y="48"/>
      <point x="295" y="55" type="curve"/>
      <point x="299" y="74" type="line"/>
      <point x="301" y="85" type="line"/>
      <point x="301" y="96" type="line"/>
      <point x="303" y="101"/>
      <point x="304" y="106"/>
      <point x="304" y="112" type="curve"/>
      <point x="305" y="129" type="line"/>
      <point x="306" y="140" type="line"/>
      <point x="306" y="176" type="line" smooth="yes"/>
      <point x="306" y="200"/>
      <point x="305" y="223"/>
      <point x="302" y="244" type="curve"/>
      <point x="296" y="275" type="line"/>
      <point x="291" y="297" type="line"/>
      <point x="280" y="332"/>
      <point x="267" y="357"/>
      <point x="254" y="372" type="curve"/>
      <point x="241" y="389"/>
      <point x="227" y="395"/>
      <point x="218" y="395" type="curve"/>
      <point x="209" y="393"/>
      <point x="204" y="390"/>
      <point x="201" y="387" type="curve"/>
      <point x="194" y="382" type="line"/>
      <point x="188" y="377" type="line"/>
      <point x="175" y="363" type="line"/>
      <point x="164" y="349" type="line"/>
      <point x="154" y="336" type="line"/>
      <point x="150" y="331" type="line"/>
      <point x="147" y="325" type="line"/>
      <point x="112" y="264" type="line"/>
      <point x="105" y="250" type="line"/>
      <point x="101" y="238" type="line"/>
      <point x="94" y="215" type="line"/>
      <point x="89" y="198" type="line"/>
      <point x="86" y="186" type="line"/>
      <point x="86" y="175" type="line"/>
      <point x="84" y="152" type="line"/>
      <point x="84" y="134" type="line" smooth="yes"/>
      <point x="84" y="85"/>
      <point x="98" y="57"/>
      <point x="123" y="44" type="curve"/>
      <point x="134" y="39" type="line"/>
      <point x="143" y="36" type="line"/>
      <point x="166" y="35" type="line"/>
      <point x="179" y="35" type="line"/>
      <point x="218" y="39"/>
      <point x="231" y="53"/>
      <point x="243" y="88" type="curve"/>
      <point x="249" y="102" type="line"/>
      <point x="254" y="113" type="line"/>
      <point x="254" y="32"/>
      <point x="149" y="-74"/>
      <point x="73" y="-103" type="curve"/>
      <point x="59" y="-110"/>
      <point x="49" y="-114"/>
      <point x="42" y="-115" type="curve"/>
      <point x="39" y="-116"/>
      <point x="37" y="-117"/>
      <point x="35" y="-117" type="curve"/>
      <point x="28" y="-119" type="line"/>
      <point x="12" y="-122" type="line"/>
      <point x="9" y="-123"/>
      <point x="2" y="-124"/>
      <point x="-3" y="-124" type="curve"/>
      <point x="-19" y="-125" type="line"/>
      <point x="-59" y="-126" type="line"/>
      <point x="-63" y="-129" type="line"/>
      <point x="-66" y="-133" type="line"/>
      <point x="-55" y="-144"/>
      <point x="-45" y="-149"/>
      <point x="-30" y="-154" type="curve"/>
      <point x="-15" y="-161"/>
      <point x="4" y="-166"/>
      <point x="29" y="-171" type="curve" smooth="yes"/>
      <point x="76" y="-181"/>
      <point x="113" y="-186"/>
      <point x="140" y="-186" type="curve" smooth="yes"/>
      <point x="146" y="-186"/>
      <point x="151" y="-186"/>
    </contour>
    <contour>
      <point x="148" y="220" type="curve"/>
      <point x="158" y="236" type="line"/>
      <point x="166" y="245" type="line"/>
      <point x="176" y="253"/>
      <point x="185" y="257"/>
      <point x="193" y="257" type="curve" smooth="yes"/>
      <point x="202" y="257"/>
      <point x="209" y="250"/>
      <point x="214" y="237" type="curve"/>
      <point x="222" y="205" type="line"/>
      <point x="214" y="197"/>
      <point x="205" y="193"/>
      <point x="194" y="193" type="curve" smooth="yes"/>
      <point x="177" y="193"/>
      <point x="160" y="204"/>
    </contour>
    <contour>
      <point x="196.417" y="517.231" type="move" name="dotAbove"/>
    </contour>
    <contour>
      <point x="159.483" y="429.36" type="move" name="hamzaAbove"/>
    </contour>
    <contour>
      <point x="194" y="517.231" type="move" name="markAbove"/>
    </contour>
    <contour>
      <point x="119.143" y="-228.383" type="move" name="markBelow"/>
    </contour>
    <contour>
      <point x="190.832" y="436.884" type="move" name="smallVAbove"/>
    </contour>
    <contour>
      <point x="123" y="-270.463" type="move" name="dotBelow"/>
    </contour>
  </outline>
</glyph>
<glyph name="arYeh.isol" format="1">
  <advance width="451"/>
  <unicode hex="0649"/>
  <outline>
    <contour>
      <point x="285.156" y="-100.098" type="curve"/>
      <point x="240.234" y="-125"/>
      <point x="195.801" y="-137.207"/>
      <point x="154.785" y="-137.207" type="curve" smooth="yes"/>
      <point x="132.812" y="-137.207"/>
      <point x="113.77" y="-133.789"/>
      <point x="98.1445" y="-126.953" type="curve"/>
      <point x="26.8555" y="-100.098"/>
      <point x="15.1367" y="-43.9453"/>
      <point x="15.1367" y="59.082" type="curve" smooth="yes"/>
      <point x="15.1367" y="91.7969"/>
      <point x="19.043" y="130.859"/>
      <point x="27.832" y="174.805" type="curve"/>
      <point x="28.8086" y="183.105"/>
      <point x="30.7617" y="190.918"/>
      <point x="35.1563" y="208.008" type="curve" smooth="yes"/>
      <point x="36.1329" y="212.891"/>
      <point x="38.086" y="216.797"/>
      <point x="39.0626" y="220.215" type="curve" smooth="yes"/>
      <point x="40.0392" y="223.145"/>
      <point x="41.0158" y="229.004"/>
      <point x="42.9689" y="236.816" type="curve"/>
      <point x="48.8282" y="253.906"/>
      <point x="56.1525" y="270.996"/>
      <point x="62.9884" y="286.133" type="curve"/>
      <point x="71.7775" y="270.996"/>
      <point x="76.172" y="254.883"/>
      <point x="76.172" y="238.77" type="curve" smooth="yes"/>
      <point x="76.172" y="233.887"/>
      <point x="69.8243" y="209.961"/>
      <point x="58.1056" y="166.992" type="curve" smooth="yes"/>
      <point x="52.2462" y="145.996"/>
      <point x="48.8282" y="128.906"/>
      <point x="48.8282" y="116.211" type="curve" smooth="yes"/>
      <point x="48.8282" y="104.98" type="line"/>
      <point x="54.1993" y="56.1524"/>
      <point x="100.098" y="20.0195"/>
      <point x="160.156" y="20.0195" type="curve" smooth="yes"/>
      <point x="185.059" y="20.0195"/>
      <point x="204.102" y="20.9961"/>
      <point x="216.797" y="22.9492" type="curve"/>
      <point x="232.91" y="23.9258" type="line"/>
      <point x="258.789" y="29.7852" type="line"/>
      <point x="273.926" y="34.1797" type="line"/>
      <point x="305.176" y="41.9922"/>
      <point x="332.031" y="53.2227"/>
      <point x="356.934" y="65.918" type="curve"/>
      <point x="358.887" y="69.8243" type="line"/>
      <point x="358.887" y="73.2422"/>
      <point x="356.934" y="77.1485"/>
      <point x="352.051" y="82.0313" type="curve"/>
      <point x="235.84" y="91.7969" type="line"/>
      <point x="211.914" y="100.098"/>
      <point x="208.008" y="102.051"/>
      <point x="191.895" y="126.953" type="curve"/>
      <point x="189.942" y="142.09" type="line"/>
      <point x="189.942" y="163.086"/>
      <point x="192.871" y="185.059"/>
      <point x="198.242" y="206.055" type="curve"/>
      <point x="208.985" y="254.883" type="line"/>
      <point x="213.867" y="270.02"/>
      <point x="219.238" y="284.18"/>
      <point x="225.098" y="296.875" type="curve"/>
      <point x="252.93" y="368.164"/>
      <point x="291.016" y="419.922"/>
      <point x="332.031" y="452.148" type="curve" smooth="yes"/>
      <point x="354.981" y="470.215"/>
      <point x="375.977" y="479.004"/>
      <point x="395.02" y="479.004" type="curve" smooth="yes"/>
      <point x="425.271" y="479.004"/>
      <point x="444.824" y="453.023"/>
      <point x="444.824" y="423.828" type="curve" smooth="yes"/>
      <point x="444.824" y="418.945"/>
      <point x="441.895" y="397.949"/>
      <point x="435.059" y="361.816" type="curve"/>
      <point x="424.805" y="315.918" type="line"/>
      <point x="422.852" y="312.988" type="line"/>
      <point x="416.992" y="311.035" type="line"/>
      <point x="408.203" y="347.168"/>
      <point x="397.949" y="361.816"/>
      <point x="375" y="361.816" type="curve" smooth="yes"/>
      <point x="323.242" y="361.816"/>
      <point x="257.812" y="289.063"/>
      <point x="257.812" y="249.023" type="curve" smooth="yes"/>
      <point x="257.812" y="245.117"/>
      <point x="258.789" y="241.211"/>
      <point x="261.231" y="235.84" type="curve"/>
      <point x="265.137" y="230.957"/>
      <point x="270.996" y="226.074"/>
      <point x="279.785" y="222.168" type="curve"/>
      <point x="324.219" y="212.891" type="line"/>
      <point x="352.051" y="212.891"/>
      <point x="389.16" y="208.984"/>
      <point x="396.973" y="204.102" type="curve"/>
      <point x="423.828" y="196.777"/>
      <point x="437.012" y="183.106"/>
      <point x="437.012" y="163.086" type="curve" smooth="yes"/>
      <point x="437.012" y="143.066" type="line"/>
      <point x="436.035" y="139.16" type="line"/>
      <point x="435.059" y="127.93" type="line"/>
      <point x="428.223" y="92.7735" type="line"/>
      <point x="418.945" y="63.9649" type="line"/>
      <point x="395.996" y="-17.0898"/>
      <point x="375" y="-52.246"/>
    </contour>
    <contour>
      <point x="129.574" y="486" type="move" name="markAbove"/>
    </contour>
    <contour>
      <point x="143.367" y="436.884" type="move" name="smallVAbove"/>
    </contour>
    <contour>
      <point x="88.1939" y="351.616" type="move" name="hamzaAbove"/>
    </contour>
    <contour>
      <point x="199.606" y="-200.104" type="move" name="dotBelow"/>
    </contour>
    <contour>
      <point x="149.785" y="-200.104" type="move" name="markBelow"/>
    </contour>
    <contour>
      <point x="162.256" y="455.496" type="move" name="dotAbove"/>
    </contour>
  </outline>
</glyph>
<glyph name="diFathatan" format="1">
  <advance width="0"/>
  <unicode hex="064B"/>
  <outline>
    <contour>
      <point x="-87.4023" y="555.664" type="line"/>
      <point x="-87.4023" y="579.59"/>
      <point x="-83.4961" y="588.379"/>
      <point x="-55.6641" y="604.492" type="curve" smooth="yes"/>
      <point x="77.6367" y="681.641" type="line"/>
      <point x="77.6367" y="659.668"/>
      <point x="71.7773" y="645.508"/>
      <point x="60.5469" y="639.648" type="curve"/>
    </contour>
    <contour>
      <point x="-86.9141" y="487.305" type="line"/>
      <point x="-86.9141" y="511.719"/>
      <point x="-83.0078" y="520.508"/>
      <point x="-55.1758" y="536.621" type="curve" smooth="yes"/>
      <point x="77.6367" y="613.281" type="line"/>
      <point x="77.6367" y="591.309"/>
      <point x="71.7773" y="577.637"/>
      <point x="61.0352" y="571.289" type="curve" smooth="yes"/>
    </contour>
    <contour>
      <point x="0.4167" y="506.069" type="move" name="_markAbove"/>
    </contour>
    <contour>
      <point x="0" y="506.069" type="move" name="_markAboveDot"/>
    </contour>
    <contour>
      <point x="0.8333" y="506.069" type="move" name="_markAboveMark"/>
    </contour>
  </outline>
</glyph>
<glyph name="diDammatan" format="1">
  <advance width="0"/>
  <unicode hex="064C"/>
  <outline>
    <contour>
      <point x="92.2852" y="632.324" type="line"/>
      <point x="108.398" y="620.605"/>
      <point x="112.305" y="613.281"/>
      <point x="111.328" y="598.633" type="curve"/>
      <point x="110.351" y="569.336" type="line"/>
      <point x="89.3554" y="581.543" type="line"/>
      <point x="65.4296" y="598.633" type="line"/>
      <point x="48.3398" y="580.566"/>
      <point x="29.2968" y="563.477"/>
      <point x="6.34758" y="547.363" type="curve"/>
      <point x="-4.39461" y="540.527"/>
      <point x="-24.4141" y="534.668"/>
      <point x="-51.7579" y="527.344" type="curve"/>
      <point x="-33.6915" y="568.359" type="line"/>
      <point x="-31.7384" y="579.59" type="line"/>
      <point x="-30.7618" y="590.332" type="line"/>
      <point x="-30.7618" y="597.656"/>
      <point x="-41.504" y="617.676"/>
      <point x="-54.6876" y="617.676" type="curve" smooth="yes"/>
      <point x="-63.4766" y="617.676"/>
      <point x="-75.6837" y="601.562"/>
      <point x="-78.6134" y="580.566" type="curve"/>
      <point x="-82.5196" y="594.727" type="line"/>
      <point x="-83.4962" y="605.469" type="line"/>
      <point x="-83.4962" y="630.371"/>
      <point x="-65.4298" y="659.668"/>
      <point x="-42.4806" y="659.668" type="curve" smooth="yes"/>
      <point x="-21.4845" y="659.668"/>
      <point x="-9.76574" y="642.578"/>
      <point x="-9.76574" y="610.352" type="curve"/>
      <point x="-12.6954" y="565.43" type="line"/>
      <point x="0.488156" y="570.312"/>
      <point x="10.2538" y="575.684"/>
      <point x="16.6014" y="580.566" type="curve"/>
      <point x="25.3905" y="585.449"/>
      <point x="35.6444" y="595.703"/>
      <point x="48.3397" y="609.375" type="curve"/>
      <point x="38.5741" y="614.746"/>
      <point x="29.2968" y="622.559"/>
      <point x="22.4608" y="631.348" type="curve"/>
      <point x="17.578" y="642.578"/>
      <point x="15.6249" y="650.391"/>
      <point x="15.6249" y="655.273" type="curve" smooth="yes"/>
      <point x="15.6249" y="688.477"/>
      <point x="46.3866" y="727.539"/>
      <point x="75.1952" y="727.539" type="curve" smooth="yes"/>
      <point x="90.3319" y="727.539"/>
      <point x="108.398" y="705.566"/>
      <point x="108.398" y="688.477" type="curve" smooth="yes"/>
      <point x="108.398" y="677.734"/>
      <point x="106.445" y="668.457"/>
      <point x="103.516" y="659.668" type="curve"/>
    </contour>
    <contour>
      <point x="72.2656" y="649.414" type="line"/>
      <point x="74.2187" y="668.457" type="line"/>
      <point x="74.2187" y="684.57"/>
      <point x="66.4062" y="694.336"/>
      <point x="54.1992" y="694.336" type="curve" smooth="yes"/>
      <point x="52.2461" y="694.336"/>
      <point x="50.293" y="693.359"/>
      <point x="48.3399" y="692.383" type="curve" smooth="yes"/>
      <point x="46.3868" y="691.406"/>
      <point x="44.4337" y="688.476"/>
      <point x="41.504" y="683.594" type="curve"/>
      <point x="41.504" y="676.269"/>
      <point x="45.4102" y="669.433"/>
      <point x="54.1993" y="662.598" type="curve" smooth="yes"/>
    </contour>
    <contour>
      <point x="0.8333" y="506.069" type="move" name="_markAboveDot"/>
    </contour>
    <contour>
      <point x="0.8333" y="506.069" type="move" name="_markAbove"/>
    </contour>
    <contour>
      <point x="1.6667" y="506.069" type="move" name="_markAboveMark"/>
    </contour>
  </outline>
</glyph>
<glyph name="diKasratan" format="1">
  <advance width="0.8231"/>
  <unicode hex="064D"/>
  <outline>
    <contour>
      <point x="-67.8711" y="-298.828" type="line"/>
      <point x="-67.8711" y="-274.414"/>
      <point x="-63.9648" y="-265.625"/>
      <point x="-36.1328" y="-249.512" type="curve" smooth="yes"/>
      <point x="97.168" y="-172.852" type="line"/>
      <point x="97.168" y="-194.824"/>
      <point x="90.8203" y="-208.496"/>
      <point x="80.0781" y="-214.844" type="curve" smooth="yes"/>
    </contour>
    <contour>
      <point x="-69.8242" y="-371.582" type="line"/>
      <point x="-69.8242" y="-347.656"/>
      <point x="-65.918" y="-338.379"/>
      <point x="-37.5977" y="-322.754" type="curve"/>
      <point x="95.2148" y="-245.605" type="line"/>
      <point x="95.2148" y="-267.578"/>
      <point x="89.3555" y="-281.738"/>
      <point x="78.125" y="-287.598" type="curve"/>
    </contour>
    <contour>
      <point x="0.4167" y="-171.875" type="move" name="_markBelow"/>
    </contour>
    <contour>
      <point x="0" y="-171.875" type="move" name="_markBelowDot"/>
    </contour>
    <contour>
      <point x="1.25" y="-171.875" type="move" name="_markBelowMark"/>
    </contour>
    <contour>
      <point x="3.0371" y="-384.417" type="move" name="_markAboveAlt"/>
    </contour>
  </outline>
</glyph>
<glyph name="diFatha" format="1">
  <advance width="0"/>
  <unicode hex="064E"/>
  <outline>
    <contour>
      <point x="-81.0547" y="523.438" type="line"/>
      <point x="-81.0547" y="547.363"/>
      <point x="-77.1484" y="556.152"/>
      <point x="-49.3164" y="572.266" type="curve" smooth="yes"/>
      <point x="83.9844" y="649.414" type="line"/>
      <point x="83.9844" y="626.953"/>
      <point x="77.6367" y="613.281"/>
      <point x="66.8945" y="607.422" type="curve" smooth="yes"/>
    </contour>
    <contour>
      <point x="0.4167" y="506.069" type="move" name="_markAbove"/>
    </contour>
    <contour>
      <point x="0" y="506.069" type="move" name="_markAboveDot"/>
    </contour>
    <contour>
      <point x="0" y="506.069" type="move" name="_markAboveMark"/>
    </contour>
  </outline>
</glyph>
<glyph name="diDamma" format="1">
  <advance width="0"/>
  <unicode hex="064F"/>
  <outline>
    <contour>
      <point x="59.5703" y="634.766" type="line"/>
      <point x="78.6133" y="619.629" type="line"/>
      <point x="74.707" y="571.777" type="line"/>
      <point x="56.6406" y="582.52" type="line"/>
      <point x="35.6445" y="596.68" type="line"/>
      <point x="13.9043" y="570.107"/>
      <point x="-23.3529" y="526.855"/>
      <point x="-60.5469" y="526.855" type="curve" smooth="yes"/>
      <point x="-67.3828" y="526.855"/>
      <point x="-73.2422" y="527.832"/>
      <point x="-77.1484" y="528.809" type="curve" smooth="yes"/>
      <point x="-89.3555" y="532.715" type="line"/>
      <point x="-75.1953" y="538.574" type="line"/>
      <point x="-38.5742" y="562.5" type="line"/>
      <point x="-33.2031" y="566.406"/>
      <point x="-15.625" y="581.543"/>
      <point x="14.6484" y="608.399" type="curve"/>
      <point x="3.41797" y="616.699"/>
      <point x="-3.41797" y="623.535"/>
      <point x="-8.30078" y="630.859" type="curve"/>
      <point x="-14.1602" y="644.531" type="line"/>
      <point x="-14.1602" y="648.438"/>
      <point x="-14.1602" y="651.856"/>
      <point x="-15.625" y="652.832" type="curve"/>
      <point x="-15.625" y="680.733"/>
      <point x="8.81342" y="734.863"/>
      <point x="41.504" y="734.863" type="curve" smooth="yes"/>
      <point x="63.4766" y="734.863"/>
      <point x="74.7071" y="720.703"/>
      <point x="74.7071" y="691.406" type="curve" smooth="yes"/>
      <point x="74.7071" y="679.688" type="line" smooth="yes"/>
      <point x="74.7071" y="676.758"/>
      <point x="73.7305" y="671.387"/>
      <point x="70.8008" y="664.551" type="curve"/>
      <point x="69.8242" y="658.692" type="line"/>
    </contour>
    <contour>
      <point x="41.5039" y="645.508" type="curve"/>
      <point x="43.457" y="652.832"/>
      <point x="44.4336" y="657.715"/>
      <point x="44.4336" y="662.598" type="curve" smooth="yes"/>
      <point x="44.4336" y="677.734"/>
      <point x="31.7383" y="692.383"/>
      <point x="18.5547" y="692.383" type="curve"/>
      <point x="15.625" y="691.406" type="line"/>
      <point x="12.6953" y="689.453" type="line"/>
      <point x="9.7656" y="682.617" type="line"/>
      <point x="9.7656" y="676.758"/>
      <point x="11.4714" y="671.177"/>
      <point x="15.625" y="666.504" type="curve" smooth="yes"/>
      <point x="19.2958" y="662.373"/>
      <point x="28.8086" y="655.762"/>
    </contour>
    <contour>
      <point x="-0.8333" y="519.253" type="move" name="_markAbove"/>
    </contour>
    <contour>
      <point x="-0.8333" y="506.069" type="move" name="_markAboveDot"/>
    </contour>
    <contour>
      <point x="-0.8333" y="506.069" type="move" name="_markAboveMark"/>
    </contour>
  </outline>
</glyph>
<glyph name="diKasra" format="1">
  <advance width="0"/>
  <unicode hex="0650"/>
  <outline>
    <contour>
      <point x="-64.9414" y="-297.852" type="line"/>
      <point x="-64.9414" y="-273.926"/>
      <point x="-61.0352" y="-264.648"/>
      <point x="-32.7148" y="-249.023" type="curve"/>
      <point x="100.098" y="-171.875" type="line"/>
      <point x="100.098" y="-193.848"/>
      <point x="94.2383" y="-208.008"/>
      <point x="83.0078" y="-213.867" type="curve"/>
    </contour>
    <contour>
      <point x="0.4167" y="-171.875" type="move" name="_markBelow"/>
    </contour>
    <contour>
      <point x="0" y="-171.875" type="move" name="_markBelowDot"/>
    </contour>
    <contour>
      <point x="0.4167" y="-171.875" type="move" name="_markBelowMark"/>
    </contour>
    <contour>
      <point x="4.70361" y="-305.674" type="move" name="_markAboveAlt"/>
    </contour>
  </outline>
</glyph>
<glyph name="diShadda" format="1">
  <advance width="0"/>
  <unicode hex="0651"/>
  <outline>
    <contour>
      <point x="96.6797" y="688.477" type="line"/>
      <point x="103.027" y="662.598" type="line"/>
      <point x="104.004" y="641.602" type="line"/>
      <point x="104.004" y="590.332"/>
      <point x="84.961" y="559.57"/>
      <point x="52.7344" y="559.57" type="curve"/>
      <point x="38.086" y="561.523" type="line"/>
      <point x="29.7852" y="564.453" type="line"/>
      <point x="21.9727" y="570.312" type="line"/>
      <point x="18.0664" y="547.363"/>
      <point x="-6.34762" y="528.32"/>
      <point x="-29.2968" y="528.32" type="curve" smooth="yes"/>
      <point x="-38.0859" y="528.32"/>
      <point x="-47.3632" y="533.203"/>
      <point x="-58.1054" y="542.48" type="curve"/>
      <point x="-64.9414" y="553.223"/>
      <point x="-69.3359" y="565.43"/>
      <point x="-69.3359" y="580.566" type="curve" smooth="yes"/>
      <point x="-69.3359" y="591.309"/>
      <point x="-69.3359" y="598.145"/>
      <point x="-68.3593" y="599.121" type="curve"/>
      <point x="-62.9882" y="613.281" type="line"/>
      <point x="-58.1054" y="630.371" type="line"/>
      <point x="-47.3632" y="632.324" type="line"/>
      <point x="-47.3632" y="621.167"/>
      <point x="-45.288" y="578.125"/>
      <point x="-28.3202" y="578.125" type="curve" smooth="yes"/>
      <point x="-18.0663" y="578.125"/>
      <point x="-9.97253" y="584.287"/>
      <point x="-2.92961" y="595.215" type="curve" smooth="yes"/>
      <point x="4.19234" y="606.265"/>
      <point x="9.7657" y="627.441"/>
      <point x="16.1134" y="657.227" type="curve"/>
      <point x="24.9024" y="660.156" type="line"/>
      <point x="28.8087" y="642.578"/>
      <point x="32.7149" y="629.395"/>
      <point x="37.1095" y="622.559" type="curve"/>
      <point x="41.9923" y="615.234"/>
      <point x="46.8751" y="612.305"/>
      <point x="52.7345" y="612.305" type="curve" smooth="yes"/>
      <point x="74.7071" y="612.305"/>
      <point x="85.9376" y="636.23"/>
      <point x="85.9376" y="683.594" type="curve"/>
    </contour>
    <contour>
      <point x="29.7852" y="543.088" type="move" name="_markAbove"/>
    </contour>
    <contour>
      <point x="24.3633" y="540.334" type="move" name="_markAboveDot"/>
    </contour>
    <contour>
      <point x="18.5172" y="663.768" type="move" name="markAboveMark"/>
    </contour>
    <contour>
      <point x="22.4824" y="550.992" type="move" name="markBelowMark"/>
    </contour>
  </outline>
</glyph>
<glyph name="diSukun" format="1">
  <advance width="0"/>
  <unicode hex="0652"/>
  <outline>
    <contour>
      <point x="15.0651" y="677.203" type="curve" smooth="yes"/>
      <point x="43.3854" y="677.203"/>
      <point x="74.147" y="641.07"/>
      <point x="74.147" y="604.938" type="curve" smooth="yes"/>
      <point x="74.147" y="563.922"/>
      <point x="40.4557" y="524.859"/>
      <point x="0.416645" y="524.859" type="curve" smooth="yes"/>
      <point x="-12.7669" y="524.859"/>
      <point x="-25.4623" y="530.23"/>
      <point x="-38.6459" y="539.02" type="curve"/>
      <point x="-47.9232" y="549.273"/>
      <point x="-51.8296" y="563.922"/>
      <point x="-51.8296" y="583.941" type="curve" smooth="yes"/>
      <point x="-51.8296" y="639.117"/>
      <point x="-24.4857" y="677.203"/>
    </contour>
    <contour>
      <point x="9.20571" y="573.199" type="curve" smooth="yes"/>
      <point x="36.0612" y="573.199"/>
      <point x="47.2917" y="581.012"/>
      <point x="47.2917" y="593.219" type="curve" smooth="yes"/>
      <point x="47.2917" y="608.844"/>
      <point x="9.20571" y="635.211"/>
      <point x="-6.90757" y="635.211" type="curve" smooth="yes"/>
      <point x="-23.5091" y="635.211"/>
      <point x="-35.7162" y="621.051"/>
      <point x="-35.7162" y="602.008" type="curve" smooth="yes"/>
      <point x="-35.7162" y="582.965"/>
      <point x="-20.5794" y="573.199"/>
    </contour>
    <contour>
      <point x="1.25" y="506.069" type="move" name="_markAbove"/>
    </contour>
    <contour>
      <point x="0.4167" y="506.069" type="move" name="_markAboveDot"/>
    </contour>
    <contour>
      <point x="1.8359" y="506.069" type="move" name="_markAboveMark"/>
    </contour>
  </outline>
</glyph>
<glyph name="diMadda" format="1">
  <advance width="0"/>
  <unicode hex="0653"/>
  <outline>
    <contour>
      <point x="226.983" y="643.012" type="line"/>
      <point x="228.253" y="637.114" type="line"/>
      <point x="225.714" y="630.725" type="line"/>
      <point x="203.5" y="598.777"/>
      <point x="155.263" y="559.456"/>
      <point x="101.949" y="559.456" type="curve"/>
      <point x="80.3697" y="560.439" type="line"/>
      <point x="68.3104" y="562.405" type="line"/>
      <point x="49.9044" y="568.303" type="line"/>
      <point x="22.6127" y="579.608" type="line"/>
      <point x="20.074" y="578.625"/>
      <point x="12.4577" y="569.287"/>
      <point x="-0.236104" y="553.558" type="curve"/>
      <point x="-14.834" y="534.39" type="line"/>
      <point x="-23.7197" y="535.373" type="line"/>
      <point x="-27.5278" y="543.237" type="line"/>
      <point x="-17.3728" y="571.744" type="line"/>
      <point x="-11.361" y="585.713"/>
      <point x="6.9309" y="625.013"/>
      <point x="21.3434" y="631.708" type="curve"/>
      <point x="22.6128" y="632.199"/>
      <point x="23.2475" y="632.199"/>
      <point x="23.8822" y="632.199" type="curve"/>
      <point x="30.2291" y="632.199"/>
      <point x="37.2107" y="629.25"/>
      <point x="44.827" y="624.827" type="curve"/>
      <point x="69.5799" y="614.014"/>
      <point x="86.7167" y="607.624"/>
      <point x="98.1411" y="607.624" type="curve" smooth="yes"/>
      <point x="122.894" y="607.624"/>
      <point x="148.916" y="614.014"/>
      <point x="176.208" y="624.827" type="curve"/>
      <point x="224.445" y="648.91" type="line"/>
    </contour>
    <contour>
      <point x="20.0991" y="486" type="move" name="_hamzaAbove"/>
    </contour>
  </outline>
</glyph>
<glyph name="diHamza.above" format="1">
  <advance width="0"/>
  <unicode hex="0654"/>
  <outline>
    <contour>
      <point x="101.562" y="602.051" type="line"/>
      <point x="122.559" y="602.051" type="line"/>
      <point x="135.254" y="601.074" type="line"/>
      <point x="133.301" y="589.844"/>
      <point x="129.395" y="581.055"/>
      <point x="123.535" y="573.73" type="curve" smooth="yes"/>
      <point x="110.352" y="558.105" type="line"/>
      <point x="82.5196" y="550.781" type="line"/>
      <point x="75.1953" y="547.852"/>
      <point x="69.336" y="544.922"/>
      <point x="62.5" y="541.992" type="curve"/>
      <point x="53.2227" y="537.109" type="line"/>
      <point x="48.3399" y="535.156"/>
      <point x="43.4571" y="531.738"/>
      <point x="38.5742" y="526.855" type="curve"/>
      <point x="25.3907" y="517.09" type="line"/>
      <point x="9.27737" y="502.93" type="line"/>
      <point x="9.27737" y="502.441"/>
      <point x="8.78907" y="502.441"/>
      <point x="8.30077" y="502.441" type="curve"/>
      <point x="7.32417" y="502.441"/>
      <point x="5.85937" y="503.418"/>
      <point x="4.39457" y="504.883" type="curve"/>
      <point x="2.44147" y="513.184" type="line"/>
      <point x="2.44147" y="516.113" type="line"/>
      <point x="38.5743" y="556.152" type="line"/>
      <point x="14.6485" y="562.988" type="line"/>
      <point x="-1.46478" y="569.824"/>
      <point x="-4.39448" y="576.172"/>
      <point x="-4.39448" y="592.773" type="curve" smooth="yes"/>
      <point x="-4.39448" y="631.836"/>
      <point x="35.6446" y="691.894"/>
      <point x="67.3829" y="691.894" type="curve" smooth="yes"/>
      <point x="82.5196" y="691.894"/>
      <point x="98.6329" y="683.105"/>
      <point x="98.6329" y="666.992" type="curve"/>
      <point x="97.6563" y="655.762" type="line"/>
      <point x="92.2852" y="642.09" type="line"/>
      <point x="89.3555" y="636.719"/>
      <point x="86.4258" y="629.883"/>
      <point x="81.543" y="623.047" type="curve"/>
      <point x="67.3828" y="636.719" type="line"/>
      <point x="62.5" y="641.113"/>
      <point x="56.6406" y="643.066"/>
      <point x="51.2695" y="643.066" type="curve"/>
      <point x="43.457" y="642.09" type="line"/>
      <point x="38.5742" y="640.137" type="line"/>
      <point x="27.3437" y="626.953" type="line"/>
      <point x="26.3671" y="623.047"/>
      <point x="28.3202" y="619.141"/>
      <point x="34.6679" y="615.723" type="curve"/>
      <point x="37.5976" y="612.793"/>
      <point x="44.4335" y="608.887"/>
      <point x="53.2226" y="605.957" type="curve"/>
      <point x="76.6601" y="603.027" type="line"/>
    </contour>
    <contour>
      <point x="0.8333" y="506.069" type="move" name="_hamzaAbove"/>
    </contour>
    <contour>
      <point x="54.1443" y="704.599" type="move" name="markAboveMark"/>
    </contour>
    <contour>
      <point x="62.5" y="534.377" type="move" name="markBelowMark"/>
    </contour>
  </outline>
</glyph>
<glyph name="diHamza.below" format="1">
  <advance width="0"/>
  <unicode hex="0655"/>
  <outline>
    <contour>
      <point x="-41.9922" y="-202.148" type="line"/>
      <point x="-44.1076" y="-202.148"/>
      <point x="-45.3297" y="-201.741"/>
      <point x="-46.8751" y="-200.195" type="curve"/>
      <point x="-48.8282" y="-191.895" type="line"/>
      <point x="-48.8282" y="-187.988" type="line"/>
      <point x="-13.1837" y="-148.926" type="line"/>
      <point x="-37.1094" y="-142.09" type="line"/>
      <point x="-53.2227" y="-134.766"/>
      <point x="-56.1524" y="-127.93"/>
      <point x="-56.1524" y="-111.816" type="curve" smooth="yes"/>
      <point x="-56.1524" y="-71.7774"/>
      <point x="-16.1134" y="-13.1836"/>
      <point x="16.1132" y="-13.1836" type="curve" smooth="yes"/>
      <point x="30.7616" y="-13.1836"/>
      <point x="45.8984" y="-21.9727"/>
      <point x="45.8984" y="-38.086" type="curve" smooth="yes"/>
      <point x="45.8984" y="-48.8281" type="line"/>
      <point x="41.0156" y="-62.0117" type="line"/>
      <point x="38.0859" y="-67.8711"/>
      <point x="35.1562" y="-75.1953"/>
      <point x="29.7851" y="-82.0313" type="curve"/>
      <point x="16.1132" y="-67.8711" type="line" smooth="yes"/>
      <point x="11.2304" y="-62.9883"/>
      <point x="4.88271" y="-61.0352"/>
      <point x="-0" y="-61.0352" type="curve"/>
      <point x="-7.8125" y="-62.0118" type="line"/>
      <point x="-17.0898" y="-67.8712" type="line"/>
      <point x="-23.9258" y="-78.1251" type="line"/>
      <point x="-26.8555" y="-84.961"/>
      <point x="-17.0899" y="-91.797"/>
      <point x="1.95311" y="-99.1212" type="curve"/>
      <point x="24.9023" y="-102.051" type="line"/>
      <point x="49.8047" y="-103.027" type="line"/>
      <point x="83.9844" y="-103.027" type="line"/>
      <point x="82.0313" y="-113.77"/>
      <point x="78.125" y="-124.024"/>
      <point x="71.7774" y="-130.86" type="curve"/>
      <point x="59.082" y="-146.973" type="line"/>
      <point x="30.7617" y="-153.809" type="line"/>
      <point x="23.9258" y="-157.227"/>
      <point x="18.0664" y="-160.156"/>
      <point x="11.2305" y="-163.086" type="curve"/>
      <point x="1.95314" y="-167.969" type="line"/>
      <point x="-2.92967" y="-169.922"/>
      <point x="-7.81249" y="-172.852"/>
      <point x="-13.1836" y="-178.223" type="curve"/>
      <point x="-25.8789" y="-187.012" type="line"/>
    </contour>
    <contour>
      <point x="0.4167" y="-171.875" type="move" name="_hamzaBelow"/>
    </contour>
    <contour>
      <point x="11" y="-168" type="move" name="markBelowMark"/>
    </contour>
  </outline>
</glyph>
<glyph name="diLonga.below" format="1">
  <advance width="0"/>
  <unicode hex="0656"/>
  <outline>
    <contour>
      <point x="22.4609" y="-413.086" type="curve" smooth="yes"/>
      <point x="22.4609" y="-373.047"/>
      <point x="1.46484" y="-307.129"/>
      <point x="-23.4375" y="-260.254" type="curve"/>
      <point x="8.30078" y="-200.195" type="line"/>
      <point x="36.6211" y="-248.047"/>
      <point x="55.6641" y="-317.871"/>
      <point x="55.6641" y="-366.211" type="curve" smooth="yes"/>
      <point x="55.6641" y="-390.396"/>
      <point x="48.5098" y="-428.843"/>
      <point x="33.6914" y="-449.219" type="curve" smooth="yes"/>
      <point x="29.2969" y="-455.078"/>
      <point x="26.3672" y="-458.008"/>
      <point x="24.4141" y="-458.008" type="curve" smooth="yes"/>
      <point x="21.4844" y="-458.008"/>
      <point x="19.5313" y="-456.055"/>
      <point x="19.5313" y="-452.148" type="curve" smooth="yes"/>
      <point x="19.5313" y="-450.195"/>
      <point x="19.5313" y="-445.801"/>
      <point x="20.5079" y="-439.941" type="curve" smooth="yes"/>
      <point x="21.4845" y="-432.129"/>
      <point x="22.4611" y="-422.852"/>
    </contour>
    <contour>
      <point x="1.25" y="-171.875" type="move" name="_hamzaBelow"/>
    </contour>
    <contour>
      <point x="0.4167" y="-171.875" type="move" name="_markBelowMark"/>
    </contour>
  </outline>
</glyph>
<glyph name="diSmallV.above" format="1">
  <advance width="0"/>
  <unicode hex="065A"/>
  <outline>
    <contour>
      <point x="80.8949" y="624.991" type="line"/>
      <point x="48.9811" y="585.79"/>
      <point x="17.7776" y="540.082"/>
      <point x="14.6146" y="536.29" type="curve" smooth="yes"/>
      <point x="8.60144" y="529.08"/>
      <point x="3.00381" y="533.955"/>
      <point x="0.997607" y="539.033" type="curve" smooth="yes"/>
      <point x="-8.72958" y="563.656"/>
      <point x="-51.2993" y="600.577"/>
      <point x="-53.9326" y="603.675" type="curve" smooth="yes"/>
      <point x="-57.3649" y="607.713"/>
      <point x="-84.3575" y="623.766"/>
      <point x="-70.3679" y="655.616" type="curve" smooth="yes"/>
      <point x="-56.3783" y="687.467"/>
      <point x="-45.0117" y="694.725"/>
      <point x="-45.0117" y="694.725" type="curve" smooth="yes"/>
      <point x="-37.853" y="682.689"/>
      <point x="-36.9239" y="678.892"/>
      <point x="-22.9343" y="664.192" type="curve" smooth="yes"/>
      <point x="-8.94467" y="649.491"/>
      <point x="8.76093" y="634.301"/>
      <point x="17.5044" y="620.826" type="curve" smooth="yes"/>
      <point x="24.0607" y="610.721"/>
      <point x="29.7453" y="621.561"/>
      <point x="34.1171" y="625.726" type="curve" smooth="yes"/>
      <point x="38.4889" y="629.891"/>
      <point x="76.964" y="672.12"/>
      <point x="76.964" y="672.12" type="curve"/>
      <point x="82.6473" y="678.49"/>
      <point x="97.5076" y="695.797"/>
      <point x="97.5076" y="683.057" type="curve" smooth="yes"/>
      <point x="97.5076" y="670.317"/>
      <point x="94.7852" y="642.813"/>
      <point x="94.7852" y="642.813" type="curve"/>
    </contour>
    <contour>
      <point x="-0.4167" y="506.069" type="move" name="_smallVAbove"/>
    </contour>
  </outline>
</glyph>
<glyph name="dig0" format="1">
  <advance width="355"/>
  <unicode hex="0660"/>
  <outline>
    <contour>
      <point x="151.367" y="102.051" type="line"/>
      <point x="120.117" y="126.953"/>
      <point x="104.004" y="142.09"/>
      <point x="101.074" y="145.996" type="curve"/>
      <point x="104.98" y="158.691"/>
      <point x="125" y="194.824"/>
      <point x="161.133" y="254.883" type="curve"/>
      <point x="174.316" y="247.07"/>
      <point x="184.082" y="238.77"/>
      <point x="193.359" y="231.934" type="curve"/>
      <point x="201.172" y="225.098"/>
      <point x="208.008" y="217.773"/>
      <point x="215.332" y="212.891" type="curve"/>
      <point x="261.23" y="173.828" type="line"/>
      <point x="196.289" y="64.9414" type="line"/>
    </contour>
  </outline>
</glyph>
<glyph name="dig1" format="1">
  <advance width="304"/>
  <unicode hex="0661"/>
  <outline>
    <contour>
      <point x="201.172" y="-3.90625" type="line" smooth="yes"/>
      <point x="198.242" y="-6.83595"/>
      <point x="195.801" y="-7.81255"/>
      <point x="192.871" y="-7.81255" type="curve"/>
      <point x="187.988" y="-2.92974" type="line"/>
      <point x="169.922" y="81.0546" type="line"/>
      <point x="154.785" y="147.949" type="line"/>
      <point x="146.973" y="186.035" type="line"/>
      <point x="131.836" y="237.793" type="line"/>
      <point x="130.859" y="245.117"/>
      <point x="129.883" y="249.023"/>
      <point x="127.93" y="251.953" type="curve"/>
      <point x="127.93" y="254.883"/>
      <point x="125.977" y="262.207"/>
      <point x="123.047" y="267.09" type="curve"/>
      <point x="121.094" y="273.926"/>
      <point x="118.164" y="282.227"/>
      <point x="113.769" y="291.016" type="curve" smooth="yes"/>
      <point x="110.84" y="296.875"/>
      <point x="108.887" y="302.246"/>
      <point x="107.91" y="305.176" type="curve" smooth="yes"/>
      <point x="106.933" y="308.105"/>
      <point x="104.98" y="312.012"/>
      <point x="102.051" y="316.895" type="curve"/>
      <point x="78.1249" y="369.141" type="line"/>
      <point x="67.871" y="389.16" type="line"/>
      <point x="62.9882" y="399.902"/>
      <point x="58.1054" y="409.18"/>
      <point x="52.246" y="417.969" type="curve"/>
      <point x="62.9882" y="442.871" type="line"/>
      <point x="78.1249" y="472.168" type="line" smooth="yes"/>
      <point x="97.1679" y="508.789"/>
      <point x="110.84" y="530.762"/>
      <point x="120.117" y="538.086" type="curve"/>
      <point x="123.047" y="533.203"/>
      <point x="139.16" y="502.93"/>
      <point x="166.016" y="448.242" type="curve"/>
      <point x="178.223" y="411.133" type="line"/>
      <point x="210.937" y="297.852" type="line"/>
      <point x="217.773" y="270.02"/>
      <point x="223.144" y="244.141"/>
      <point x="226.074" y="220.215" type="curve"/>
      <point x="229.004" y="185.059" type="line"/>
      <point x="230.957" y="149.902" type="line"/>
      <point x="230.957" y="130.859"/>
      <point x="229.004" y="105.957"/>
      <point x="225.098" y="76.1719" type="curve" smooth="yes"/>
      <point x="222.168" y="56.1523" type="line"/>
      <point x="219.238" y="41.0156" type="line"/>
      <point x="213.867" y="21.9727" type="line"/>
      <point x="207.031" y="2.92969" type="line"/>
    </contour>
  </outline>
</glyph>
<glyph name="dig2" format="1">
  <advance width="381"/>
  <unicode hex="0662"/>
  <outline>
    <contour>
      <point x="217.773" y="0.9766" type="line"/>
      <point x="217.285" y="0.4883"/>
      <point x="215.82" y="-0.4883"/>
      <point x="213.379" y="-0.4883" type="curve"/>
      <point x="212.891" y="-0.4883"/>
      <point x="211.914" y="-0.4883"/>
      <point x="210.937" y="0" type="curve"/>
      <point x="192.871" y="69.8242" type="line"/>
      <point x="180.176" y="123.047" type="line"/>
      <point x="150.879" y="223.145" type="line"/>
      <point x="145.996" y="235.84" type="line"/>
      <point x="134.766" y="261.23" type="line"/>
      <point x="128.906" y="271.973" type="line"/>
      <point x="128.906" y="274.902"/>
      <point x="127.93" y="276.855"/>
      <point x="126.953" y="277.832" type="curve"/>
      <point x="105.957" y="318.848" type="line"/>
      <point x="89.8436" y="348.145" type="line"/>
      <point x="70.8006" y="377.93" type="line"/>
      <point x="45.8983" y="414.063" type="line"/>
      <point x="70.8006" y="470.215" type="line" smooth="yes"/>
      <point x="77.392" y="485.131"/>
      <point x="95.5028" y="526.094"/>
      <point x="108.887" y="536.133" type="curve"/>
      <point x="158.203" y="480.957" type="line"/>
      <point x="177.246" y="461.914"/>
      <point x="194.824" y="453.125"/>
      <point x="209.961" y="453.125" type="curve" smooth="yes"/>
      <point x="235.84" y="453.125"/>
      <point x="253.906" y="455.078"/>
      <point x="263.183" y="459.961" type="curve"/>
      <point x="272.949" y="467.773"/>
      <point x="291.015" y="490.234"/>
      <point x="316.894" y="526.855" type="curve"/>
      <point x="317.871" y="529.785"/>
      <point x="321.777" y="532.227"/>
      <point x="327.148" y="534.18" type="curve"/>
      <point x="330.078" y="534.18"/>
      <point x="333.008" y="533.203"/>
      <point x="333.984" y="529.785" type="curve" smooth="yes"/>
      <point x="337.891" y="519.043" type="line"/>
      <point x="337.891" y="490.234" type="line"/>
      <point x="336.914" y="472.168" type="line"/>
      <point x="336.914" y="463.867"/>
      <point x="335.937" y="458.984"/>
      <point x="334.961" y="456.055" type="curve"/>
      <point x="333.008" y="432.129" type="line"/>
      <point x="331.055" y="421.875" type="line"/>
      <point x="327.148" y="411.133" type="line"/>
      <point x="319.824" y="387.207"/>
      <point x="307.129" y="365.234"/>
      <point x="287.109" y="344.238" type="curve" smooth="yes"/>
      <point x="280.762" y="337.891" type="line"/>
      <point x="262.207" y="325.195" type="line"/>
      <point x="250" y="319.824"/>
      <point x="238.77" y="317.871"/>
      <point x="229.004" y="317.871" type="curve"/>
      <point x="220.215" y="318.848" type="line"/>
      <point x="225.098" y="306.152" type="line"/>
      <point x="231.934" y="283.203" type="line"/>
      <point x="233.887" y="277.832"/>
      <point x="235.84" y="271.973"/>
      <point x="236.816" y="267.09" type="curve" smooth="yes"/>
      <point x="241.211" y="249.023" type="line"/>
      <point x="246.094" y="214.844" type="line"/>
      <point x="247.07" y="173.828" type="line"/>
      <point x="247.07" y="106.934"/>
      <point x="238.77" y="50.7812"/>
      <point x="223.145" y="7.81249" type="curve"/>
    </contour>
  </outline>
</glyph>
<glyph name="dig3" format="1">
  <advance width="381"/>
  <unicode hex="0663"/>
  <outline>
    <contour>
      <point x="208.008" y="0.9766" type="line"/>
      <point x="206.543" y="0.4883"/>
      <point x="205.078" y="-0.4883"/>
      <point x="203.613" y="-0.4883" type="curve"/>
      <point x="203.125" y="-0.4883"/>
      <point x="202.637" y="-0.4883"/>
      <point x="202.149" y="0" type="curve"/>
      <point x="171.875" y="115.234" type="line"/>
      <point x="160.156" y="163.086" type="line"/>
      <point x="155.762" y="173.828" type="line"/>
      <point x="151.856" y="194.824"/>
      <point x="130.859" y="258.789"/>
      <point x="116.211" y="284.18" type="curve"/>
      <point x="104.981" y="307.129"/>
      <point x="94.2384" y="328.125"/>
      <point x="82.0313" y="348.145" type="curve"/>
      <point x="36.1329" y="412.109" type="line"/>
      <point x="61.0352" y="467.773" type="line"/>
      <point x="69.1046" y="487.05"/>
      <point x="82.9669" y="520.044"/>
      <point x="99.1212" y="534.18" type="curve"/>
      <point x="115.234" y="505.859" type="line"/>
      <point x="134.766" y="476.074" type="line"/>
      <point x="151.856" y="457.031"/>
      <point x="167.969" y="448.242"/>
      <point x="184.082" y="448.242" type="curve" smooth="yes"/>
      <point x="189.941" y="448.242"/>
      <point x="202.149" y="457.031"/>
      <point x="220.215" y="474.121" type="curve"/>
      <point x="232.91" y="524.902" type="line"/>
      <point x="233.887" y="530.762"/>
      <point x="236.817" y="534.18"/>
      <point x="242.188" y="534.18" type="curve" smooth="yes"/>
      <point x="247.07" y="534.18"/>
      <point x="250" y="530.762"/>
      <point x="251.953" y="523.926" type="curve" smooth="yes"/>
      <point x="261.23" y="485.84" type="line"/>
      <point x="265.137" y="474.121"/>
      <point x="272.949" y="463.867"/>
      <point x="286.133" y="456.055" type="curve"/>
      <point x="292.969" y="454.102" type="line"/>
      <point x="314.941" y="465.82" type="line"/>
      <point x="320.801" y="474.121"/>
      <point x="324.219" y="482.91"/>
      <point x="324.219" y="492.188" type="curve" smooth="yes"/>
      <point x="324.219" y="511.177"/>
      <point x="329.459" y="518.306"/>
      <point x="342.773" y="532.227" type="curve"/>
      <point x="346.191" y="527.832"/>
      <point x="349.121" y="518.066"/>
      <point x="352.051" y="502.93" type="curve"/>
      <point x="354.98" y="479.98" type="line"/>
      <point x="355.957" y="454.102" type="line"/>
      <point x="355.957" y="430.176"/>
      <point x="352.051" y="403.809"/>
      <point x="345.215" y="375.977" type="curve"/>
      <point x="334.961" y="350.098"/>
      <point x="319.824" y="336.914"/>
      <point x="300.781" y="336.914" type="curve" smooth="yes"/>
      <point x="292.969" y="336.914" type="line"/>
      <point x="278.809" y="339.844" type="line"/>
      <point x="271.973" y="341.797"/>
      <point x="265.137" y="347.168"/>
      <point x="257.813" y="354.004" type="curve"/>
      <point x="236.816" y="331.055" type="line"/>
      <point x="208.008" y="320.801" type="line"/>
      <point x="212.891" y="310.059"/>
      <point x="217.773" y="296.875"/>
      <point x="222.168" y="283.203" type="curve"/>
      <point x="229.981" y="246.094" type="line"/>
      <point x="234.863" y="203.125" type="line"/>
      <point x="236.816" y="173.828" type="line"/>
      <point x="236.816" y="110.84"/>
      <point x="229.98" y="50.7813"/>
      <point x="212.891" y="7.81251" type="curve"/>
    </contour>
  </outline>
</glyph>
<glyph name="dig4" format="1">
  <advance width="311"/>
  <unicode hex="0664"/>
  <outline>
    <contour>
      <point x="220.215" y="3.90625" type="line"/>
      <point x="195.801" y="-16.1133" type="line"/>
      <point x="126.953" y="21.9727" type="line"/>
      <point x="96.1914" y="41.0156"/>
      <point x="73.2422" y="59.082"/>
      <point x="60.0586" y="76.1719" type="curve"/>
      <point x="47.8516" y="90.8203" type="line"/>
      <point x="41.0156" y="105.957" type="line" smooth="yes"/>
      <point x="36.1328" y="116.211"/>
      <point x="34.1797" y="125.977"/>
      <point x="34.1797" y="137.207" type="curve"/>
      <point x="35.1563" y="150.879" type="line"/>
      <point x="38.7815" y="169.005"/>
      <point x="81.1924" y="214.627"/>
      <point x="92.7735" y="227.051" type="curve" smooth="yes"/>
      <point x="117.188" y="251.953" type="line"/>
      <point x="136.231" y="273.926" type="line"/>
      <point x="87.8907" y="308.105" type="line"/>
      <point x="79.1016" y="312.012"/>
      <point x="64.9415" y="327.148"/>
      <point x="44.9219" y="354.004" type="curve"/>
      <point x="40.0391" y="372.07" type="line"/>
      <point x="41.0157" y="380.859" type="line"/>
      <point x="43.9454" y="390.137" type="line"/>
      <point x="55.1759" y="407.227" type="line"/>
      <point x="84.9611" y="439.941" type="line"/>
      <point x="125.977" y="479.98" type="line"/>
      <point x="147.949" y="500" type="line"/>
      <point x="191.895" y="535.156" type="line"/>
      <point x="213.867" y="549.805" type="line"/>
      <point x="215.82" y="549.805"/>
      <point x="217.774" y="549.805"/>
      <point x="219.238" y="548.828" type="curve"/>
      <point x="220.215" y="538.086" type="line"/>
      <point x="220.215" y="523.926" type="line" smooth="yes"/>
      <point x="220.215" y="521.973"/>
      <point x="220.215" y="520.996"/>
      <point x="219.238" y="520.019" type="curve"/>
      <point x="212.891" y="488.769" type="line" smooth="yes"/>
      <point x="211.914" y="483.887"/>
      <point x="210.937" y="480.957"/>
      <point x="208.984" y="478.027" type="curve" smooth="yes"/>
      <point x="205.078" y="470.215"/>
      <point x="192.871" y="459.961"/>
      <point x="172.852" y="448.242" type="curve"/>
      <point x="144.043" y="432.129" type="line"/>
      <point x="144.043" y="423.828"/>
      <point x="157.227" y="411.133"/>
      <point x="183.105" y="394.043" type="curve" smooth="yes"/>
      <point x="242.187" y="354.98" type="line" smooth="yes"/>
      <point x="250" y="350.098"/>
      <point x="253.906" y="341.797"/>
      <point x="253.906" y="332.031" type="curve" smooth="yes"/>
      <point x="253.906" y="325.195"/>
      <point x="250.977" y="316.894"/>
      <point x="245.117" y="308.105" type="curve"/>
      <point x="211.914" y="267.09" type="line"/>
      <point x="160.156" y="206.055" type="line"/>
      <point x="155.762" y="192.871" type="line"/>
      <point x="155.762" y="187.988"/>
      <point x="158.203" y="184.082"/>
      <point x="161.133" y="181.152" type="curve"/>
      <point x="240.234" y="117.187" type="line"/>
      <point x="269.043" y="95.2147"/>
      <point x="286.133" y="79.1014"/>
      <point x="291.016" y="69.8241" type="curve"/>
      <point x="248.047" y="28.8085" type="line"/>
    </contour>
  </outline>
</glyph>
<glyph name="dig5" format="1">
  <advance width="352"/>
  <unicode hex="0665"/>
  <outline>
    <contour>
      <point x="304.199" y="256.836" type="line"/>
      <point x="308.105" y="224.121" type="line"/>
      <point x="310.059" y="186.035" type="line"/>
      <point x="310.059" y="178.223" type="line"/>
      <point x="309.082" y="166.016" type="line"/>
      <point x="304.199" y="143.066" type="line"/>
      <point x="294.922" y="119.141" type="line"/>
      <point x="291.992" y="115.234" type="line"/>
      <point x="268.066" y="71.7773"/>
      <point x="222.168" y="42.9688"/>
      <point x="168.945" y="42.9688" type="curve" smooth="yes"/>
      <point x="140.137" y="42.9688"/>
      <point x="110.84" y="58.1055"/>
      <point x="82.0312" y="87.8906" type="curve"/>
      <point x="63.9648" y="115.234"/>
      <point x="55.1757" y="146.973"/>
      <point x="55.1757" y="182.129" type="curve" smooth="yes"/>
      <point x="55.1757" y="268.12"/>
      <point x="71.0072" y="329.985"/>
      <point x="106.934" y="407.227" type="curve"/>
      <point x="117.187" y="428.223"/>
      <point x="129.883" y="458.984"/>
      <point x="148.926" y="479.004" type="curve" smooth="yes"/>
      <point x="162.109" y="492.188"/>
      <point x="173.828" y="498.047"/>
      <point x="187.012" y="498.047" type="curve" smooth="yes"/>
      <point x="202.148" y="498.047"/>
      <point x="216.797" y="490.234"/>
      <point x="232.91" y="465.82" type="curve"/>
      <point x="244.141" y="454.102"/>
      <point x="262.207" y="411.133"/>
      <point x="287.109" y="336.914" type="curve"/>
    </contour>
    <contour>
      <point x="228.027" y="183.105" type="curve"/>
      <point x="245.117" y="189.941"/>
      <point x="255.859" y="199.219"/>
      <point x="261.23" y="208.984" type="curve"/>
      <point x="261.23" y="251.953"/>
      <point x="216.797" y="344.238"/>
      <point x="171.875" y="362.793" type="curve"/>
      <point x="171.387" y="363.281"/>
      <point x="170.898" y="363.281"/>
      <point x="170.41" y="363.281" type="curve"/>
      <point x="164.551" y="363.281"/>
      <point x="154.297" y="351.074"/>
      <point x="139.16" y="325.195" type="curve" smooth="yes"/>
      <point x="122.07" y="295.898"/>
      <point x="108.887" y="267.09"/>
      <point x="102.051" y="237.793" type="curve" smooth="yes"/>
      <point x="100.098" y="229.004" type="line"/>
      <point x="100.098" y="219.238" type="line"/>
      <point x="103.027" y="207.031" type="line"/>
      <point x="113.77" y="187.012" type="line"/>
      <point x="117.187" y="184.082"/>
      <point x="121.094" y="182.129"/>
      <point x="125.977" y="180.176" type="curve" smooth="yes"/>
      <point x="141.113" y="173.828" type="line"/>
      <point x="154.785" y="170.898" type="line"/>
      <point x="170.898" y="169.922" type="line"/>
      <point x="189.941" y="169.922"/>
      <point x="210.937" y="173.828"/>
    </contour>
  </outline>
</glyph>
<glyph name="dig6" format="1">
  <advance width="478"/>
  <unicode hex="0666"/>
  <outline>
    <contour>
      <point x="381.836" y="152.832" type="line"/>
      <point x="386.23" y="145.996"/>
      <point x="396.973" y="128.906"/>
      <point x="415.039" y="104.004" type="curve"/>
      <point x="415.039" y="97.168"/>
      <point x="403.809" y="77.1484"/>
      <point x="381.836" y="41.9922" type="curve"/>
      <point x="368.164" y="20.9961" type="line"/>
      <point x="365.234" y="15.1367"/>
      <point x="360.84" y="8.78906"/>
      <point x="355.957" y="3.90625" type="curve"/>
      <point x="351.074" y="-3.90625"/>
      <point x="347.168" y="-8.78906"/>
      <point x="341.797" y="-12.207" type="curve"/>
      <point x="325.195" y="5.85938" type="line"/>
      <point x="316.895" y="16.1133" type="line"/>
      <point x="309.082" y="27.832" type="line"/>
      <point x="289.062" y="71.7773" type="line"/>
      <point x="279.785" y="103.027" type="line"/>
      <point x="269.043" y="154.785" type="line"/>
      <point x="259.766" y="231.934" type="line"/>
      <point x="259.766" y="259.766" type="line"/>
      <point x="257.813" y="392.09" type="line"/>
      <point x="241.211" y="374.023" type="line"/>
      <point x="220.215" y="356.934" type="line"/>
      <point x="208.984" y="351.074" type="line"/>
      <point x="193.848" y="345.215" type="line"/>
      <point x="181.152" y="342.773" type="line"/>
      <point x="169.922" y="341.797" type="line"/>
      <point x="120.432" y="341.797"/>
      <point x="99.4902" y="355.078"/>
      <point x="73.2422" y="397.949" type="curve"/>
      <point x="70.8008" y="420.898" type="line"/>
      <point x="69.8242" y="458.984" type="line"/>
      <point x="69.8242" y="502.93" type="line"/>
      <point x="70.8008" y="532.227" type="line"/>
      <point x="76.1719" y="533.203" type="line"/>
      <point x="82.0313" y="532.227" type="line"/>
      <point x="92.7735" y="521.973"/>
      <point x="109.863" y="514.16"/>
      <point x="130.859" y="506.836" type="curve"/>
      <point x="145.02" y="502.93" type="line"/>
      <point x="165.039" y="500" type="line"/>
      <point x="187.012" y="498.047" type="line"/>
      <point x="199.219" y="498.047" type="line" smooth="yes"/>
      <point x="233.887" y="498.047"/>
      <point x="255.859" y="499.024"/>
      <point x="264.16" y="500.977" type="curve"/>
      <point x="274.902" y="504.883" type="line"/>
      <point x="278.809" y="505.859"/>
      <point x="283.203" y="506.836"/>
      <point x="286.133" y="509.766" type="curve"/>
      <point x="302.246" y="520.02" type="line"/>
      <point x="311.035" y="507.813" type="line"/>
      <point x="314.941" y="423.828" type="line"/>
      <point x="314.941" y="408.203"/>
      <point x="315.918" y="388.184"/>
      <point x="318.848" y="365.234" type="curve"/>
      <point x="329.102" y="308.106" type="line"/>
      <point x="335.938" y="256.836"/>
      <point x="344.238" y="226.074"/>
      <point x="355.957" y="203.125" type="curve" smooth="yes"/>
    </contour>
  </outline>
</glyph>
<glyph name="dig7" format="1">
  <advance width="428"/>
  <unicode hex="0667"/>
  <outline>
    <contour>
      <point x="230.957" y="9.76562" type="line" smooth="yes"/>
      <point x="229.004" y="0.976562"/>
      <point x="225.098" y="-3.90625"/>
      <point x="220.215" y="-4.88285" type="curve"/>
      <point x="216.797" y="-1.95315" type="line"/>
      <point x="208.984" y="7.81247" type="line"/>
      <point x="207.031" y="20.0195"/>
      <point x="203.125" y="34.1797"/>
      <point x="198.242" y="49.8047" type="curve" smooth="yes"/>
      <point x="187.988" y="84.9609" type="line"/>
      <point x="180.176" y="108.887" type="line"/>
      <point x="162.109" y="170.898"/>
      <point x="144.043" y="216.797"/>
      <point x="126.953" y="246.094" type="curve"/>
      <point x="104.004" y="300.781"/>
      <point x="84.961" y="336.914"/>
      <point x="67.8711" y="352.051" type="curve"/>
      <point x="63.9649" y="356.934"/>
      <point x="59.0821" y="360.84"/>
      <point x="53.2227" y="366.211" type="curve" smooth="yes"/>
      <point x="40.0391" y="377.93" type="line"/>
      <point x="40.0391" y="401.855"/>
      <point x="57.129" y="517.09"/>
      <point x="67.8711" y="532.227" type="curve"/>
      <point x="76.1719" y="527.832"/>
      <point x="91.7969" y="517.09"/>
      <point x="116.211" y="498.047" type="curve"/>
      <point x="138.184" y="462.891" type="line"/>
      <point x="158.203" y="427.246" type="line"/>
      <point x="187.988" y="348.145" type="line"/>
      <point x="211.914" y="262.207" type="line"/>
      <point x="229.004" y="332.031" type="line"/>
      <point x="240.234" y="375" type="line"/>
      <point x="249.023" y="402.832" type="line"/>
      <point x="253.906" y="415.039" type="line"/>
      <point x="265.137" y="437.012"/>
      <point x="280.762" y="464.844"/>
      <point x="299.805" y="498.047" type="curve"/>
      <point x="307.129" y="506.836"/>
      <point x="313.965" y="515.137"/>
      <point x="323.242" y="520.02" type="curve" smooth="yes"/>
      <point x="349.121" y="534.18" type="line"/>
      <point x="361.816" y="488.77" type="line"/>
      <point x="380.859" y="381.836" type="line"/>
      <point x="373.047" y="376.953"/>
      <point x="365.234" y="370.117"/>
      <point x="355.957" y="358.887" type="curve"/>
      <point x="339.844" y="336.914" type="line"/>
      <point x="331.055" y="321.777" type="line"/>
      <point x="289.063" y="222.168" type="line"/>
      <point x="268.066" y="151.855" type="line"/>
      <point x="251.953" y="101.074" type="line"/>
    </contour>
  </outline>
</glyph>
<glyph name="dig8" format="1">
  <advance width="428"/>
  <unicode hex="0668"/>
  <outline>
    <contour>
      <point x="360.84" y="167.969" type="line"/>
      <point x="384.766" y="146.973" type="line"/>
      <point x="383.789" y="130.859" type="line"/>
      <point x="383.789" y="121.094" type="line"/>
      <point x="381.836" y="112.793" type="line"/>
      <point x="378.906" y="91.7969" type="line"/>
      <point x="374.023" y="64.9414" type="line" smooth="yes"/>
      <point x="368.164" y="29.7852"/>
      <point x="361.816" y="5.85938"/>
      <point x="355.957" y="-6.83594" type="curve"/>
      <point x="335.937" y="4.88281" type="line"/>
      <point x="309.082" y="26.8555" type="line"/>
      <point x="286.133" y="62.0117" type="line"/>
      <point x="266.113" y="99.1211" type="line"/>
      <point x="235.84" y="177.246" type="line"/>
      <point x="211.914" y="264.16" type="line"/>
      <point x="195.801" y="192.871" type="line"/>
      <point x="184.082" y="148.926" type="line"/>
      <point x="184.082" y="145.02"/>
      <point x="183.105" y="142.09"/>
      <point x="182.129" y="141.113" type="curve"/>
      <point x="169.922" y="109.863" type="line"/>
      <point x="159.18" y="88.8671"/>
      <point x="144.043" y="61.0351"/>
      <point x="124.023" y="26.8554" type="curve" smooth="yes"/>
      <point x="119.141" y="19.0429"/>
      <point x="110.84" y="12.207"/>
      <point x="101.074" y="4.88276" type="curve"/>
      <point x="75.1952" y="-8.78911" type="line"/>
      <point x="71.7772" y="-4.88286"/>
      <point x="67.871" y="9.76558"/>
      <point x="62.0116" y="37.1093" type="curve"/>
      <point x="42.9687" y="144.043" type="line"/>
      <point x="52.246" y="150.879" type="line"/>
      <point x="63.9647" y="164.062" type="line"/>
      <point x="94.2382" y="203.125" type="line"/>
      <point x="136.23" y="304.199" type="line"/>
      <point x="171.875" y="424.805" type="line"/>
      <point x="185.058" y="476.074" type="line"/>
      <point x="192.871" y="516.113" type="line" smooth="yes"/>
      <point x="194.824" y="525.879"/>
      <point x="199.219" y="530.762"/>
      <point x="205.078" y="530.762" type="curve"/>
      <point x="208.008" y="527.832" type="line"/>
      <point x="214.844" y="518.066" type="line"/>
      <point x="219.238" y="494.141"/>
      <point x="228.027" y="467.773"/>
      <point x="233.887" y="449.219" type="curve" smooth="yes"/>
      <point x="236.816" y="438.965"/>
      <point x="240.234" y="428.223"/>
      <point x="245.117" y="416.992" type="curve"/>
      <point x="256.836" y="374.023" type="line"/>
      <point x="263.183" y="354.98" type="line"/>
      <point x="270.996" y="334.961" type="line"/>
      <point x="279.785" y="310.059"/>
      <point x="289.062" y="291.992"/>
      <point x="296.875" y="278.809" type="curve"/>
      <point x="319.824" y="224.121"/>
      <point x="338.867" y="188.965"/>
      <point x="355.957" y="173.828" type="curve"/>
    </contour>
  </outline>
</glyph>
<glyph name="dig9" format="1">
  <advance width="384"/>
  <unicode hex="0669"/>
  <outline>
    <contour>
      <point x="342.773" y="134.766" type="line"/>
      <point x="361.816" y="103.027" type="line"/>
      <point x="360.84" y="98.1445"/>
      <point x="357.91" y="89.8438"/>
      <point x="352.051" y="77.1484" type="curve"/>
      <point x="342.773" y="61.0352" type="line"/>
      <point x="329.102" y="40.0391" type="line" smooth="yes"/>
      <point x="311.035" y="13.1836"/>
      <point x="298.828" y="-0.976562"/>
      <point x="292.969" y="-3.90626" type="curve"/>
      <point x="286.133" y="0.97655"/>
      <point x="279.785" y="5.85936"/>
      <point x="273.926" y="13.1836" type="curve"/>
      <point x="269.043" y="20.0195"/>
      <point x="263.184" y="30.7617"/>
      <point x="254.883" y="43.9453" type="curve"/>
      <point x="252.93" y="48.8281"/>
      <point x="245.117" y="82.0312"/>
      <point x="230.957" y="141.113" type="curve"/>
      <point x="228.027" y="167.969"/>
      <point x="227.051" y="203.125"/>
      <point x="227.051" y="244.141" type="curve" smooth="yes"/>
      <point x="227.051" y="270.02" type="line"/>
      <point x="213.867" y="251.953" type="line"/>
      <point x="193.848" y="220.215" type="line"/>
      <point x="187.012" y="209.961"/>
      <point x="175.781" y="203.125"/>
      <point x="159.18" y="198.242" type="curve"/>
      <point x="143.066" y="195.801" type="line"/>
      <point x="95.2148" y="195.801"/>
      <point x="43.9452" y="240.234"/>
      <point x="43.9452" y="280.762" type="curve" smooth="yes"/>
      <point x="43.9452" y="304.199"/>
      <point x="45.8983" y="323.242"/>
      <point x="48.828" y="339.844" type="curve"/>
      <point x="57.1288" y="370.117" type="line" smooth="yes"/>
      <point x="58.1054" y="374.023"/>
      <point x="60.0585" y="378.906"/>
      <point x="62.0116" y="384.766" type="curve"/>
      <point x="62.9882" y="390.137"/>
      <point x="64.9413" y="395.996"/>
      <point x="67.871" y="401.855" type="curve"/>
      <point x="83.9843" y="445.801"/>
      <point x="105.957" y="481.934"/>
      <point x="134.766" y="511.23" type="curve"/>
      <point x="145.019" y="520.02" type="line"/>
      <point x="155.762" y="525.879" type="line"/>
      <point x="166.992" y="528.809" type="line"/>
      <point x="171.875" y="530.762"/>
      <point x="177.246" y="532.226"/>
      <point x="181.152" y="532.226" type="curve" smooth="yes"/>
      <point x="211.914" y="532.226"/>
      <point x="244.141" y="506.836"/>
      <point x="258.789" y="462.891" type="curve"/>
      <point x="275.879" y="386.23" type="line"/>
      <point x="291.016" y="295.898" type="line"/>
      <point x="299.805" y="234.863"/>
      <point x="315.918" y="190.918"/>
      <point x="335.937" y="149.902" type="curve"/>
    </contour>
    <contour>
      <point x="198.242" y="328.125" type="line" smooth="yes"/>
      <point x="203.125" y="329.102"/>
      <point x="206.055" y="332.031"/>
      <point x="208.008" y="336.914" type="curve"/>
      <point x="208.008" y="350.098"/>
      <point x="205.078" y="362.793"/>
      <point x="199.219" y="377.93" type="curve"/>
      <point x="191.895" y="390.137"/>
      <point x="180.176" y="401.856"/>
      <point x="164.062" y="413.086" type="curve"/>
      <point x="158.203" y="414.063" type="line"/>
      <point x="138.184" y="414.063"/>
      <point x="105.957" y="384.766"/>
      <point x="101.074" y="372.07" type="curve"/>
      <point x="101.074" y="367.188"/>
      <point x="108.887" y="358.887"/>
      <point x="125" y="348.145" type="curve"/>
      <point x="180.176" y="327.149" type="line"/>
      <point x="187.012" y="326.172" type="line"/>
    </contour>
  </outline>
</glyph>
<glyph name="maPercent" format="1">
  <advance width="526.001"/>
  <unicode hex="066A"/>
  <outline>
    <contour>
      <point x="75" y="38" type="line"/>
      <point x="101" y="1" type="line"/>
      <point x="396" y="521" type="line"/>
      <point x="371" y="556" type="line"/>
    </contour>
    <contour>
      <point x="25" y="413" type="line"/>
      <point x="121" y="333" type="line"/>
      <point x="185" y="441" type="line"/>
      <point x="88" y="524" type="line"/>
    </contour>
    <contour>
      <point x="299" y="105" type="line"/>
      <point x="394" y="25" type="line"/>
      <point x="458" y="133" type="line"/>
      <point x="362" y="217" type="line"/>
    </contour>
  </outline>
</glyph>
<glyph name="maDecimal" format="1">
  <advance width="355"/>
  <unicode hex="066B"/>
  <outline>
    <contour>
      <point x="208.008" y="105.957" type="line"/>
      <point x="238.77" y="81.0547"/>
      <point x="254.883" y="66.8945"/>
      <point x="257.813" y="62.9883" type="curve"/>
      <point x="247.07" y="23.9258"/>
      <point x="216.797" y="-37.1094"/>
      <point x="172.852" y="-108.887" type="curve" smooth="yes"/>
      <point x="157.227" y="-134.766" type="line"/>
      <point x="150.879" y="-143.066" type="line"/>
      <point x="131.836" y="-130.859" type="line"/>
      <point x="140.137" y="-113.77" type="line"/>
      <point x="147.949" y="-89.8438" type="line"/>
      <point x="150.879" y="-70.8008" type="line"/>
      <point x="152.832" y="-53.2227" type="line"/>
      <point x="152.832" y="-28.8086"/>
      <point x="147.949" y="-13.1836"/>
      <point x="141.113" y="-5.85938" type="curve" smooth="yes"/>
      <point x="119.141" y="17.0898" type="line"/>
      <point x="99.1211" y="35.1562" type="line"/>
      <point x="163.086" y="144.043" type="line"/>
    </contour>
  </outline>
</glyph>
<glyph name="maThousandsep" format="1">
  <advance width="278"/>
  <unicode hex="066C"/>
  <outline>
    <contour>
      <point x="138.184" y="112.793" type="curve" smooth="yes"/>
      <point x="165.039" y="112.793"/>
      <point x="183.105" y="92.7734"/>
      <point x="183.105" y="68.8477" type="curve" smooth="yes"/>
      <point x="183.105" y="44.9219"/>
      <point x="165.039" y="25.8789"/>
      <point x="141.113" y="25.8789" type="curve" smooth="yes"/>
      <point x="128.906" y="25.8789"/>
      <point x="119.141" y="29.7852"/>
      <point x="109.863" y="38.0859" type="curve"/>
      <point x="102.051" y="46.875"/>
      <point x="98.1445" y="58.1055"/>
      <point x="98.1445" y="68.8477" type="curve" smooth="yes"/>
      <point x="98.1445" y="91.7969"/>
      <point x="117.188" y="112.793"/>
    </contour>
  </outline>
</glyph>
<glyph name="maAsterisk" format="1">
  <advance width="284"/>
  <unicode hex="066D"/>
  <outline>
    <contour>
      <point x="275" y="296" type="line"/>
      <point x="241" y="355" type="line"/>
      <point x="151" y="272" type="line"/>
      <point x="178" y="393" type="line"/>
      <point x="110" y="393" type="line"/>
      <point x="137" y="272" type="line"/>
      <point x="46" y="355" type="line"/>
      <point x="12" y="296" type="line"/>
      <point x="131" y="260" type="line"/>
      <point x="12" y="222" type="line"/>
      <point x="46" y="164" type="line"/>
      <point x="136" y="247" type="line"/>
      <point x="109" y="126" type="line"/>
      <point x="177" y="126" type="line"/>
      <point x="151" y="247" type="line"/>
      <point x="241" y="164" type="line"/>
      <point x="275" y="222" type="line"/>
      <point x="157" y="260" type="line"/>
    </contour>
  </outline>
</glyph>
<glyph name="arBeh.isol" format="1">
  <advance width="513.999"/>
  <unicode hex="066E"/>
  <outline>
    <contour>
      <point x="471.191" y="346.191" type="curve"/>
      <point x="481.934" y="312.988"/>
      <point x="490.234" y="279.785"/>
      <point x="490.234" y="264.16" type="curve" smooth="yes"/>
      <point x="490.234" y="214.844" type="line" smooth="yes"/>
      <point x="490.234" y="175.781"/>
      <point x="484.863" y="140.137"/>
      <point x="475.098" y="104.98" type="curve" smooth="yes"/>
      <point x="464.844" y="69.8242"/>
      <point x="451.172" y="35.1562"/>
      <point x="437.988" y="0" type="curve"/>
      <point x="145.02" y="0" type="line" smooth="yes"/>
      <point x="58.7212" y="0"/>
      <point x="25.8789" y="68.9756"/>
      <point x="25.8789" y="145.996" type="curve" smooth="yes"/>
      <point x="25.8789" y="188.965" type="line" smooth="yes"/>
      <point x="25.8789" y="227.167"/>
      <point x="49.4326" y="345.968"/>
      <point x="80.0781" y="375" type="curve"/>
      <point x="94.2383" y="375.977" type="line"/>
      <point x="88.8672" y="347.168"/>
      <point x="83.9844" y="318.848"/>
      <point x="83.9844" y="288.086" type="curve" smooth="yes"/>
      <point x="83.9844" y="274.902"/>
      <point x="84.961" y="261.231"/>
      <point x="85.9376" y="248.047" type="curve" smooth="yes"/>
      <point x="87.8751" y="208.332"/>
      <point x="130.948" y="180.176"/>
      <point x="167.969" y="180.176" type="curve" smooth="yes"/>
      <point x="416.016" y="180.176" type="line"/>
      <point x="417.969" y="185.059" type="line"/>
      <point x="417.969" y="206.235"/>
      <point x="393.041" y="267.513"/>
      <point x="379.883" y="284.18" type="curve"/>
      <point x="387.207" y="305.176"/>
      <point x="394.043" y="328.125"/>
      <point x="402.832" y="352.051" type="curve" smooth="yes"/>
      <point x="411.133" y="375"/>
      <point x="420.898" y="395.996"/>
      <point x="434.082" y="415.039" type="curve"/>
      <point x="444.824" y="407.227"/>
      <point x="458.984" y="377.93"/>
    </contour>
    <contour>
      <point x="213.739" y="507.104" type="move" name="markAbove"/>
    </contour>
    <contour>
      <point x="257.626" y="486" type="move" name="dotAbove"/>
    </contour>
    <contour>
      <point x="252.492" y="-76.6143" type="move" name="dotBelow"/>
    </contour>
    <contour>
      <point x="167.969" y="-94.1553" type="move" name="markBelow"/>
    </contour>
    <contour>
      <point x="230.749" y="400.7" type="move" name="hamzaAbove"/>
    </contour>
  </outline>
</glyph>
<glyph name="arQaf.isol" format="1">
  <advance width="445"/>
  <unicode hex="066F"/>
  <outline>
    <contour>
      <point x="317.871" y="198.242" type="curve" smooth="yes"/>
      <point x="324.219" y="198.242" type="line"/>
      <point x="324.219" y="216.81"/>
      <point x="306.006" y="249.023"/>
      <point x="285.156" y="249.023" type="curve" smooth="yes"/>
      <point x="272.949" y="249.023"/>
      <point x="264.16" y="234.863"/>
      <point x="264.16" y="223.145" type="curve" smooth="yes"/>
      <point x="264.16" y="205.266"/>
      <point x="304.3" y="198.242"/>
    </contour>
    <contour>
      <point x="20.9961" y="-18.0664" type="curve" smooth="yes"/>
      <point x="20.9961" y="73.5371"/>
      <point x="64.3149" y="161.8"/>
      <point x="105.957" y="241.211" type="curve"/>
      <point x="115.234" y="246.094" type="line"/>
      <point x="124.023" y="247.07" type="line"/>
      <point x="121.094" y="234.863"/>
      <point x="117.187" y="222.168"/>
      <point x="111.816" y="208.008" type="curve"/>
      <point x="103.027" y="179.199"/>
      <point x="95.2148" y="148.926"/>
      <point x="87.8906" y="119.141" type="curve" smooth="yes"/>
      <point x="84.9609" y="104.004"/>
      <point x="83.0078" y="89.8438"/>
      <point x="83.0078" y="78.125" type="curve" smooth="yes"/>
      <point x="83.0078" y="19.0061"/>
      <point x="140.847" y="-16.1133"/>
      <point x="194.824" y="-16.1133" type="curve" smooth="yes"/>
      <point x="265.262" y="-16.1133"/>
      <point x="318.703" y="-2.0269"/>
      <point x="365.234" y="54.1992" type="curve" smooth="yes"/>
      <point x="366.211" y="56.1523" type="line"/>
      <point x="366.211" y="60.0586" type="line" smooth="yes"/>
      <point x="366.211" y="62.9883"/>
      <point x="365.234" y="75.1953"/>
      <point x="362.793" y="86.9141" type="curve" smooth="yes"/>
      <point x="361.816" y="91.7969"/>
      <point x="360.84" y="98.1445"/>
      <point x="359.863" y="103.027" type="curve" smooth="yes"/>
      <point x="358.887" y="107.91"/>
      <point x="357.91" y="109.863"/>
      <point x="356.933" y="110.84" type="curve"/>
      <point x="352.051" y="126.953" type="line"/>
      <point x="347.168" y="120.117"/>
      <point x="342.773" y="113.77"/>
      <point x="337.89" y="106.934" type="curve" smooth="yes"/>
      <point x="325.307" y="86.6597"/>
      <point x="305.076" y="66.8946"/>
      <point x="279.785" y="66.8946" type="curve" smooth="yes"/>
      <point x="238.215" y="66.8946"/>
      <point x="196.777" y="104.592"/>
      <point x="196.777" y="146.973" type="curve" smooth="yes"/>
      <point x="196.777" y="219.681"/>
      <point x="235.273" y="312.03"/>
      <point x="280.762" y="368.164" type="curve" smooth="yes"/>
      <point x="290.039" y="378.906"/>
      <point x="302.246" y="390.137"/>
      <point x="316.894" y="390.137" type="curve" smooth="yes"/>
      <point x="333.984" y="390.137"/>
      <point x="349.121" y="376.953"/>
      <point x="357.91" y="363.77" type="curve" smooth="yes"/>
      <point x="403.176" y="303.094"/>
      <point x="417.969" y="218.287"/>
      <point x="417.969" y="144.043" type="curve" smooth="yes"/>
      <point x="417.969" y="78.542"/>
      <point x="392.051" y="-14.6869"/>
      <point x="352.051" y="-67.5123" type="curve"/>
      <point x="312.559" y="-119.068"/>
      <point x="231.069" y="-149.902"/>
      <point x="170.972" y="-149.902" type="curve" smooth="yes"/>
      <point x="85.6274" y="-149.902"/>
      <point x="20.9961" y="-101.714"/>
    </contour>
    <contour>
      <point x="151.456" y="390.137" type="move" name="markAbove"/>
    </contour>
    <contour>
      <point x="310.43" y="505.215" type="move" name="dotAbove"/>
    </contour>
    <contour>
      <point x="177.687" y="-203.297" type="move" name="markBelow"/>
    </contour>
    <contour>
      <point x="226.508" y="-243.306" type="move" name="dotBelow"/>
    </contour>
  </outline>
</glyph>
<glyph name="diLonga.above" format="1">
  <advance width="0"/>
  <unicode hex="0670"/>
  <outline>
    <contour>
      <point x="12.6953" y="502.754" type="curve" smooth="yes"/>
      <point x="12.6953" y="542.793"/>
      <point x="-8.30066" y="608.711"/>
      <point x="-33.203" y="655.586" type="curve"/>
      <point x="-0.976442" y="715.645" type="line"/>
      <point x="26.8556" y="667.793"/>
      <point x="45.8986" y="597.969"/>
      <point x="45.8986" y="549.629" type="curve" smooth="yes"/>
      <point x="45.8986" y="523.755"/>
      <point x="39.4638" y="488.37"/>
      <point x="23.9259" y="466.621" type="curve" smooth="yes"/>
      <point x="19.8323" y="460.891"/>
      <point x="17.09" y="457.832"/>
      <point x="15.1369" y="457.832" type="curve" smooth="yes"/>
      <point x="11.7189" y="457.832"/>
      <point x="9.76583" y="459.785"/>
      <point x="9.76583" y="463.691" type="curve" smooth="yes"/>
      <point x="9.76583" y="465.644"/>
      <point x="9.90233" y="470.018"/>
      <point x="10.7424" y="475.898" type="curve" smooth="yes"/>
      <point x="11.8559" y="483.693"/>
      <point x="12.6955" y="492.988"/>
    </contour>
    <contour>
      <point x="0.3915" y="438.765" type="move" name="_hamzaAbove"/>
    </contour>
  </outline>
</glyph>
<glyph name="arFeh.isol" format="1">
  <advance width="536.001"/>
  <unicode hex="06A1"/>
  <outline>
    <contour>
      <point x="520.02" y="242.188" type="curve" smooth="yes"/>
      <point x="520.02" y="154.283"/>
      <point x="513.345" y="86.2573"/>
      <point x="496.094" y="0" type="curve"/>
      <point x="134.766" y="0" type="line" smooth="yes"/>
      <point x="36.8321" y="0"/>
      <point x="17.0898" y="77.3125"/>
      <point x="17.0898" y="159.18" type="curve" smooth="yes"/>
      <point x="17.0898" y="228.893"/>
      <point x="32.4339" y="329.478"/>
      <point x="73.2422" y="387.207" type="curve"/>
      <point x="86.9141" y="388.184" type="line"/>
      <point x="80.0781" y="348.145"/>
      <point x="75.1953" y="309.082"/>
      <point x="75.1953" y="269.043" type="curve" smooth="yes"/>
      <point x="75.1953" y="220.384"/>
      <point x="107.737" y="180.176"/>
      <point x="158.203" y="180.176" type="curve" smooth="yes"/>
      <point x="444.824" y="180.176" type="line"/>
      <point x="449.219" y="182.129" type="line"/>
      <point x="450.195" y="192.871" type="line"/>
      <point x="450.195" y="210.179"/>
      <point x="440.331" y="242.151"/>
      <point x="431.152" y="256.836" type="curve"/>
      <point x="417.969" y="240.234"/>
      <point x="407.227" y="226.074"/>
      <point x="395.02" y="215.82" type="curve" smooth="yes"/>
      <point x="382.813" y="206.055"/>
      <point x="368.164" y="200.195"/>
      <point x="344.238" y="200.195" type="curve" smooth="yes"/>
      <point x="297.616" y="200.195"/>
      <point x="256.836" y="237.781"/>
      <point x="256.836" y="285.156" type="curve" smooth="yes"/>
      <point x="256.836" y="339.901"/>
      <point x="332.158" y="491.211"/>
      <point x="401.856" y="491.211" type="curve" smooth="yes"/>
      <point x="427.246" y="491.211"/>
      <point x="449.219" y="470.215"/>
      <point x="465.82" y="439.941" type="curve"/>
      <point x="494.712" y="389.586"/>
      <point x="520.02" y="300.727"/>
    </contour>
    <contour>
      <point x="381.836" y="325.195" type="curve" smooth="yes"/>
      <point x="389.16" y="325.195"/>
      <point x="396.973" y="328.125"/>
      <point x="403.809" y="332.031" type="curve"/>
      <point x="400.879" y="340.82"/>
      <point x="395.996" y="353.027"/>
      <point x="389.16" y="361.816" type="curve"/>
      <point x="380.859" y="371.094"/>
      <point x="372.07" y="377.93"/>
      <point x="359.863" y="377.93" type="curve" smooth="yes"/>
      <point x="353.027" y="377.93"/>
      <point x="345.215" y="375"/>
      <point x="337.891" y="371.094" type="curve" smooth="yes"/>
      <point x="330.078" y="366.211"/>
      <point x="324.219" y="359.863"/>
      <point x="324.219" y="353.027" type="curve"/>
      <point x="336.914" y="330.078"/>
      <point x="356.934" y="325.195"/>
    </contour>
    <contour>
      <point x="143.994" y="491.001" type="move" name="markAbove"/>
    </contour>
    <contour>
      <point x="397.311" y="620.078" type="move" name="dotAbove"/>
    </contour>
    <contour>
      <point x="142.323" y="-82.4614" type="move" name="markBelow"/>
    </contour>
    <contour>
      <point x="389.568" y="-124.226" type="move" name="dotBelow"/>
    </contour>
  </outline>
</glyph>
<glyph name="arKeheh.isol" format="1">
  <advance width="570"/>
  <unicode hex="06A9"/>
  <outline>
    <contour>
      <point x="375" y="555.176" type="line"/>
      <point x="494.141" y="591.797" type="line"/>
      <point x="561.035" y="611.816" type="line"/>
      <point x="561.035" y="588.867"/>
      <point x="539.062" y="497.07"/>
      <point x="535.156" y="490.234" type="curve"/>
      <point x="416.992" y="444.824" type="line"/>
      <point x="360.84" y="421.875" type="line"/>
      <point x="466.797" y="307.129" type="line"/>
      <point x="500" y="268.066" type="line"/>
      <point x="521.973" y="238.77"/>
      <point x="538.086" y="210.938"/>
      <point x="547.852" y="185.059" type="curve"/>
      <point x="519.043" y="0" type="line"/>
      <point x="138.184" y="0" type="line" smooth="yes"/>
      <point x="83.0078" y="0"/>
      <point x="46.875" y="25.8789"/>
      <point x="27.832" y="77.1484" type="curve"/>
      <point x="22.9492" y="98.1445"/>
      <point x="20.0195" y="125.977"/>
      <point x="20.0195" y="159.18" type="curve" smooth="yes"/>
      <point x="20.0195" y="219.782"/>
      <point x="29.8712" y="282.272"/>
      <point x="52.2461" y="338.867" type="curve" smooth="yes"/>
      <point x="60.0586" y="358.887"/>
      <point x="66.8945" y="374.023"/>
      <point x="76.1719" y="387.207" type="curve"/>
      <point x="89.8437" y="388.184" type="line"/>
      <point x="81.0547" y="329.102" type="line"/>
      <point x="79.1016" y="304.199" type="line"/>
      <point x="78.125" y="280.762" type="line"/>
      <point x="78.125" y="269.043" type="line"/>
      <point x="79.1016" y="256.836" type="line" smooth="yes"/>
      <point x="81.0547" y="236.816"/>
      <point x="88.8672" y="219.238"/>
      <point x="104.004" y="203.125" type="curve"/>
      <point x="119.141" y="189.941"/>
      <point x="138.184" y="183.106"/>
      <point x="161.133" y="180.176" type="curve"/>
      <point x="448.242" y="180.176" type="line"/>
      <point x="347.168" y="276.855" type="line"/>
      <point x="340.82" y="267.09" type="line"/>
      <point x="333.008" y="257.813" type="line"/>
      <point x="299.805" y="303.223" type="line"/>
      <point x="276.855" y="335.938"/>
      <point x="264.16" y="355.957"/>
      <point x="261.23" y="365.234" type="curve"/>
      <point x="277.832" y="440.918" type="line"/>
      <point x="290.039" y="488.77"/>
      <point x="298.828" y="519.043"/>
      <point x="305.176" y="532.227" type="curve"/>
    </contour>
    <contour>
      <point x="168.756" y="406.059" type="move" name="markAbove"/>
    </contour>
    <contour>
      <point x="435.093" y="557.49" type="move" name="gafAbove"/>
    </contour>
    <contour>
      <point x="209.731" y="-43.7752" type="move" name="markBelow"/>
    </contour>
    <contour>
      <point x="426.631" y="682.192" type="move" name="dotAbove"/>
    </contour>
    <contour>
      <point x="303.261" y="-91.8765" type="move" name="dotBelow"/>
    </contour>
  </outline>
</glyph>
<glyph name="arGaf.isol" format="1">
  <advance width="570"/>
  <unicode hex="06AF"/>
  <outline>
    <contour>
      <point x="381.836" y="664.062" type="line"/>
      <point x="493.164" y="698.242" type="line"/>
      <point x="567.871" y="722.168" type="line"/>
      <point x="568.848" y="712.891" type="line"/>
      <point x="568.848" y="691.895"/>
      <point x="556.152" y="654.785"/>
      <point x="546.875" y="647.949" type="curve"/>
      <point x="415.039" y="606.934" type="line" smooth="yes"/>
      <point x="337.891" y="583.008"/>
      <point x="295.898" y="568.848"/>
      <point x="287.109" y="564.941" type="curve"/>
      <point x="287.109" y="571.777"/>
      <point x="289.063" y="582.031"/>
      <point x="293.945" y="597.168" type="curve"/>
      <point x="309.082" y="640.137" type="line"/>
    </contour>
    <contour>
      <point x="375" y="555.176" type="line"/>
      <point x="494.141" y="591.797" type="line"/>
      <point x="561.035" y="611.816" type="line"/>
      <point x="561.035" y="588.867"/>
      <point x="539.062" y="497.07"/>
      <point x="535.156" y="490.234" type="curve"/>
      <point x="416.992" y="444.824" type="line"/>
      <point x="360.84" y="421.875" type="line"/>
      <point x="466.797" y="307.129" type="line"/>
      <point x="500" y="268.066" type="line"/>
      <point x="521.973" y="238.77"/>
      <point x="538.086" y="210.938"/>
      <point x="547.852" y="185.059" type="curve"/>
      <point x="519.043" y="0" type="line"/>
      <point x="138.184" y="0" type="line" smooth="yes"/>
      <point x="83.0078" y="0"/>
      <point x="46.875" y="25.8789"/>
      <point x="27.832" y="77.1484" type="curve"/>
      <point x="22.9492" y="98.1445"/>
      <point x="20.0195" y="125.977"/>
      <point x="20.0195" y="159.18" type="curve" smooth="yes"/>
      <point x="20.0195" y="219.782"/>
      <point x="29.8712" y="282.272"/>
      <point x="52.2461" y="338.867" type="curve" smooth="yes"/>
      <point x="60.0586" y="358.887"/>
      <point x="66.8945" y="374.023"/>
      <point x="76.1719" y="387.207" type="curve"/>
      <point x="89.8437" y="388.184" type="line"/>
      <point x="81.0547" y="329.102" type="line"/>
      <point x="79.1016" y="304.199" type="line"/>
      <point x="78.125" y="280.762" type="line"/>
      <point x="78.125" y="269.043" type="line"/>
      <point x="79.1016" y="256.836" type="line" smooth="yes"/>
      <point x="81.0547" y="236.816"/>
      <point x="88.8672" y="219.238"/>
      <point x="104.004" y="203.125" type="curve"/>
      <point x="119.141" y="189.941"/>
      <point x="138.184" y="183.106"/>
      <point x="161.133" y="180.176" type="curve"/>
      <point x="448.242" y="180.176" type="line"/>
      <point x="347.168" y="276.855" type="line"/>
      <point x="340.82" y="267.09" type="line"/>
      <point x="333.008" y="257.813" type="line"/>
      <point x="299.805" y="303.223" type="line"/>
      <point x="276.855" y="335.938"/>
      <point x="264.16" y="355.957"/>
      <point x="261.23" y="365.234" type="curve"/>
      <point x="277.832" y="440.918" type="line"/>
      <point x="290.039" y="488.77"/>
      <point x="298.828" y="519.043"/>
      <point x="305.176" y="532.227" type="curve"/>
    </contour>
    <contour>
      <point x="161" y="431.241" type="move" name="markAbove"/>
    </contour>
    <contour>
      <point x="430.823" y="572.358" type="move" name="gafAbove"/>
    </contour>
    <contour>
      <point x="214.784" y="-48.2144" type="move" name="markBelow"/>
    </contour>
    <contour>
      <point x="413.583" y="797.1" type="move" name="dotAbove"/>
    </contour>
    <contour>
      <point x="297.478" y="-111.696" type="move" name="dotBelow"/>
    </contour>
  </outline>
</glyph>
<glyph name="arNoon.isol" format="1">
  <advance width="420"/>
  <unicode hex="06BA"/>
  <outline>
    <contour>
      <point x="387.207" y="15.1367" type="curve"/>
      <point x="382.812" y="-6.83594"/>
      <point x="378.906" y="-29.7852"/>
      <point x="371.094" y="-46.875" type="curve"/>
      <point x="370.117" y="-55.1758"/>
      <point x="366.211" y="-62.9883"/>
      <point x="361.816" y="-73.2422" type="curve"/>
      <point x="358.887" y="-78.125"/>
      <point x="356.934" y="-83.0078"/>
      <point x="354.98" y="-86.9141" type="curve" smooth="yes"/>
      <point x="352.051" y="-91.7969"/>
      <point x="350.098" y="-96.1914"/>
      <point x="349.121" y="-100.098" type="curve"/>
      <point x="322.355" y="-166.518"/>
      <point x="226.955" y="-191.895"/>
      <point x="162.109" y="-191.895" type="curve" smooth="yes"/>
      <point x="81.8081" y="-191.895"/>
      <point x="20.9961" y="-143.707"/>
      <point x="20.9961" y="-60.0586" type="curve" smooth="yes"/>
      <point x="20.9961" y="41.0156"/>
      <point x="57.1289" y="121.094"/>
      <point x="124.023" y="193.848" type="curve"/>
      <point x="128.906" y="194.824" type="line"/>
      <point x="136.23" y="192.871" type="line"/>
      <point x="118.734" y="165.245"/>
      <point x="89.8437" y="86"/>
      <point x="89.8437" y="54.2002" type="curve" smooth="yes"/>
      <point x="89.8437" y="-19.1634"/>
      <point x="158.63" y="-29.7842"/>
      <point x="216.797" y="-29.7842" type="curve" smooth="yes"/>
      <point x="259.766" y="-29.7842"/>
      <point x="294.922" y="-21.9717"/>
      <point x="327.148" y="6.83692" type="curve"/>
      <point x="328.125" y="11.2314" type="line"/>
      <point x="328.125" y="20.0205"/>
      <point x="323.242" y="39.0635"/>
      <point x="314.941" y="62.9893" type="curve" smooth="yes"/>
      <point x="307.129" y="85.9385"/>
      <point x="295.898" y="111.817"/>
      <point x="287.109" y="136.231" type="curve"/>
      <point x="277.832" y="159.181"/>
      <point x="269.043" y="179.2"/>
      <point x="264.16" y="189.942" type="curve"/>
      <point x="267.09" y="194.825"/>
      <point x="271.973" y="204.103"/>
      <point x="276.855" y="214.845" type="curve" smooth="yes"/>
      <point x="287.109" y="236.817"/>
      <point x="299.805" y="262.208"/>
      <point x="312.988" y="283.204" type="curve" smooth="yes"/>
      <point x="318.848" y="292.97"/>
      <point x="325.195" y="299.806"/>
      <point x="331.055" y="305.177" type="curve"/>
      <point x="333.984" y="297.853"/>
      <point x="336.914" y="291.017"/>
      <point x="341.797" y="284.181" type="curve" smooth="yes"/>
      <point x="347.168" y="276.856"/>
      <point x="350.098" y="270.021"/>
      <point x="353.027" y="263.185" type="curve"/>
      <point x="371.957" y="202.19"/>
      <point x="390.137" y="142.714"/>
      <point x="390.137" y="78.126" type="curve" smooth="yes"/>
      <point x="390.137" y="59.083"/>
      <point x="390.137" y="37.1104"/>
    </contour>
    <contour>
      <point x="144.083" y="299.613" type="move" name="markAbove"/>
    </contour>
    <contour>
      <point x="202.087" y="482.283" type="move" name="dotAbove"/>
    </contour>
    <contour>
      <point x="190.403" y="-205.448" type="move" name="markBelow"/>
    </contour>
    <contour>
      <point x="299.656" y="-183.815" type="move" name="ringBelow"/>
    </contour>
    <contour>
      <point x="210" y="-268.692" type="move" name="dotBelow"/>
    </contour>
  </outline>
</glyph>
<glyph name="arHehDo.isol" format="1">
  <advance width="517.998"/>
  <unicode hex="06BE"/>
  <outline>
    <contour>
      <point x="483.887" y="180.176" type="curve" smooth="yes"/>
      <point x="483.887" y="108.887"/>
      <point x="456.055" y="0"/>
      <point x="404.785" y="0" type="curve" smooth="yes"/>
      <point x="116.211" y="0" type="line"/>
      <point x="54.8374" y="16.5236"/>
      <point x="29.7852" y="89.936"/>
      <point x="29.7852" y="146.973" type="curve" smooth="yes"/>
      <point x="29.7852" y="165.039"/>
      <point x="32.2266" y="182.129"/>
      <point x="36.1328" y="199.219" type="curve"/>
      <point x="41.9922" y="199.219" type="line"/>
      <point x="46.875" y="196.777" type="line"/>
      <point x="47.8516" y="192.871"/>
      <point x="55.1758" y="187.012"/>
      <point x="66.8946" y="179.199" type="curve"/>
      <point x="83.0078" y="173.828" type="line"/>
      <point x="101.074" y="171.875" type="line"/>
      <point x="111.816" y="172.852" type="line"/>
      <point x="126.606" y="172.852"/>
      <point x="138.947" y="173.519"/>
      <point x="152.832" y="179.199" type="curve"/>
      <point x="152.832" y="213.867"/>
      <point x="164.063" y="254.883"/>
      <point x="185.059" y="302.246" type="curve"/>
      <point x="202.148" y="341.797"/>
      <point x="214.844" y="365.234"/>
      <point x="224.121" y="372.07" type="curve"/>
      <point x="225.098" y="393.066" type="line"/>
      <point x="225.098" y="402.832" type="line"/>
      <point x="227.051" y="415.039" type="line"/>
      <point x="232.91" y="437.988" type="line"/>
      <point x="250" y="482.91" type="line"/>
      <point x="256.836" y="498.047" type="line"/>
      <point x="312.988" y="450.195" type="line" smooth="yes"/>
      <point x="360.84" y="409.18"/>
      <point x="414.062" y="358.887"/>
      <point x="454.102" y="291.992" type="curve"/>
      <point x="474.121" y="253.906"/>
      <point x="483.887" y="216.797"/>
    </contour>
    <contour>
      <point x="207.031" y="221.191" type="curve" smooth="yes"/>
      <point x="207.031" y="205.078"/>
      <point x="244.141" y="187.012"/>
      <point x="254.883" y="187.012" type="curve"/>
      <point x="262.207" y="191.895" type="line"/>
      <point x="277.832" y="208.008" type="line" smooth="yes"/>
      <point x="291.016" y="221.191"/>
      <point x="297.852" y="230.957"/>
      <point x="297.852" y="235.84" type="curve" smooth="yes"/>
      <point x="297.852" y="245.117"/>
      <point x="294.922" y="254.883"/>
      <point x="290.039" y="264.16" type="curve"/>
      <point x="280.762" y="275.879"/>
      <point x="270.02" y="282.227"/>
      <point x="256.836" y="282.227" type="curve"/>
      <point x="225.098" y="253.906" type="line"/>
      <point x="212.891" y="236.816"/>
      <point x="207.031" y="226.074"/>
    </contour>
    <contour>
      <point x="399.902" y="170.898" type="line"/>
      <point x="414.062" y="170.898" type="line"/>
      <point x="419.922" y="171.875" type="line"/>
      <point x="416.992" y="192.871"/>
      <point x="392.09" y="238.77"/>
      <point x="375" y="238.77" type="curve" smooth="yes"/>
      <point x="372.07" y="238.77"/>
      <point x="370.117" y="237.793"/>
      <point x="369.141" y="236.816" type="curve" smooth="yes"/>
      <point x="358.887" y="229.98"/>
      <point x="354.004" y="220.215"/>
      <point x="354.004" y="207.031" type="curve" smooth="yes"/>
      <point x="354.004" y="195.801" type="line"/>
      <point x="356.934" y="186.035" type="line"/>
      <point x="373.047" y="174.805" type="line"/>
      <point x="386.23" y="171.875" type="line"/>
    </contour>
    <contour>
      <point x="253.132" y="497.241" type="move" name="markAbove"/>
    </contour>
    <contour>
      <point x="243.333" y="-66.4312" type="move" name="markBelow"/>
    </contour>
    <contour>
      <point x="251.399" y="427.544" type="move" name="dotAbove"/>
    </contour>
    <contour>
      <point x="250.833" y="-74.7642" type="move" name="dotBelow"/>
    </contour>
  </outline>
</glyph>
<glyph name="maFullStop" format="1">
  <advance width="390"/>
  <unicode hex="06D4"/>
  <outline>
    <contour>
      <point x="142" y="191" type="curve" smooth="yes"/>
      <point x="128.322" y="191"/>
      <point x="47" y="105.942"/>
      <point x="47" y="92" type="curve" smooth="yes"/>
      <point x="47" y="78.1274"/>
      <point x="129.259" y="-6"/>
      <point x="143" y="-6" type="curve" smooth="yes"/>
      <point x="159.588" y="-6"/>
      <point x="244" y="76.5015"/>
      <point x="244" y="93" type="curve" smooth="yes"/>
      <point x="244" y="102.457"/>
      <point x="151.934" y="191"/>
    </contour>
  </outline>
</glyph>
<glyph name="dig4Farsi" format="1">
  <advance width="518.999"/>
  <unicode hex="06F4"/>
  <outline>
    <contour>
      <point x="211.914" y="7.8125" type="line"/>
      <point x="199.219" y="205.078"/>
      <point x="150.879" y="344.238"/>
      <point x="67.8711" y="425.781" type="curve"/>
      <point x="116.211" y="568.848" type="line"/>
      <point x="152.832" y="523.926"/>
      <point x="187.012" y="479.98"/>
      <point x="228.027" y="453.125" type="curve"/>
      <point x="243.164" y="540.039"/>
      <point x="273.926" y="583.008"/>
      <point x="323.242" y="583.008" type="curve" smooth="yes"/>
      <point x="357.91" y="583.008"/>
      <point x="393.066" y="562.012"/>
      <point x="429.199" y="519.043" type="curve"/>
      <point x="421.875" y="505.859" type="line"/>
      <point x="395.02" y="516.113"/>
      <point x="374.023" y="520.996"/>
      <point x="356.934" y="520.996" type="curve" smooth="yes"/>
      <point x="308.105" y="520.996"/>
      <point x="273.926" y="495.117"/>
      <point x="253.906" y="441.895" type="curve"/>
      <point x="278.809" y="432.129"/>
      <point x="300.781" y="427.246"/>
      <point x="319.824" y="427.246" type="curve" smooth="yes"/>
      <point x="368.164" y="427.246"/>
      <point x="407.227" y="443.848"/>
      <point x="437.988" y="479.004" type="curve"/>
      <point x="453.125" y="473.145" type="line"/>
      <point x="439.941" y="346.191"/>
      <point x="386.23" y="283.203"/>
      <point x="292.969" y="283.203" type="curve" smooth="yes"/>
      <point x="276.855" y="283.203"/>
      <point x="263.184" y="284.18"/>
      <point x="251.953" y="287.109" type="curve"/>
      <point x="256.836" y="262.207"/>
      <point x="259.766" y="236.816"/>
      <point x="259.766" y="210.938" type="curve" smooth="yes"/>
      <point x="259.766" y="154.785"/>
      <point x="241.211" y="64.9415"/>
      <point x="229.004" y="7.81255" type="curve"/>
    </contour>
  </outline>
</glyph>
<glyph name="dig5Farsi" format="1">
  <advance width="518.999"/>
  <unicode hex="06F5"/>
  <outline>
    <contour>
      <point x="75.1953" y="129.883" type="curve" smooth="yes"/>
      <point x="75.1953" y="203.125"/>
      <point x="126.953" y="297.852"/>
      <point x="229.98" y="416.992" type="curve"/>
      <point x="204.102" y="441.895" type="line"/>
      <point x="248.047" y="568.848" type="line"/>
      <point x="342.773" y="493.164"/>
      <point x="442.871" y="330.078"/>
      <point x="442.871" y="208.984" type="curve" smooth="yes"/>
      <point x="442.871" y="124.023"/>
      <point x="392.09" y="36.1328"/>
      <point x="327.148" y="36.1328" type="curve" smooth="yes"/>
      <point x="310.059" y="36.1328"/>
      <point x="293.945" y="42.9688"/>
      <point x="278.809" y="56.1523" type="curve"/>
      <point x="247.07" y="32.2266"/>
      <point x="216.797" y="20.0195"/>
      <point x="187.988" y="20.0195" type="curve" smooth="yes"/>
      <point x="125" y="20.0195"/>
      <point x="75.1953" y="68.8477"/>
    </contour>
    <contour>
      <point x="392.09" y="195.801" type="curve" smooth="yes"/>
      <point x="392.09" y="234.863"/>
      <point x="345.215" y="300.781"/>
      <point x="251.953" y="395.02" type="curve"/>
      <point x="193.848" y="324.219"/>
      <point x="165.039" y="264.16"/>
      <point x="165.039" y="216.797" type="curve" smooth="yes"/>
      <point x="165.039" y="181.152"/>
      <point x="188.965" y="154.785"/>
      <point x="224.121" y="154.785" type="curve" smooth="yes"/>
      <point x="250" y="154.785"/>
      <point x="275.879" y="168.945"/>
      <point x="302.246" y="196.777" type="curve"/>
      <point x="317.871" y="177.246"/>
      <point x="335.938" y="166.992"/>
      <point x="355.957" y="166.992" type="curve" smooth="yes"/>
      <point x="379.883" y="166.992"/>
      <point x="392.09" y="177.246"/>
    </contour>
  </outline>
</glyph>
<glyph name="dig6Farsi" format="1">
  <advance width="517.998"/>
  <unicode hex="06F6"/>
  <outline>
    <contour>
      <point x="416.016" y="305.176" type="line"/>
      <point x="295.898" y="241.211"/>
      <point x="244.141" y="184.082"/>
      <point x="201.172" y="7.8125" type="curve"/>
      <point x="182.129" y="7.8125" type="line"/>
      <point x="182.129" y="123.047"/>
      <point x="188.965" y="185.059"/>
      <point x="235.84" y="266.113" type="curve"/>
      <point x="186.325" y="266.113"/>
      <point x="102.051" y="277.307"/>
      <point x="102.051" y="340.82" type="curve" smooth="yes"/>
      <point x="102.051" y="428.223"/>
      <point x="215.82" y="560.059"/>
      <point x="287.109" y="560.059" type="curve" smooth="yes"/>
      <point x="328.125" y="560.059"/>
      <point x="369.141" y="529.785"/>
      <point x="410.156" y="471.191" type="curve"/>
      <point x="398.926" y="458.984" type="line"/>
      <point x="369.141" y="473.145"/>
      <point x="338.867" y="479.98"/>
      <point x="310.059" y="479.98" type="curve" smooth="yes"/>
      <point x="267.09" y="479.98"/>
      <point x="233.887" y="474.121"/>
      <point x="209.961" y="461.914" type="curve" smooth="yes"/>
      <point x="189.941" y="452.148"/>
      <point x="180.176" y="439.941"/>
      <point x="180.176" y="425.781" type="curve" smooth="yes"/>
      <point x="180.176" y="395.02"/>
      <point x="208.984" y="379.883"/>
      <point x="266.113" y="379.883" type="curve" smooth="yes"/>
      <point x="318.848" y="379.883"/>
      <point x="377.93" y="396.973"/>
      <point x="442.871" y="432.129" type="curve"/>
    </contour>
  </outline>
</glyph>
<glyph name="wsBase" format="1">
  <advance width="585"/>
  <unicode hex="25CC"/>
  <outline>
    <contour>
      <point x="291.992" y="423.828" type="curve" smooth="yes"/>
      <point x="272.949" y="423.828"/>
      <point x="257.812" y="437.988"/>
      <point x="257.812" y="461.914" type="curve" smooth="yes"/>
      <point x="257.812" y="484.863"/>
      <point x="272.949" y="498.047"/>
      <point x="291.992" y="498.047" type="curve" smooth="yes"/>
      <point x="312.988" y="498.047"/>
      <point x="328.125" y="484.863"/>
      <point x="328.125" y="461.914" type="curve" smooth="yes"/>
      <point x="328.125" y="437.988"/>
      <point x="312.988" y="423.828"/>
    </contour>
    <contour>
      <point x="186.035" y="397.949" type="curve" smooth="yes"/>
      <point x="166.992" y="397.949"/>
      <point x="151.855" y="412.109"/>
      <point x="151.855" y="434.082" type="curve" smooth="yes"/>
      <point x="151.855" y="458.984"/>
      <point x="166.992" y="471.191"/>
      <point x="186.035" y="471.191" type="curve" smooth="yes"/>
      <point x="206.055" y="471.191"/>
      <point x="222.168" y="458.984"/>
      <point x="222.168" y="434.082" type="curve" smooth="yes"/>
      <point x="222.168" y="412.109"/>
      <point x="207.031" y="397.949"/>
    </contour>
    <contour>
      <point x="397.949" y="396.973" type="curve" smooth="yes"/>
      <point x="379.883" y="396.973"/>
      <point x="363.77" y="412.109"/>
      <point x="363.77" y="434.082" type="curve" smooth="yes"/>
      <point x="363.77" y="458.008"/>
      <point x="379.883" y="471.191"/>
      <point x="397.949" y="471.191" type="curve" smooth="yes"/>
      <point x="417.969" y="471.191"/>
      <point x="434.082" y="458.008"/>
      <point x="434.082" y="434.082" type="curve" smooth="yes"/>
      <point x="434.082" y="412.109"/>
      <point x="419.922" y="396.973"/>
    </contour>
    <contour>
      <point x="107.91" y="315.918" type="curve" smooth="yes"/>
      <point x="89.8438" y="315.918"/>
      <point x="74.2188" y="330.078"/>
      <point x="74.2188" y="354.004" type="curve" smooth="yes"/>
      <point x="74.2188" y="377.93"/>
      <point x="89.8438" y="390.137"/>
      <point x="107.91" y="390.137" type="curve" smooth="yes"/>
      <point x="128.906" y="390.137"/>
      <point x="144.043" y="377.93"/>
      <point x="144.043" y="354.004" type="curve" smooth="yes"/>
      <point x="144.043" y="330.078"/>
      <point x="129.883" y="315.918"/>
    </contour>
    <contour>
      <point x="477.051" y="315.918" type="curve" smooth="yes"/>
      <point x="458.008" y="315.918"/>
      <point x="441.895" y="329.102"/>
      <point x="441.895" y="353.027" type="curve" smooth="yes"/>
      <point x="441.895" y="375.977"/>
      <point x="458.008" y="389.16"/>
      <point x="477.051" y="389.16" type="curve" smooth="yes"/>
      <point x="497.07" y="389.16"/>
      <point x="512.207" y="375.977"/>
      <point x="512.207" y="353.027" type="curve" smooth="yes"/>
      <point x="512.207" y="329.102"/>
      <point x="499.023" y="315.918"/>
    </contour>
    <contour>
      <point x="80.0781" y="206.055" type="curve" smooth="yes"/>
      <point x="62.0117" y="206.055"/>
      <point x="45.8984" y="220.215"/>
      <point x="45.8984" y="243.164" type="curve" smooth="yes"/>
      <point x="45.8984" y="267.09"/>
      <point x="62.0117" y="278.809"/>
      <point x="80.0781" y="278.809" type="curve" smooth="yes"/>
      <point x="101.074" y="278.809"/>
      <point x="117.188" y="267.09"/>
      <point x="117.188" y="243.164" type="curve" smooth="yes"/>
      <point x="117.188" y="220.215"/>
      <point x="102.051" y="206.055"/>
    </contour>
    <contour>
      <point x="503.906" y="206.055" type="curve" smooth="yes"/>
      <point x="483.887" y="206.055"/>
      <point x="469.238" y="220.215"/>
      <point x="469.238" y="243.164" type="curve" smooth="yes"/>
      <point x="469.238" y="267.09"/>
      <point x="483.887" y="278.809"/>
      <point x="503.906" y="278.809" type="curve" smooth="yes"/>
      <point x="522.949" y="278.809"/>
      <point x="540.039" y="267.09"/>
      <point x="540.039" y="243.164" type="curve" smooth="yes"/>
      <point x="540.039" y="220.215"/>
      <point x="524.902" y="206.055"/>
    </contour>
    <contour>
      <point x="107.91" y="97.168" type="curve" smooth="yes"/>
      <point x="89.8438" y="97.168"/>
      <point x="74.2188" y="110.84"/>
      <point x="74.2188" y="132.812" type="curve" smooth="yes"/>
      <point x="74.2188" y="157.227"/>
      <point x="89.8438" y="170.898"/>
      <point x="107.91" y="170.898" type="curve" smooth="yes"/>
      <point x="128.906" y="170.898"/>
      <point x="144.043" y="157.227"/>
      <point x="144.043" y="132.812" type="curve" smooth="yes"/>
      <point x="144.043" y="110.84"/>
      <point x="129.883" y="97.168"/>
    </contour>
    <contour>
      <point x="477.051" y="97.168" type="curve" smooth="yes"/>
      <point x="458.008" y="97.168"/>
      <point x="441.895" y="110.84"/>
      <point x="441.895" y="132.812" type="curve" smooth="yes"/>
      <point x="441.895" y="157.227"/>
      <point x="458.008" y="170.898"/>
      <point x="477.051" y="170.898" type="curve" smooth="yes"/>
      <point x="497.07" y="170.898"/>
      <point x="512.207" y="157.227"/>
      <point x="512.207" y="132.812" type="curve" smooth="yes"/>
      <point x="512.207" y="110.84"/>
      <point x="499.023" y="97.168"/>
    </contour>
    <contour>
      <point x="186.035" y="15.1367" type="curve" smooth="yes"/>
      <point x="166.992" y="15.1367"/>
      <point x="151.855" y="27.832"/>
      <point x="151.855" y="53.2227" type="curve" smooth="yes"/>
      <point x="151.855" y="76.1719"/>
      <point x="166.992" y="87.8906"/>
      <point x="186.035" y="87.8906" type="curve" smooth="yes"/>
      <point x="206.055" y="87.8906"/>
      <point x="222.168" y="76.1719"/>
      <point x="222.168" y="53.2227" type="curve" smooth="yes"/>
      <point x="222.168" y="27.832"/>
      <point x="207.031" y="15.1367"/>
    </contour>
    <contour>
      <point x="397.949" y="15.1367" type="curve" smooth="yes"/>
      <point x="379.883" y="15.1367"/>
      <point x="363.77" y="27.832"/>
      <point x="363.77" y="53.2227" type="curve" smooth="yes"/>
      <point x="363.77" y="76.1719"/>
      <point x="379.883" y="87.8906"/>
      <point x="397.949" y="87.8906" type="curve" smooth="yes"/>
      <point x="417.969" y="87.8906"/>
      <point x="434.082" y="76.1719"/>
      <point x="434.082" y="53.2227" type="curve" smooth="yes"/>
      <point x="434.082" y="27.832"/>
      <point x="419.922" y="15.1367"/>
    </contour>
    <contour>
      <point x="291.992" y="-12.207" type="curve" smooth="yes"/>
      <point x="272.949" y="-12.207"/>
      <point x="257.812" y="0.976562"/>
      <point x="257.812" y="24.9023" type="curve" smooth="yes"/>
      <point x="257.812" y="47.8516"/>
      <point x="272.949" y="61.0352"/>
      <point x="291.992" y="61.0352" type="curve" smooth="yes"/>
      <point x="312.988" y="61.0352"/>
      <point x="328.125" y="47.8516"/>
      <point x="328.125" y="24.9023" type="curve" smooth="yes"/>
      <point x="328.125" y="0.976562"/>
      <point x="312.988" y="-12.207"/>
    </contour>
  </outline>
</glyph>
<glyph name="maParenleft" format="1">
  <advance width="303"/>
  <unicode hex="E028"/>
  <outline>
    <contour>
      <point x="213.867" y="-175.781" type="line"/>
      <point x="130.859" y="-41.9922"/>
      <point x="82.0312" y="102.051"/>
      <point x="82.0312" y="277.832" type="curve" smooth="yes"/>
      <point x="82.0312" y="454.102"/>
      <point x="130.859" y="598.145"/>
      <point x="213.867" y="731.934" type="curve"/>
      <point x="265.137" y="708.008" type="line"/>
      <point x="187.988" y="581.055"/>
      <point x="149.902" y="430.176"/>
      <point x="149.902" y="277.832" type="curve" smooth="yes"/>
      <point x="149.902" y="125.977"/>
      <point x="187.988" y="-24.9023"/>
      <point x="265.137" y="-151.855" type="curve"/>
    </contour>
  </outline>
</glyph>
<glyph name="maParentright" format="1">
  <advance width="303"/>
  <unicode hex="E029"/>
  <outline>
    <contour>
      <point x="88.8672" y="-175.781" type="curve"/>
      <point x="38.0859" y="-151.855" type="line"/>
      <point x="115.234" y="-24.9023"/>
      <point x="152.832" y="125.977"/>
      <point x="152.832" y="277.832" type="curve" smooth="yes"/>
      <point x="152.832" y="430.176"/>
      <point x="115.234" y="581.055"/>
      <point x="38.0859" y="708.008" type="curve"/>
      <point x="88.8672" y="731.934" type="line"/>
      <point x="171.875" y="598.145"/>
      <point x="221.191" y="454.102"/>
      <point x="221.191" y="277.832" type="curve" smooth="yes"/>
      <point x="221.191" y="102.051"/>
      <point x="171.875" y="-41.9922"/>
    </contour>
  </outline>
</glyph>
<glyph name="maBracketright" format="1">
  <advance width="303"/>
  <unicode hex="E05D"/>
  <outline>
    <contour>
      <point x="31" y="-152" type="line"/>
      <point x="209" y="-152" type="line"/>
      <point x="209" y="707.998" type="line"/>
      <point x="31" y="707.998" type="line"/>
      <point x="31" y="661" type="line"/>
      <point x="147" y="661" type="line"/>
      <point x="147" y="-105" type="line"/>
      <point x="31" y="-105" type="line"/>
    </contour>
  </outline>
</glyph>
<glyph name="maBraceleft" format="1">
  <advance width="303"/>
  <unicode hex="E07B"/>
  <outline>
    <contour>
      <point x="228.027" y="-151.855" type="line" smooth="yes"/>
      <point x="148.926" y="-151.855"/>
      <point x="110.84" y="-122.07"/>
      <point x="110.84" y="-19.043" type="curve" smooth="yes"/>
      <point x="110.84" y="54.1992"/>
      <point x="120.117" y="106.934"/>
      <point x="120.117" y="173.828" type="curve" smooth="yes"/>
      <point x="120.117" y="212.891"/>
      <point x="102.051" y="250.977"/>
      <point x="34.1797" y="251.953" type="curve"/>
      <point x="34.1797" y="304.199" type="line"/>
      <point x="102.051" y="305.176"/>
      <point x="120.117" y="342.774"/>
      <point x="120.117" y="380.859" type="curve" smooth="yes"/>
      <point x="120.117" y="449.219"/>
      <point x="110.84" y="501.953"/>
      <point x="110.84" y="575.195" type="curve" smooth="yes"/>
      <point x="110.84" y="678.223"/>
      <point x="148.926" y="708.008"/>
      <point x="228.027" y="708.008" type="curve" smooth="yes"/>
      <point x="272.949" y="708.008" type="line"/>
      <point x="272.949" y="661.133" type="line"/>
      <point x="246.094" y="661.133" type="line" smooth="yes"/>
      <point x="191.895" y="661.133"/>
      <point x="178.223" y="634.766"/>
      <point x="178.223" y="569.824" type="curve" smooth="yes"/>
      <point x="178.223" y="508.789"/>
      <point x="184.082" y="457.031"/>
      <point x="184.082" y="389.16" type="curve" smooth="yes"/>
      <point x="184.082" y="324.219"/>
      <point x="166.992" y="291.992"/>
      <point x="124.023" y="279.785" type="curve"/>
      <point x="124.023" y="275.879" type="line"/>
      <point x="166.992" y="264.16"/>
      <point x="184.082" y="230.957"/>
      <point x="184.082" y="166.992" type="curve" smooth="yes"/>
      <point x="184.082" y="99.1212"/>
      <point x="178.223" y="46.8751"/>
      <point x="178.223" y="-14.1601" type="curve" smooth="yes"/>
      <point x="178.223" y="-79.1015"/>
      <point x="191.895" y="-104.98"/>
      <point x="246.094" y="-104.98" type="curve" smooth="yes"/>
      <point x="272.949" y="-104.98" type="line"/>
      <point x="272.949" y="-151.855" type="line"/>
    </contour>
  </outline>
</glyph>
<glyph name="maBraceright" format="1">
  <advance width="303"/>
  <unicode hex="E07D"/>
  <outline>
    <contour>
      <point x="30.7617" y="-151.855" type="line"/>
      <point x="30.7617" y="-104.98" type="line"/>
      <point x="57.1289" y="-104.98" type="line" smooth="yes"/>
      <point x="110.84" y="-104.98"/>
      <point x="125" y="-79.1016"/>
      <point x="125" y="-14.1602" type="curve" smooth="yes"/>
      <point x="125" y="46.875"/>
      <point x="120.117" y="99.1211"/>
      <point x="120.117" y="166.992" type="curve" smooth="yes"/>
      <point x="120.117" y="230.957"/>
      <point x="136.23" y="264.16"/>
      <point x="179.199" y="275.879" type="curve"/>
      <point x="179.199" y="279.785" type="line"/>
      <point x="136.23" y="291.992"/>
      <point x="120.117" y="324.219"/>
      <point x="120.117" y="389.16" type="curve" smooth="yes"/>
      <point x="120.117" y="457.031"/>
      <point x="125" y="508.789"/>
      <point x="125" y="569.824" type="curve" smooth="yes"/>
      <point x="125" y="634.766"/>
      <point x="110.84" y="661.133"/>
      <point x="57.1289" y="661.133" type="curve" smooth="yes"/>
      <point x="30.7617" y="661.133" type="line"/>
      <point x="30.7617" y="708.008" type="line"/>
      <point x="75.1953" y="708.008" type="line" smooth="yes"/>
      <point x="154.785" y="708.008"/>
      <point x="191.895" y="678.223"/>
      <point x="191.895" y="575.195" type="curve" smooth="yes"/>
      <point x="191.895" y="501.953"/>
      <point x="183.105" y="449.219"/>
      <point x="183.105" y="380.859" type="curve" smooth="yes"/>
      <point x="183.105" y="342.773"/>
      <point x="202.148" y="305.176"/>
      <point x="269.043" y="304.199" type="curve"/>
      <point x="269.043" y="251.953" type="line"/>
      <point x="202.148" y="250.976"/>
      <point x="183.105" y="212.891"/>
      <point x="183.105" y="173.828" type="curve" smooth="yes"/>
      <point x="183.105" y="106.934"/>
      <point x="191.895" y="54.1991"/>
      <point x="191.895" y="-19.043" type="curve" smooth="yes"/>
      <point x="191.895" y="-122.07"/>
      <point x="154.785" y="-151.856"/>
      <point x="75.1953" y="-151.856" type="curve" smooth="yes"/>
    </contour>
  </outline>
</glyph>
<glyph name="arBeh.medi2" format="1">
  <advance width="327.731"/>
  <unicode hex="E490"/>
  <outline>
    <contour>
      <point x="145.5" y="149.024" type="curve"/>
      <point x="128.697" y="117.746"/>
      <point x="99.008" y="78.4344"/>
      <point x="54.0076" y="78.4344" type="curve" smooth="yes"/>
      <point x="-0.297411" y="78.4344"/>
      <point x="-16.3982" y="135.683"/>
      <point x="-16.3982" y="175.974" type="curve" smooth="yes"/>
      <point x="-16.3982" y="223.79"/>
      <point x="-10.6225" y="263.115"/>
      <point x="-3.02301" y="303.548" type="curve"/>
      <point x="13.2244" y="274.817"/>
      <point x="42.4144" y="239.222"/>
      <point x="90.3918" y="239.222" type="curve" smooth="yes"/>
      <point x="131.421" y="239.222"/>
      <point x="143.225" y="265.254"/>
      <point x="157.8" y="301.012" type="curve" smooth="yes"/>
      <point x="169.52" y="329.767"/>
      <point x="177.205" y="350.512"/>
      <point x="185.207" y="371.088" type="curve"/>
      <point x="193.541" y="375.99" type="line"/>
      <point x="206.915" y="309.002"/>
      <point x="214.542" y="260.663"/>
      <point x="222.808" y="201.15" type="curve" smooth="yes"/>
      <point x="225.15" y="184.286"/>
      <point x="230.007" y="180.396"/>
      <point x="243.542" y="180.396" type="curve" smooth="yes"/>
      <point x="336.681" y="180.396" type="line"/>
      <point x="336.681" y="-0" type="line"/>
      <point x="213.149" y="0" type="line" smooth="yes"/>
      <point x="168.607" y="0"/>
      <point x="146.537" y="142.737"/>
    </contour>
    <contour>
      <point x="138.318" y="544.063" type="move" name="dotAbove"/>
    </contour>
    <contour>
      <point x="99.3906" y="526.369" type="move" name="smallVAbove"/>
    </contour>
    <contour>
      <point x="87.1287" y="594.849" type="move" name="markAbove"/>
    </contour>
    <contour>
      <point x="114.642" y="-125.043" type="move" name="dotBelow"/>
    </contour>
    <contour>
      <point x="145.5" y="-190.412" type="move" name="markBelow"/>
    </contour>
    <contour>
      <point x="254.965" y="-21" type="move" name="ringBelow"/>
    </contour>
    <contour>
      <point x="43.4288" y="434.378" type="move" name="hamzaAbove"/>
    </contour>
  </outline>
</glyph>
<glyph name="arBeh.fina" format="1">
  <advance width="520"/>
  <unicode hex="E6E1"/>
  <outline>
    <contour>
      <point x="507.812" y="180.176" type="curve"/>
      <point x="520.02" y="180.176" type="line"/>
      <point x="520.02" y="0" type="line"/>
      <point x="471.191" y="0" type="line" smooth="yes"/>
      <point x="443.632" y="0"/>
      <point x="420.161" y="47.6821"/>
      <point x="412.109" y="69.8242" type="curve"/>
      <point x="412.109" y="68.8476"/>
      <point x="411.133" y="66.8945"/>
      <point x="410.156" y="63.9648" type="curve"/>
      <point x="408.203" y="61.0351"/>
      <point x="405.762" y="57.1289"/>
      <point x="402.832" y="52.2461" type="curve" smooth="yes"/>
      <point x="399.902" y="46.875"/>
      <point x="397.949" y="41.0156"/>
      <point x="395.019" y="35.1562" type="curve" smooth="yes"/>
      <point x="389.16" y="22.9492"/>
      <point x="382.812" y="13.1836"/>
      <point x="378.906" y="5.85934" type="curve" smooth="yes"/>
      <point x="376.953" y="2.92964"/>
      <point x="375.976" y="0.976538"/>
      <point x="375" y="0" type="curve"/>
      <point x="134.766" y="0" type="line" smooth="yes"/>
      <point x="82.0312" y="0"/>
      <point x="44.9219" y="28.8086"/>
      <point x="24.9023" y="77.1484" type="curve" smooth="yes"/>
      <point x="18.4831" y="91.5918"/>
      <point x="17.0898" y="136.108"/>
      <point x="17.0898" y="154.785" type="curve" smooth="yes"/>
      <point x="17.0898" y="177.246" type="line" smooth="yes"/>
      <point x="17.0898" y="230.432"/>
      <point x="37.7112" y="343.148"/>
      <point x="73.2421" y="387.207" type="curve"/>
      <point x="86.914" y="388.184" type="line"/>
      <point x="80.0781" y="348.145"/>
      <point x="75.1953" y="309.082"/>
      <point x="75.1953" y="269.043" type="curve" smooth="yes"/>
      <point x="75.1953" y="220.384"/>
      <point x="107.737" y="180.176"/>
      <point x="158.203" y="180.176" type="curve" smooth="yes"/>
      <point x="393.066" y="180.176" type="line"/>
      <point x="395.019" y="198.242"/>
      <point x="395.996" y="214.844"/>
      <point x="396.973" y="231.934" type="curve"/>
      <point x="396.973" y="248.047"/>
      <point x="397.949" y="265.137"/>
      <point x="400.879" y="282.227" type="curve"/>
      <point x="419.922" y="316.895"/>
      <point x="446.777" y="349.121"/>
      <point x="472.168" y="377.93" type="curve"/>
      <point x="475.098" y="374.023"/>
      <point x="476.074" y="370.117"/>
      <point x="479.004" y="365.234" type="curve"/>
      <point x="479.981" y="357.91"/>
      <point x="480.957" y="350.098"/>
      <point x="480.957" y="342.773" type="curve" smooth="yes"/>
      <point x="480.957" y="314.941"/>
      <point x="479.981" y="286.133"/>
      <point x="476.074" y="258.789" type="curve" smooth="yes"/>
      <point x="475.098" y="250"/>
      <point x="473.145" y="240.234"/>
      <point x="472.168" y="229.98" type="curve"/>
      <point x="470.215" y="220.215"/>
      <point x="469.238" y="209.961"/>
      <point x="469.238" y="201.172" type="curve" smooth="yes"/>
      <point x="469.238" y="186.035"/>
      <point x="478.027" y="181.152"/>
      <point x="490.234" y="180.176" type="curve"/>
      <point x="492.676" y="179.687"/>
      <point x="495.117" y="179.199"/>
      <point x="498.047" y="179.199" type="curve" smooth="yes"/>
      <point x="501.465" y="179.199"/>
      <point x="504.395" y="179.687"/>
    </contour>
    <contour>
      <point x="263.145" y="504.596" type="move" name="dotAbove"/>
    </contour>
    <contour>
      <point x="211.733" y="504.596" type="move" name="markAbove"/>
    </contour>
    <contour>
      <point x="241.633" y="-82.4614" type="move" name="dotBelow"/>
    </contour>
    <contour>
      <point x="188.534" y="-82.4614" type="move" name="markBelow"/>
    </contour>
    <contour>
      <point x="234.654" y="434.87" type="move" name="hamzaAbove"/>
    </contour>
  </outline>
</glyph>
<glyph name="arBeh.init" format="1">
  <advance width="220.321"/>
  <unicode hex="E6E2"/>
  <outline>
    <contour>
      <point x="151.37" y="0" type="curve"/>
      <point x="-40.5249" y="0" type="line"/>
      <point x="-40.5249" y="180.176" type="line"/>
      <point x="127.444" y="180.176" type="line"/>
      <point x="130.374" y="181.152"/>
      <point x="131.35" y="183.105"/>
      <point x="131.35" y="186.035" type="curve" smooth="yes"/>
      <point x="131.35" y="193.848" type="line" smooth="yes"/>
      <point x="131.35" y="215.568"/>
      <point x="99.2227" y="264.501"/>
      <point x="84.4751" y="284.18" type="curve" smooth="yes"/>
      <point x="77.7979" y="293.09"/>
      <point x="73.2447" y="299.805"/>
      <point x="70.315" y="304.199" type="curve"/>
      <point x="75.1978" y="319.824"/>
      <point x="86.6314" y="346.1"/>
      <point x="98.6353" y="373.047" type="curve" smooth="yes"/>
      <point x="110.558" y="399.813"/>
      <point x="122.561" y="425.781"/>
      <point x="133.303" y="441.895" type="curve"/>
      <point x="169.33" y="421.719"/>
      <point x="209.475" y="302.137"/>
      <point x="209.475" y="255.859" type="curve" smooth="yes"/>
      <point x="209.475" y="166.064"/>
      <point x="190.796" y="80.7759"/>
    </contour>
    <contour>
      <point x="77.4004" y="564.053" type="move" name="dotAbove"/>
    </contour>
    <contour>
      <point x="115.604" y="508.358" type="move" name="smallVAbove"/>
    </contour>
    <contour>
      <point x="87.4995" y="585.029" type="move" name="markAbove"/>
    </contour>
    <contour>
      <point x="-21.0753" y="419.329" type="move" name="hamzaAbove"/>
    </contour>
    <contour>
      <point x="70.315" y="-114.848" type="move" name="dotBelow"/>
    </contour>
    <contour>
      <point x="35.3519" y="-128.642" type="move" name="markBelow"/>
    </contour>
    <contour>
      <point x="151.37" y="-44.628" type="move" name="ringBelow"/>
    </contour>
  </outline>
</glyph>
<glyph name="arBeh.medi" format="1">
  <advance width="295"/>
  <unicode hex="E6E3"/>
  <outline>
    <contour>
      <point x="125" y="64.9414" type="curve"/>
      <point x="116.211" y="41.9922"/>
      <point x="104.004" y="20.9961"/>
      <point x="91.7969" y="0" type="curve"/>
      <point x="-51.9531" y="0" type="line"/>
      <point x="-51.9531" y="180.176" type="line"/>
      <point x="112.793" y="180.176" type="line"/>
      <point x="107.91" y="195.801"/>
      <point x="106.934" y="212.891"/>
      <point x="106.934" y="231.934" type="curve" smooth="yes"/>
      <point x="106.934" y="284.18" type="line"/>
      <point x="133.789" y="318.848"/>
      <point x="162.109" y="350.098"/>
      <point x="190.918" y="382.812" type="curve"/>
      <point x="202.148" y="368.164"/>
      <point x="205.078" y="337.891"/>
      <point x="205.078" y="306.152" type="curve" smooth="yes"/>
      <point x="205.078" y="290.039"/>
      <point x="205.078" y="274.902"/>
      <point x="204.101" y="259.766" type="curve" smooth="yes"/>
      <point x="203.125" y="245.117"/>
      <point x="202.148" y="231.934"/>
      <point x="202.148" y="222.168" type="curve" smooth="yes"/>
      <point x="202.148" y="212.495"/>
      <point x="204.615" y="180.176"/>
      <point x="217.773" y="180.176" type="curve" smooth="yes"/>
      <point x="297.851" y="180.176" type="line"/>
      <point x="297.851" y="0" type="line"/>
      <point x="178.223" y="0" type="line" smooth="yes"/>
      <point x="153.038" y="0"/>
      <point x="131.828" y="44.4552"/>
    </contour>
    <contour>
      <point x="116.714" y="536.936" type="move" name="dotAbove"/>
    </contour>
    <contour>
      <point x="88.6013" y="502.065" type="move" name="smallVAbove"/>
    </contour>
    <contour>
      <point x="106.934" y="544.468" type="move" name="markAbove"/>
    </contour>
    <contour>
      <point x="94.6568" y="-112.341" type="move" name="dotBelow"/>
    </contour>
    <contour>
      <point x="93.4029" y="-136.165" type="move" name="markBelow"/>
    </contour>
    <contour>
      <point x="231.336" y="-47.1358" type="move" name="ringBelow"/>
    </contour>
    <contour>
      <point x="35.1626" y="374.373" type="move" name="hamzaAbove"/>
    </contour>
  </outline>
</glyph>
<glyph name="arQaf.fina" format="1">
  <advance width="465"/>
  <unicode hex="E6F1"/>
  <outline>
    <contour>
      <point x="416.992" y="208.984" type="curve"/>
      <point x="417.969" y="195.801"/>
      <point x="419.922" y="187.012"/>
      <point x="420.898" y="180.176" type="curve"/>
      <point x="467.773" y="180.176" type="line"/>
      <point x="467.773" y="0" type="line"/>
      <point x="404.785" y="0" type="line"/>
      <point x="381.384" y="-127.73"/>
      <point x="297.031" y="-194.824"/>
      <point x="167.969" y="-194.824" type="curve" smooth="yes"/>
      <point x="72.1919" y="-194.824"/>
      <point x="19.9927" y="-114.488"/>
      <point x="18.0664" y="-25.8789" type="curve"/>
      <point x="18.0664" y="-4.88281"/>
      <point x="20.0195" y="8.78906"/>
      <point x="20.9961" y="19.043" type="curve"/>
      <point x="21.9727" y="23.9258"/>
      <point x="22.9493" y="28.8086"/>
      <point x="23.9259" y="34.1797" type="curve" smooth="yes"/>
      <point x="24.9025" y="39.0625"/>
      <point x="24.9025" y="43.9453"/>
      <point x="25.8791" y="49.8047" type="curve"/>
      <point x="25.8791" y="61.0352"/>
      <point x="30.7619" y="79.1016"/>
      <point x="38.0862" y="100.098" type="curve" smooth="yes"/>
      <point x="50.5993" y="138.53"/>
      <point x="63.3093" y="177.433"/>
      <point x="83.008" y="212.891" type="curve"/>
      <point x="89.844" y="222.168"/>
      <point x="104.981" y="230.957"/>
      <point x="116.211" y="234.863" type="curve"/>
      <point x="92.7737" y="183.105"/>
      <point x="83.008" y="125"/>
      <point x="83.008" y="67.8711" type="curve" smooth="yes"/>
      <point x="83.008" y="-25.5019"/>
      <point x="135.445" y="-58.1055"/>
      <point x="223.145" y="-58.1055" type="curve" smooth="yes"/>
      <point x="252.389" y="-58.1055"/>
      <point x="355.957" y="-47.4561"/>
      <point x="355.957" y="-3.90625" type="curve"/>
      <point x="354.981" y="2.92968" type="line"/>
      <point x="288.052" y="2.92968"/>
      <point x="198.242" y="11.0286"/>
      <point x="198.242" y="98.1445" type="curve" smooth="yes"/>
      <point x="198.242" y="160.438"/>
      <point x="232.654" y="269.627"/>
      <point x="263.184" y="323.242" type="curve"/>
      <point x="282.227" y="357.91"/>
      <point x="306.153" y="381.836"/>
      <point x="331.055" y="381.836" type="curve" smooth="yes"/>
      <point x="351.074" y="381.836"/>
      <point x="368.164" y="362.793"/>
      <point x="380.86" y="337.891" type="curve"/>
      <point x="393.067" y="312.988"/>
      <point x="401.856" y="278.809"/>
      <point x="409.18" y="250" type="curve"/>
      <point x="412.11" y="234.863"/>
      <point x="415.039" y="222.168"/>
    </contour>
    <contour>
      <point x="328.125" y="178.223" type="curve" smooth="yes"/>
      <point x="331.055" y="178.223"/>
      <point x="333.008" y="178.223"/>
      <point x="334.961" y="179.199" type="curve" smooth="yes"/>
      <point x="336.914" y="180.176"/>
      <point x="338.867" y="180.176"/>
      <point x="341.797" y="180.176" type="curve"/>
      <point x="341.797" y="191.895"/>
      <point x="335.937" y="204.102"/>
      <point x="329.101" y="213.867" type="curve"/>
      <point x="320.801" y="224.121"/>
      <point x="311.035" y="230.957"/>
      <point x="302.246" y="237.793" type="curve"/>
      <point x="293.076" y="236.126"/>
      <point x="272.949" y="222.271"/>
      <point x="272.949" y="211.914" type="curve" smooth="yes"/>
      <point x="272.949" y="193.325"/>
      <point x="312.831" y="178.223"/>
    </contour>
    <contour>
      <point x="272.694" y="538.829" type="move" name="dotAbove"/>
    </contour>
    <contour>
      <point x="128.559" y="422.785" type="move" name="markAbove"/>
    </contour>
    <contour>
      <point x="168.465" y="-254.326" type="move" name="markBelow"/>
    </contour>
    <contour>
      <point x="327.5" y="-245.097" type="move" name="dotBelow"/>
    </contour>
  </outline>
</glyph>
<glyph name="arFeh.fina" format="1">
  <advance width="737.998"/>
  <unicode hex="EA11"/>
  <outline>
    <contour>
      <point x="661.133" y="229.98" type="curve" smooth="yes"/>
      <point x="653.809" y="213.867"/>
      <point x="646.973" y="199.219"/>
      <point x="642.09" y="180.176" type="curve"/>
      <point x="743.164" y="180.176" type="line"/>
      <point x="743.164" y="0" type="line"/>
      <point x="134.766" y="0" type="line" smooth="yes"/>
      <point x="29.5786" y="0"/>
      <point x="17.0898" y="93.9385"/>
      <point x="17.0898" y="177.246" type="curve" smooth="yes"/>
      <point x="17.0898" y="231.024"/>
      <point x="37.4508" y="342.826"/>
      <point x="73.2422" y="387.207" type="curve"/>
      <point x="86.9141" y="388.184" type="line"/>
      <point x="80.0781" y="348.145"/>
      <point x="75.1953" y="309.082"/>
      <point x="75.1953" y="269.043" type="curve" smooth="yes"/>
      <point x="75.1953" y="220.384"/>
      <point x="107.737" y="180.176"/>
      <point x="158.203" y="180.176" type="curve" smooth="yes"/>
      <point x="425.781" y="180.176" type="line"/>
      <point x="423.828" y="186.035"/>
      <point x="422.852" y="192.871"/>
      <point x="422.852" y="200.195" type="curve" smooth="yes"/>
      <point x="422.852" y="215.82"/>
      <point x="437.988" y="243.164"/>
      <point x="459.961" y="273.926" type="curve" smooth="yes"/>
      <point x="482.804" y="306.414"/>
      <point x="567.876" y="404.785"/>
      <point x="609.863" y="404.785" type="curve" smooth="yes"/>
      <point x="638.184" y="404.785"/>
      <point x="653.809" y="382.813"/>
      <point x="663.086" y="357.91" type="curve"/>
      <point x="670.898" y="333.008"/>
      <point x="672.852" y="300.781"/>
      <point x="672.852" y="280.762" type="curve" smooth="yes"/>
      <point x="672.852" y="261.231"/>
      <point x="667.969" y="245.117"/>
    </contour>
    <contour>
      <point x="559.082" y="180.176" type="curve"/>
      <point x="570.801" y="181.152"/>
      <point x="582.031" y="185.059"/>
      <point x="592.773" y="192.871" type="curve"/>
      <point x="592.773" y="194.824"/>
      <point x="592.773" y="198.242"/>
      <point x="594.238" y="201.172" type="curve" smooth="yes"/>
      <point x="595.215" y="204.102"/>
      <point x="595.215" y="206.055"/>
      <point x="595.215" y="208.008" type="curve" smooth="yes"/>
      <point x="595.215" y="227.583"/>
      <point x="578.936" y="270.02"/>
      <point x="555.176" y="270.02" type="curve" smooth="yes"/>
      <point x="542.979" y="270.02"/>
      <point x="488.77" y="237.403"/>
      <point x="488.77" y="225.098" type="curve" smooth="yes"/>
      <point x="488.77" y="203.816"/>
      <point x="541.084" y="182.747"/>
    </contour>
    <contour>
      <point x="578.867" y="552.08" type="move" name="dotAbove"/>
    </contour>
    <contour>
      <point x="277.64" y="503.911" type="move" name="markAbove"/>
    </contour>
    <contour>
      <point x="213.712" y="-104.179" type="move" name="markBelow"/>
    </contour>
    <contour>
      <point x="551.616" y="-124.226" type="move" name="dotBelow"/>
    </contour>
  </outline>
</glyph>
<glyph name="arFeh.init" format="1">
  <advance width="291"/>
  <unicode hex="EA12"/>
  <outline>
    <contour>
      <point x="274.902" y="242.188" type="curve" smooth="yes"/>
      <point x="274.902" y="159.42"/>
      <point x="270.576" y="80.9668"/>
      <point x="251.953" y="0" type="curve"/>
      <point x="-1.95312" y="0" type="line"/>
      <point x="-1.95312" y="180.176" type="line"/>
      <point x="201.172" y="180.176" type="line"/>
      <point x="205.078" y="182.129" type="line"/>
      <point x="206.055" y="198.242" type="line"/>
      <point x="206.055" y="211.06"/>
      <point x="193.795" y="245.529"/>
      <point x="187.012" y="256.836" type="curve"/>
      <point x="162.647" y="223.7"/>
      <point x="144.855" y="200.195"/>
      <point x="100.098" y="200.195" type="curve" smooth="yes"/>
      <point x="53.2046" y="200.195"/>
      <point x="13.1836" y="237.696"/>
      <point x="13.1836" y="285.156" type="curve" smooth="yes"/>
      <point x="13.1836" y="295.898"/>
      <point x="18.0664" y="314.941"/>
      <point x="24.9024" y="335.937" type="curve"/>
      <point x="33.4612" y="359.332"/>
      <point x="58.6153" y="419.649"/>
      <point x="76.1719" y="436.035" type="curve" smooth="yes"/>
      <point x="123.047" y="479.98" type="line"/>
      <point x="131.836" y="483.887"/>
      <point x="146.973" y="491.211"/>
      <point x="158.203" y="491.211" type="curve" smooth="yes"/>
      <point x="238.221" y="491.211"/>
      <point x="274.902" y="297.384"/>
    </contour>
    <contour>
      <point x="138.184" y="325.195" type="line" smooth="yes"/>
      <point x="145.996" y="325.195"/>
      <point x="152.832" y="328.125"/>
      <point x="160.156" y="332.031" type="curve"/>
      <point x="151.855" y="349.121"/>
      <point x="138.184" y="363.77"/>
      <point x="123.047" y="376.953" type="curve"/>
      <point x="116.211" y="377.93" type="line"/>
      <point x="91.7969" y="370.117" type="line"/>
      <point x="86.9141" y="366.211"/>
      <point x="80.0781" y="359.863"/>
      <point x="80.0781" y="353.027" type="curve"/>
      <point x="88.8672" y="333.984"/>
      <point x="109.863" y="325.195"/>
      <point x="129.883" y="325.195" type="curve" smooth="yes"/>
    </contour>
    <contour>
      <point x="129.883" y="637.266" type="move" name="dotAbove"/>
    </contour>
    <contour>
      <point x="138.184" y="675.126" type="move" name="markAbove"/>
    </contour>
    <contour>
      <point x="100.559" y="-85.8022" type="move" name="markBelow"/>
    </contour>
    <contour>
      <point x="123" y="-144.272" type="move" name="dotBelow"/>
    </contour>
  </outline>
</glyph>
<glyph name="arFeh.medi" format="1">
  <advance width="367"/>
  <unicode hex="EA13"/>
  <outline>
    <contour>
      <point x="267.09" y="206.055" type="curve"/>
      <point x="263.184" y="198.242"/>
      <point x="259.766" y="188.965"/>
      <point x="257.813" y="180.176" type="curve"/>
      <point x="374.023" y="180.176" type="line"/>
      <point x="374.023" y="0" type="line"/>
      <point x="-1.9531" y="0" type="line"/>
      <point x="-1.9531" y="180.176" type="line"/>
      <point x="41.0157" y="180.176" type="line"/>
      <point x="40.0391" y="187.012"/>
      <point x="39.0625" y="192.871"/>
      <point x="39.0625" y="198.242" type="curve" smooth="yes"/>
      <point x="39.0625" y="240.72"/>
      <point x="122.893" y="334.154"/>
      <point x="153.809" y="361.816" type="curve"/>
      <point x="181.152" y="387.207"/>
      <point x="207.031" y="404.785"/>
      <point x="226.074" y="404.785" type="curve" smooth="yes"/>
      <point x="281.329" y="404.785"/>
      <point x="290.039" y="321.294"/>
      <point x="290.039" y="280.762" type="curve" smooth="yes"/>
      <point x="290.039" y="261.23"/>
      <point x="285.156" y="246.094"/>
      <point x="277.832" y="229.98" type="curve" smooth="yes"/>
      <point x="273.926" y="222.168"/>
      <point x="270.019" y="213.867"/>
    </contour>
    <contour>
      <point x="174.805" y="180.176" type="curve" smooth="yes"/>
      <point x="187.012" y="180.176"/>
      <point x="200.195" y="185.059"/>
      <point x="208.984" y="192.871" type="curve"/>
      <point x="208.984" y="195.801"/>
      <point x="208.984" y="198.242"/>
      <point x="209.961" y="201.172" type="curve" smooth="yes"/>
      <point x="210.938" y="203.125"/>
      <point x="210.938" y="205.078"/>
      <point x="210.938" y="208.008" type="curve" smooth="yes"/>
      <point x="210.938" y="219.238"/>
      <point x="208.008" y="233.887"/>
      <point x="201.172" y="247.07" type="curve"/>
      <point x="192.871" y="258.789"/>
      <point x="183.106" y="270.02"/>
      <point x="170.899" y="270.02" type="curve" smooth="yes"/>
      <point x="159.219" y="270.02"/>
      <point x="104.981" y="236.818"/>
      <point x="104.981" y="225.098" type="curve" smooth="yes"/>
      <point x="104.981" y="204.413"/>
      <point x="156.865" y="180.176"/>
    </contour>
    <contour>
      <point x="174.805" y="537.324" type="move" name="dotAbove"/>
    </contour>
    <contour>
      <point x="205.805" y="537.324" type="move" name="markAbove"/>
    </contour>
    <contour>
      <point x="144.028" y="-136.165" type="move" name="markBelow"/>
    </contour>
    <contour>
      <point x="150.298" y="-122.372" type="move" name="dotBelow"/>
    </contour>
  </outline>
</glyph>
<glyph name="diWasla" format="1">
  <advance width="0"/>
  <unicode hex="EE07"/>
  <outline>
    <contour>
      <point x="187.988" y="616.699" type="curve" smooth="yes"/>
      <point x="187.988" y="589.8"/>
      <point x="173.714" y="583.301"/>
      <point x="151.367" y="574.707" type="curve"/>
      <point x="134.277" y="571.777" type="line"/>
      <point x="98.1445" y="569.824" type="line"/>
      <point x="65.4297" y="574.707" type="line"/>
      <point x="62.0117" y="574.707"/>
      <point x="59.082" y="575.684"/>
      <point x="56.1523" y="577.637" type="curve"/>
      <point x="30.2734" y="558.594" type="line"/>
      <point x="25.3906" y="565.918" type="line"/>
      <point x="35.1562" y="584.961" type="line"/>
      <point x="20.9961" y="591.797" type="line" smooth="yes"/>
      <point x="14.1601" y="594.727"/>
      <point x="8.30076" y="596.68"/>
      <point x="2.44138" y="596.68" type="curve" smooth="yes"/>
      <point x="-0" y="596.68"/>
      <point x="-2.9297" y="595.703"/>
      <point x="-5.8594" y="593.75" type="curve"/>
      <point x="-14.6485" y="589.844" type="line" smooth="yes"/>
      <point x="-20.9961" y="586.914"/>
      <point x="-25.8789" y="581.543"/>
      <point x="-30.7617" y="576.66" type="curve"/>
      <point x="-36.6211" y="576.66" type="line"/>
      <point x="-38.5742" y="583.008" type="line"/>
      <point x="-36.6211" y="591.797" type="line"/>
      <point x="-27.8321" y="604.98" type="line" smooth="yes"/>
      <point x="-22.9492" y="611.816"/>
      <point x="-16.6016" y="617.676"/>
      <point x="-9.76565" y="622.559" type="curve"/>
      <point x="-1.95315" y="625" type="line"/>
      <point x="7.32419" y="625.977" type="line"/>
      <point x="18.0664" y="625.977"/>
      <point x="38.0859" y="622.559"/>
      <point x="58.1054" y="607.91" type="curve"/>
      <point x="68.3594" y="618.652"/>
      <point x="82.0312" y="629.883"/>
      <point x="99.1211" y="641.602" type="curve"/>
      <point x="112.305" y="648.926"/>
      <point x="124.023" y="654.785"/>
      <point x="136.23" y="657.715" type="curve" smooth="yes"/>
      <point x="143.066" y="659.668" type="line"/>
      <point x="149.414" y="659.668" type="line" smooth="yes"/>
      <point x="173.34" y="659.668"/>
      <point x="187.988" y="637.695"/>
    </contour>
    <contour>
      <point x="112.305" y="595.703" type="curve" smooth="yes"/>
      <point x="132.324" y="595.703"/>
      <point x="155.273" y="601.562"/>
      <point x="155.273" y="613.77" type="curve"/>
      <point x="154.297" y="618.652" type="line"/>
      <point x="150.391" y="625.977"/>
      <point x="144.043" y="629.883"/>
      <point x="135.254" y="629.883" type="curve"/>
      <point x="125" y="628.906" type="line"/>
      <point x="122.07" y="628.906"/>
      <point x="118.164" y="626.953"/>
      <point x="111.328" y="623.535" type="curve"/>
      <point x="91.3086" y="611.816" type="line"/>
      <point x="83.9844" y="606.934" type="line"/>
      <point x="78.125" y="600.586" type="line"/>
      <point x="89.3555" y="597.656"/>
      <point x="100.098" y="595.703"/>
    </contour>
    <contour>
      <point x="-0.5664" y="506.069" type="move" name="_hamzaAbove"/>
    </contour>
  </outline>
</glyph>
